STARTFONT 2.1
COMMENT
COMMENT Converted from OpenType font "notosans_regular.ttf" by "otf2bdf 3.0".
COMMENT
FONT -FreeType-Noto Sans-Medium-R-Normal--44-320-100-100-P-219-ISO10646-1
SIZE 32 100 100
FONTBOUNDINGBOX 152 78 -28 -18
STARTPROPERTIES 19
FOUNDRY "FreeType"
FAMILY_NAME "Noto Sans"
WEIGHT_NAME "Medium"
SLANT "R"
SETWIDTH_NAME "Normal"
ADD_STYLE_NAME ""
PIXEL_SIZE 44
POINT_SIZE 320
RESOLUTION_X 100
RESOLUTION_Y 100
SPACING "P"
AVERAGE_WIDTH 219
CHARSET_REGISTRY "ISO10646"
CHARSET_ENCODING "1"
FONT_ASCENT 47
FONT_DESCENT 12
COPYRIGHT "Copyright 2015-2021 Google LLC. All Rights Reserved."
_OTF_FONTFILE "notosans_regular.ttf"
_OTF_PSNAME "NotoSans-Regular"
ENDPROPERTIES
CHARS 3053
STARTCHAR 0000
ENCODING 0
SWIDTH 0 0
DWIDTH 0 0
BBX 0 0 0 0
BITMAP
ENDCHAR
STARTCHAR 000D
ENCODING 13
SWIDTH 247 0
DWIDTH 11 0
BBX 0 0 0 0
BITMAP
ENDCHAR
STARTCHAR 0020
ENCODING 32
SWIDTH 247 0
DWIDTH 11 0
BBX 0 0 0 0
BITMAP
ENDCHAR
STARTCHAR 0021
ENCODING 33
SWIDTH 247 0
DWIDTH 11 0
BBX 6 33 3 -1
BITMAP
78
78
78
78
78
78
78
78
78
78
78
78
78
78
78
78
78
78
70
30
30
30
30
00
00
00
00
78
FC
FC
FC
78
30
ENDCHAR
STARTCHAR 0022
ENCODING 34
SWIDTH 405 0
DWIDTH 18 0
BBX 12 12 3 20
BITMAP
F0F0
F0F0
F0F0
F0F0
F0F0
F0F0
F0F0
F070
6070
6070
6060
6060
ENDCHAR
STARTCHAR 0023
ENCODING 35
SWIDTH 630 0
DWIDTH 28 0
BBX 27 32 1 0
BITMAP
00380E00
00381C00
00381C00
00781C00
00701C00
00701C00
00703C00
00703800
00F03800
00E03800
3FFFFFE0
3FFFFFE0
3FFFFFE0
00E07000
01C07000
01C07000
01C0F000
01C0E000
01C0E000
0380E000
FFFFFF80
FFFFFF80
FFFFFF80
0381C000
0781C000
0701C000
0703C000
07038000
07038000
0F038000
0E038000
0E078000
ENDCHAR
STARTCHAR 0024
ENCODING 36
SWIDTH 562 0
DWIDTH 25 0
BBX 20 37 3 -3
BITMAP
00E000
00E000
00E000
00E000
03FE00
1FFFC0
3FFFE0
7FFFC0
F8E0C0
F0E000
F0E000
F0E000
F0E000
F0E000
FCE000
7FE000
3FE000
1FFC00
07FF00
00FFC0
00EFE0
00E3E0
00E0F0
00E0F0
00E0F0
00E0F0
00E1F0
C0E3E0
FFFFC0
FFFF80
FFFF00
07F000
00E000
00E000
00E000
00E000
00E000
ENDCHAR
STARTCHAR 0025
ENCODING 37
SWIDTH 810 0
DWIDTH 36 0
BBX 33 32 2 0
BITMAP
0FC001E000
3FE001C000
3FF003C000
7870038000
7078078000
7038070000
F0380F0000
F0380E0000
E0381C0000
E0383C0000
E038380000
E038780000
F038700000
F038F1F800
7078E3FE00
7071E7DE00
78F1CF0F00
3FE38E0700
1FC78E0700
07070E0780
000F0E0780
000E0E0780
001E0E0780
001C0E0780
003C0E0780
00380E0780
00700E0700
00F00E0700
00E0070F00
01E007DE00
01C003FE00
03C001F800
ENDCHAR
STARTCHAR 0026
ENCODING 38
SWIDTH 720 0
DWIDTH 32 0
BBX 30 32 2 0
BITMAP
01FE0000
03FF8000
07FFC000
0F83E000
0F01E000
1E01E000
1E01E000
1E01E000
1E01E000
0F03E000
0F87C000
078F8000
03DF0000
03FE0000
01FC0000
07F80000
0FFC00F0
1FBE00F0
3E1F80F0
7C0FC1E0
7807E1E0
7803F1E0
F801FBC0
F000FFC0
F0007F80
F8003F00
78003F80
7C00FFC0
3F03FBE0
3FFFF1F0
1FFFC0F8
07FF007C
ENDCHAR
STARTCHAR 0027
ENCODING 39
SWIDTH 225 0
DWIDTH 10 0
BBX 4 12 3 20
BITMAP
F0
F0
F0
F0
F0
F0
F0
F0
60
60
60
60
ENDCHAR
STARTCHAR 0028
ENCODING 40
SWIDTH 292 0
DWIDTH 13 0
BBX 10 39 2 -7
BITMAP
03C0
0780
0780
0F00
1E00
1E00
3C00
3C00
3C00
7800
7800
7800
7000
F000
F000
F000
F000
F000
F000
F000
F000
F000
F000
F000
F000
F000
F000
7800
7800
7800
7C00
3C00
3C00
1E00
1E00
0F00
0F00
0780
03C0
ENDCHAR
STARTCHAR 0029
ENCODING 41
SWIDTH 292 0
DWIDTH 13 0
BBX 11 39 1 -7
BITMAP
F000
7800
3C00
3C00
1E00
1E00
0F00
0F00
0780
0780
0780
03C0
03C0
03C0
03C0
03C0
03C0
01C0
01E0
01E0
01E0
01C0
03C0
03C0
03C0
03C0
03C0
03C0
0780
0780
0780
0F80
0F00
0F00
1E00
1E00
3C00
7800
7000
ENDCHAR
STARTCHAR 002A
ENCODING 42
SWIDTH 540 0
DWIDTH 24 0
BBX 20 20 2 14
BITMAP
00F000
00F000
00F000
00F000
00F000
007000
807010
F870F0
FF6FF0
FFFFF0
FFFFF0
00F800
01F800
03DC00
079E00
078F00
0F0F00
1F0780
1E0780
060200
ENDCHAR
STARTCHAR 002B
ENCODING 43
SWIDTH 562 0
DWIDTH 25 0
BBX 21 21 2 5
BITMAP
007000
007000
007000
007000
007000
007000
007000
007000
007000
FFFFF8
FFFFF8
FFFFF8
007000
007000
007000
007000
007000
007000
007000
007000
007000
ENDCHAR
STARTCHAR 002C
ENCODING 44
SWIDTH 247 0
DWIDTH 11 0
BBX 6 11 2 -6
BITMAP
3C
3C
3C
7C
78
78
70
70
F0
E0
E0
ENDCHAR
STARTCHAR 002D
ENCODING 45
SWIDTH 315 0
DWIDTH 14 0
BBX 11 4 2 10
BITMAP
FFE0
FFE0
FFE0
FFE0
ENDCHAR
STARTCHAR 002E
ENCODING 46
SWIDTH 247 0
DWIDTH 11 0
BBX 6 6 3 -1
BITMAP
78
FC
FC
FC
78
30
ENDCHAR
STARTCHAR 002F
ENCODING 47
SWIDTH 360 0
DWIDTH 16 0
BBX 15 32 1 0
BITMAP
001E
001E
003C
003C
003C
0078
0078
0070
00F0
00F0
01E0
01E0
01E0
03C0
03C0
0380
0780
0780
0F00
0F00
0F00
1E00
1E00
1C00
3C00
3C00
7800
7800
7800
F000
F000
E000
ENDCHAR
STARTCHAR 0030
ENCODING 48
SWIDTH 562 0
DWIDTH 25 0
BBX 21 32 2 0
BITMAP
01FE00
07FF00
0FFF80
1F07C0
3E03E0
3C01E0
7C00F0
7800F0
7800F0
780078
700078
F00078
F00078
F00078
F00078
F00078
F00078
F00078
F00078
F00078
F00078
700078
780078
780078
7800F0
7800F0
3C01F0
3E01E0
1F07E0
0FFFC0
07FF80
03FE00
ENDCHAR
STARTCHAR 0031
ENCODING 49
SWIDTH 562 0
DWIDTH 25 0
BBX 12 32 4 0
BITMAP
00F0
01F0
03F0
0FF0
1FF0
3EF0
7CF0
F8F0
60F0
00F0
00F0
00F0
00F0
00F0
00F0
00F0
00F0
00F0
00F0
00F0
00F0
00F0
00F0
00F0
00F0
00F0
00F0
00F0
00F0
00F0
00F0
00F0
ENDCHAR
STARTCHAR 0032
ENCODING 50
SWIDTH 562 0
DWIDTH 25 0
BBX 21 32 2 0
BITMAP
03FE00
0FFF00
3FFFC0
7F0FC0
7803E0
2001E0
0000F0
0000F0
0000F0
0000F0
0000F0
0001E0
0001E0
0003E0
0003C0
000780
000F80
001F00
003E00
007C00
00F800
01F000
03E000
07C000
0F8000
1F0000
3E0000
7C0000
FFFFF8
FFFFF8
FFFFF8
FFFFF8
ENDCHAR
STARTCHAR 0033
ENCODING 51
SWIDTH 562 0
DWIDTH 25 0
BBX 21 32 2 0
BITMAP
07FE00
1FFF80
7FFFC0
FE07E0
7003E0
2001F0
0000F0
0000F0
0000F0
0000F0
0001E0
0001E0
0003C0
000F80
07FF00
07FC00
07FF80
003FE0
0003F0
0000F0
0000F8
000078
000078
000078
0000F8
0000F8
0000F0
8001F0
F007E0
FFFFC0
FFFF80
3FFE00
ENDCHAR
STARTCHAR 0034
ENCODING 52
SWIDTH 562 0
DWIDTH 25 0
BBX 24 32 1 0
BITMAP
0001E0
0003E0
0007E0
000FE0
000FE0
001FE0
003DE0
0039E0
0079E0
00F1E0
00E1E0
01E1E0
03C1E0
0781E0
0781E0
0F01E0
1E01E0
1C01E0
3C01E0
7801E0
7001E0
FFFFFF
FFFFFF
FFFFFF
FFFFFF
0001E0
0001E0
0001E0
0001E0
0001E0
0001E0
0001E0
ENDCHAR
STARTCHAR 0035
ENCODING 53
SWIDTH 562 0
DWIDTH 25 0
BBX 20 32 3 0
BITMAP
3FFFC0
3FFFC0
3FFFC0
7FFFC0
780000
780000
780000
780000
780000
780000
780000
700000
700000
7FFE00
7FFF00
7FFFC0
000FC0
0003E0
0001E0
0001F0
0000F0
0000F0
0000F0
0000F0
0000F0
0001E0
0001E0
8003C0
E00FC0
FFFF80
FFFF00
7FFC00
ENDCHAR
STARTCHAR 0036
ENCODING 54
SWIDTH 562 0
DWIDTH 25 0
BBX 21 32 2 0
BITMAP
003FE0
00FFE0
03FFE0
07E000
0F8000
1F0000
1E0000
3C0000
3C0000
380000
780000
780000
787E00
79FF80
73FFE0
7787F0
FE01F0
FC00F8
F80078
F80078
F00078
700078
780078
780078
780078
380078
3C00F8
3E00F0
1F03E0
0FFFE0
07FFC0
01FF00
ENDCHAR
STARTCHAR 0037
ENCODING 55
SWIDTH 562 0
DWIDTH 25 0
BBX 21 32 2 0
BITMAP
FFFFF8
FFFFF8
FFFFF8
FFFFF8
000078
0000F0
0000F0
0001E0
0001E0
0003C0
0003C0
0003C0
000780
000780
000F00
000F00
001E00
001E00
003C00
003C00
007C00
007800
00F800
00F000
01F000
01E000
01E000
03C000
03C000
078000
078000
0F8000
ENDCHAR
STARTCHAR 0038
ENCODING 56
SWIDTH 562 0
DWIDTH 25 0
BBX 21 32 2 0
BITMAP
03FE00
0FFF80
1FFFC0
3F03E0
3C01F0
7800F0
7800F0
7800F0
7800F0
7800F0
3C01E0
3E01E0
1F07C0
0FDF80
07FE00
01FE00
07FF00
1F9FC0
3E07E0
7C01F0
7800F0
F80078
F00078
F00078
F00078
F00078
F80078
7800F0
7E01F0
3FFFE0
1FFFC0
07FF00
ENDCHAR
STARTCHAR 0039
ENCODING 57
SWIDTH 562 0
DWIDTH 25 0
BBX 21 32 2 0
BITMAP
03FC00
0FFF00
1FFF80
3F07C0
3C03E0
7801E0
7800F0
7000F0
F00078
F00078
F00078
F00078
F00078
780078
7800F8
7C01F8
3E07F8
1FFF78
0FFE78
03F878
000078
0000F0
0000F0
0000F0
0001E0
0001E0
0003C0
0007C0
001F80
1FFF00
1FFC00
1FF000
ENDCHAR
STARTCHAR 003A
ENCODING 58
SWIDTH 247 0
DWIDTH 11 0
BBX 6 25 3 -1
BITMAP
78
FC
FC
FC
78
30
00
00
00
00
00
00
00
00
00
00
00
00
00
78
FC
FC
FC
78
30
ENDCHAR
STARTCHAR 003B
ENCODING 59
SWIDTH 247 0
DWIDTH 11 0
BBX 8 30 1 -6
BITMAP
1E
3F
3F
3F
1E
08
00
00
00
00
00
00
00
00
00
00
00
00
00
1E
3E
3E
3C
3C
38
78
78
70
70
E0
ENDCHAR
STARTCHAR 003C
ENCODING 60
SWIDTH 562 0
DWIDTH 25 0
BBX 21 22 2 5
BITMAP
000008
000038
0000F8
0003F8
000FE0
003F80
00FE00
03F800
0FC000
3F0000
FC0000
F80000
FE0000
3FC000
0FF000
01FC00
007F80
001FE0
0007F8
0000F8
000038
000008
ENDCHAR
STARTCHAR 003D
ENCODING 61
SWIDTH 562 0
DWIDTH 25 0
BBX 21 12 2 10
BITMAP
FFFFF8
FFFFF8
FFFFF8
FFFFF8
000000
000000
000000
000000
000000
FFFFF8
FFFFF8
FFFFF8
ENDCHAR
STARTCHAR 003E
ENCODING 62
SWIDTH 562 0
DWIDTH 25 0
BBX 21 22 2 5
BITMAP
800000
E00000
F80000
FE0000
3F8000
0FE000
01F800
007E00
001F80
0007E0
0001F8
000078
0003F8
000FE0
003F80
01FE00
07F000
3FC000
FF0000
FC0000
E00000
800000
ENDCHAR
STARTCHAR 003F
ENCODING 63
SWIDTH 427 0
DWIDTH 19 0
BBX 17 33 1 -1
BITMAP
1FF000
7FFC00
FFFE00
FC3F00
400F80
000780
000780
000780
000780
000780
000780
000F00
001F00
003E00
007C00
00F800
01E000
03C000
038000
078000
078000
070000
070000
000000
000000
000000
000000
078000
0FC000
0FC000
0FC000
078000
030000
ENDCHAR
STARTCHAR 0040
ENCODING 64
SWIDTH 877 0
DWIDTH 39 0
BBX 34 36 3 -4
BITMAP
0000F80000
001FFF8000
007FFFE000
01FE07F800
03E0007C00
07C0003E00
0F00000F00
1E00000F00
3C00000780
3803FE0380
780FFF83C0
701FFF81C0
703E0781C0
F03C0781C0
E0780701C0
E0780701C0
E0700701C0
E0700701C0
E0F00701C0
E0F00701C0
E0700701C0
E0700F0380
E0780F0380
E0781F8780
E03FFBFF00
F01FF1FE00
700FE0FC00
7800000000
3800000000
3C00000000
1E00000000
0F80004000
07F007C000
03FFFFC000
00FFFF8000
001FF80000
ENDCHAR
STARTCHAR 0041
ENCODING 65
SWIDTH 630 0
DWIDTH 28 0
BBX 28 32 0 0
BITMAP
000F0000
000F8000
001F8000
001F8000
001FC000
003FC000
003DC000
0039E000
0079E000
0078F000
00F0F000
00F07000
00E07800
01E07800
01E03C00
03C03C00
03C03C00
03C01E00
07801E00
07FFFF00
0FFFFF00
0FFFFF00
0F000780
1E000780
1E000780
1E0003C0
3C0003C0
3C0003E0
780001E0
780001E0
780000F0
F00000F0
ENDCHAR
STARTCHAR 0042
ENCODING 66
SWIDTH 630 0
DWIDTH 28 0
BBX 22 32 4 0
BITMAP
FFF000
FFFF80
FFFFE0
FFFFF0
F001F8
F000F8
F00078
F00078
F00078
F00078
F00078
F00078
F000F0
F007E0
FFFFC0
FFFF00
FFFFE0
F003F0
F000F8
F0007C
F0003C
F0003C
F0003C
F0003C
F0003C
F0003C
F0007C
F000F8
F00FF8
FFFFF0
FFFFC0
FFFF00
ENDCHAR
STARTCHAR 0043
ENCODING 67
SWIDTH 630 0
DWIDTH 28 0
BBX 23 32 3 0
BITMAP
003FF8
01FFFE
03FFFE
0FF87E
1FC004
1F0000
3E0000
3C0000
7C0000
780000
F80000
F00000
F00000
F00000
F00000
F00000
F00000
F00000
F00000
F00000
F00000
F80000
780000
780000
7C0000
3E0000
3F0000
1F8000
0FE01C
07FFFC
03FFFC
00FFFC
ENDCHAR
STARTCHAR 0044
ENCODING 68
SWIDTH 720 0
DWIDTH 32 0
BBX 26 32 4 0
BITMAP
FFF00000
FFFF8000
FFFFE000
FFFFF800
F001FC00
F0007E00
F0003E00
F0001F00
F0000F00
F0000F80
F0000780
F0000780
F0000780
F00007C0
F00007C0
F00007C0
F00007C0
F00007C0
F00007C0
F0000780
F0000780
F0000780
F0000F80
F0000F00
F0001F00
F0003E00
F0007E00
F001FC00
F03FF800
FFFFE000
FFFF8000
FFFC0000
ENDCHAR
STARTCHAR 0045
ENCODING 69
SWIDTH 540 0
DWIDTH 24 0
BBX 18 32 4 0
BITMAP
FFFFC0
FFFFC0
FFFFC0
FFFFC0
F00000
F00000
F00000
F00000
F00000
F00000
F00000
F00000
F00000
F00000
FFFF80
FFFF80
FFFF80
F00000
F00000
F00000
F00000
F00000
F00000
F00000
F00000
F00000
F00000
F00000
FFFFC0
FFFFC0
FFFFC0
FFFFC0
ENDCHAR
STARTCHAR 0046
ENCODING 70
SWIDTH 517 0
DWIDTH 23 0
BBX 18 32 4 0
BITMAP
FFFFC0
FFFFC0
FFFFC0
FFFFC0
F00000
F00000
F00000
F00000
F00000
F00000
F00000
F00000
F00000
F00000
F00000
FFFF80
FFFF80
FFFF80
FFFF80
F00000
F00000
F00000
F00000
F00000
F00000
F00000
F00000
F00000
F00000
F00000
F00000
F00000
ENDCHAR
STARTCHAR 0047
ENCODING 71
SWIDTH 720 0
DWIDTH 32 0
BBX 26 32 3 0
BITMAP
001FFC00
00FFFF80
03FFFF80
07FC3F80
0FC00300
1F000000
3E000000
3C000000
7C000000
78000000
F8000000
F0000000
F0000000
F0000000
F0000000
F001FFC0
F001FFC0
F001FFC0
F001FFC0
F00003C0
F00003C0
F80003C0
780003C0
780003C0
7C0003C0
3E0003C0
3F0003C0
1F8003C0
0FF007C0
07FFFFC0
01FFFFC0
007FFF00
ENDCHAR
STARTCHAR 0048
ENCODING 72
SWIDTH 720 0
DWIDTH 32 0
BBX 25 32 4 0
BITMAP
F0000780
F0000780
F0000780
F0000780
F0000780
F0000780
F0000780
F0000780
F0000780
F0000780
F0000780
F0000780
F0000780
F0000780
FFFFFF80
FFFFFF80
FFFFFF80
F0000780
F0000780
F0000780
F0000780
F0000780
F0000780
F0000780
F0000780
F0000780
F0000780
F0000780
F0000780
F0000780
F0000780
F0000780
ENDCHAR
STARTCHAR 0049
ENCODING 73
SWIDTH 337 0
DWIDTH 15 0
BBX 11 32 2 0
BITMAP
FFE0
FFE0
FFE0
0F00
0F00
0F00
0F00
0F00
0F00
0F00
0F00
0F00
0F00
0F00
0F00
0F00
0F00
0F00
0F00
0F00
0F00
0F00
0F00
0F00
0F00
0F00
0F00
0F00
0F00
7FE0
FFE0
FFE0
ENDCHAR
STARTCHAR 004A
ENCODING 74
SWIDTH 270 0
DWIDTH 12 0
BBX 11 40 -3 -8
BITMAP
01E0
01E0
01E0
01E0
01E0
01E0
01E0
01E0
01E0
01E0
01E0
01E0
01E0
01E0
01E0
01E0
01E0
01E0
01E0
01E0
01E0
01E0
01E0
01E0
01E0
01E0
01E0
01E0
01E0
01E0
01E0
01E0
01E0
01E0
01E0
03E0
07C0
FF80
FF80
FE00
ENDCHAR
STARTCHAR 004B
ENCODING 75
SWIDTH 607 0
DWIDTH 27 0
BBX 23 32 4 0
BITMAP
F0003E
F0007C
F000F8
F001F0
F001E0
F003C0
F00780
F00F00
F01F00
F03E00
F07C00
F0F800
F1F000
F3E000
F3E000
F7E000
FFF000
FEF800
FC7C00
F83C00
F03E00
F01F00
F00F80
F00F80
F007C0
F003E0
F001F0
F001F0
F000F8
F0007C
F0003C
F0003E
ENDCHAR
STARTCHAR 004C
ENCODING 76
SWIDTH 517 0
DWIDTH 23 0
BBX 18 32 4 0
BITMAP
F00000
F00000
F00000
F00000
F00000
F00000
F00000
F00000
F00000
F00000
F00000
F00000
F00000
F00000
F00000
F00000
F00000
F00000
F00000
F00000
F00000
F00000
F00000
F00000
F00000
F00000
F00000
F00000
FFFFC0
FFFFC0
FFFFC0
FFFFC0
ENDCHAR
STARTCHAR 004D
ENCODING 77
SWIDTH 900 0
DWIDTH 40 0
BBX 32 32 4 0
BITMAP
FC00003F
FE00003F
FE00007F
FE00007F
FF0000FF
FF0000FF
F78000EF
F78001EF
F78001EF
F3C001CF
F3C003CF
F1C0038F
F1E0078F
F1E0078F
F0F0070F
F0F00F0F
F0F00F0F
F0780E0F
F0781E0F
F0381C0F
F03C3C0F
F03C3C0F
F01E380F
F01E780F
F01E700F
F00FF00F
F00FF00F
F007E00F
F007E00F
F007E00F
F003C00F
F003C00F
ENDCHAR
STARTCHAR 004E
ENCODING 78
SWIDTH 742 0
DWIDTH 33 0
BBX 25 32 4 0
BITMAP
F8000380
FC000380
FC000380
FE000380
FF000380
FF000380
FF800380
F7C00380
F3C00380
F3E00380
F1F00380
F0F00380
F0F80380
F0780380
F03C0380
F03E0380
F01E0380
F01F0380
F00F8380
F0078380
F007C380
F003E380
F001E380
F001F380
F000FB80
F0007B80
F0007F80
F0003F80
F0001F80
F0001F80
F0000F80
F0000F80
ENDCHAR
STARTCHAR 004F
ENCODING 79
SWIDTH 765 0
DWIDTH 34 0
BBX 29 32 3 0
BITMAP
007FF000
01FFFC00
07FFFE00
0FF07F80
1F800F80
3F0007C0
3E0003E0
7C0001E0
780001F0
780000F0
F80000F0
F00000F8
F00000F8
F0000078
F0000078
F0000078
F0000078
F0000078
F0000078
F0000078
F00000F8
F80000F0
780000F0
780001F0
7C0001E0
3C0003E0
3E0007C0
1F800FC0
0FE03F80
07FFFF00
03FFFC00
00FFF000
ENDCHAR
STARTCHAR 0050
ENCODING 80
SWIDTH 585 0
DWIDTH 26 0
BBX 21 32 4 0
BITMAP
FFF000
FFFF00
FFFFC0
FFFFE0
F007E0
F001F0
F000F0
F000F0
F000F8
F000F8
F000F8
F000F0
F000F0
F000F0
F001E0
F007E0
FFFFC0
FFFF80
FFFE00
FFC000
F00000
F00000
F00000
F00000
F00000
F00000
F00000
F00000
F00000
F00000
F00000
F00000
ENDCHAR
STARTCHAR 0051
ENCODING 81
SWIDTH 765 0
DWIDTH 34 0
BBX 29 40 3 -8
BITMAP
007FF000
01FFFC00
07FFFE00
0FF07F80
1F800F80
3F0007C0
3E0003E0
7C0001E0
780001F0
780000F0
F80000F0
F00000F8
F00000F8
F0000078
F0000078
F0000078
F0000078
F0000078
F0000078
F0000078
F00000F8
F80000F0
780000F0
780001F0
7C0001E0
3C0003E0
3E0007C0
1F800FC0
0FE03F80
07FFFF00
03FFFC00
00FFF000
0000F800
0000FC00
00007E00
00003E00
00001F00
00000F80
000007C0
000003E0
ENDCHAR
STARTCHAR 0052
ENCODING 82
SWIDTH 607 0
DWIDTH 27 0
BBX 23 32 4 0
BITMAP
FFF800
FFFF00
FFFFC0
FFFFE0
F003E0
F001F0
F000F0
F000F0
F000F8
F000F8
F000F8
F000F0
F000F0
F001F0
F003E0
F07FC0
FFFF80
FFFE00
FFFE00
F01E00
F00F00
F00F80
F00780
F007C0
F003C0
F003E0
F001F0
F000F0
F000F8
F00078
F0007C
F0003E
ENDCHAR
STARTCHAR 0053
ENCODING 83
SWIDTH 540 0
DWIDTH 24 0
BBX 20 32 2 0
BITMAP
03FF00
0FFFE0
1FFFE0
3F8FE0
7C0060
780000
780000
780000
780000
780000
780000
7C0000
3F0000
3FC000
0FF000
07FC00
01FF00
007FC0
000FE0
0003E0
0001F0
0000F0
0000F0
0000F0
0000F0
0000F0
0000F0
8001E0
F807E0
FFFFC0
FFFF80
3FFE00
ENDCHAR
STARTCHAR 0054
ENCODING 84
SWIDTH 540 0
DWIDTH 24 0
BBX 24 32 0 0
BITMAP
FFFFFF
FFFFFF
FFFFFF
FFFFFF
003C00
003C00
003C00
003C00
003C00
003C00
003C00
003C00
003C00
003C00
003C00
003C00
003C00
003C00
003C00
003C00
003C00
003C00
003C00
003C00
003C00
003C00
003C00
003C00
003C00
003C00
003C00
003C00
ENDCHAR
STARTCHAR 0055
ENCODING 85
SWIDTH 720 0
DWIDTH 32 0
BBX 24 32 4 0
BITMAP
F0000F
F0000F
F0000F
F0000F
F0000F
F0000F
F0000F
F0000F
F0000F
F0000F
F0000F
F0000F
F0000F
F0000F
F0000F
F0000F
F0000F
F0000F
F0000F
F0000F
F0000F
F0000F
F0000F
F0000F
F8000F
78001F
7C001E
3E003E
3F80FC
1FFFF8
07FFF0
03FFC0
ENDCHAR
STARTCHAR 0056
ENCODING 86
SWIDTH 585 0
DWIDTH 26 0
BBX 27 32 0 0
BITMAP
F00003E0
F80003C0
780003C0
780007C0
3C000780
3C000780
3C000F00
1E000F00
1E000F00
1E001E00
0F001E00
0F003E00
0F003C00
07803C00
07807C00
07C07800
03C07800
03C0F800
01E0F000
01E0F000
01E1E000
00F1E000
00F1E000
00F3C000
007BC000
007BC000
007B8000
003F8000
003F8000
003F0000
001F0000
001F0000
ENDCHAR
STARTCHAR 0057
ENCODING 87
SWIDTH 922 0
DWIDTH 41 0
BBX 40 32 1 0
BITMAP
F0007C000F
F0007C001E
F0007C001E
F800FE001E
7800FE003E
7800EE003C
7800EE003C
7C01EF003C
3C01EF007C
3C01C70078
3C03C78078
1E03C78078
1E03C780F8
1E0383C0F0
1E0783C0F0
0F0783C0F0
0F0701C1E0
0F0F01E1E0
0F0F01E1E0
078F00E1E0
078E00F3C0
079E00F3C0
079E00F3C0
03DC0073C0
03DC007B80
03FC007F80
03FC003F80
01F8003F80
01F8003F00
01F8001F00
00F0001F00
00F0001E00
ENDCHAR
STARTCHAR 0058
ENCODING 88
SWIDTH 585 0
DWIDTH 26 0
BBX 26 32 0 0
BITMAP
78000780
3C000F00
3E001F00
1E001E00
0F003C00
0F803C00
07807800
03C0F000
03C0F000
01E1E000
01F3C000
00F3C000
007F8000
007F8000
003F0000
001E0000
003F0000
007F8000
007F8000
00F3C000
01F3E000
01E1E000
03C0F000
03C0F000
07807800
0F007C00
0F003C00
1E001E00
3E001F00
3C000F00
78000F80
F80007C0
ENDCHAR
STARTCHAR 0059
ENCODING 89
SWIDTH 562 0
DWIDTH 25 0
BBX 25 32 0 0
BITMAP
F0000780
78000F80
7C000F00
3C001E00
3E001E00
1E003C00
1F003C00
0F007800
0F80F800
0780F000
03C1F000
03C1E000
01E3E000
01E3C000
00F78000
00F78000
007F0000
007F0000
003E0000
003E0000
001E0000
001E0000
001E0000
001E0000
001E0000
001E0000
001E0000
001E0000
001E0000
001E0000
001E0000
001E0000
ENDCHAR
STARTCHAR 005A
ENCODING 90
SWIDTH 562 0
DWIDTH 25 0
BBX 22 32 2 0
BITMAP
FFFFF8
FFFFF8
FFFFF8
FFFFF8
0000F0
0001F0
0001E0
0003C0
0007C0
000780
000F00
001F00
001E00
003C00
007C00
007800
00F000
01F000
01E000
03C000
07C000
078000
0F0000
1F0000
1E0000
3C0000
7C0000
780000
FFFFFC
FFFFFC
FFFFFC
FFFFFC
ENDCHAR
STARTCHAR 005B
ENCODING 91
SWIDTH 315 0
DWIDTH 14 0
BBX 10 39 4 -7
BITMAP
FFC0
FFC0
FFC0
E000
E000
E000
E000
E000
E000
E000
E000
E000
E000
E000
E000
E000
E000
E000
E000
E000
E000
E000
E000
E000
E000
E000
E000
E000
E000
E000
E000
E000
E000
E000
E000
E000
FFC0
FFC0
FFC0
ENDCHAR
STARTCHAR 005C
ENCODING 92
SWIDTH 360 0
DWIDTH 16 0
BBX 15 32 1 0
BITMAP
E000
F000
F000
7000
7800
7800
3C00
3C00
3C00
1E00
1E00
0E00
0F00
0F00
0780
0780
0780
03C0
03C0
01C0
01E0
01E0
00F0
00F0
00F0
0078
0078
0038
003C
003C
001E
001E
ENDCHAR
STARTCHAR 005D
ENCODING 93
SWIDTH 315 0
DWIDTH 14 0
BBX 10 39 1 -7
BITMAP
FFC0
FFC0
FFC0
03C0
03C0
03C0
03C0
03C0
03C0
03C0
03C0
03C0
03C0
03C0
03C0
03C0
03C0
03C0
03C0
03C0
03C0
03C0
03C0
03C0
03C0
03C0
03C0
03C0
03C0
03C0
03C0
03C0
03C0
03C0
03C0
03C0
FFC0
FFC0
FFC0
ENDCHAR
STARTCHAR 005E
ENCODING 94
SWIDTH 562 0
DWIDTH 25 0
BBX 21 20 2 12
BITMAP
007000
00F000
00F800
01F800
01FC00
01DC00
039E00
038E00
070F00
070700
0E0780
0E0380
1E03C0
1C01C0
3C01E0
3800E0
7800F0
700070
F00078
E00038
ENDCHAR
STARTCHAR 005F
ENCODING 95
SWIDTH 427 0
DWIDTH 19 0
BBX 20 3 0 -7
BITMAP
FFFFF0
FFFFF0
FFFFF0
ENDCHAR
STARTCHAR 0060
ENCODING 96
SWIDTH 270 0
DWIDTH 12 0
BBX 9 7 2 27
BITMAP
F800
7800
7C00
3E00
1E00
0F00
0780
ENDCHAR
STARTCHAR 0061
ENCODING 97
SWIDTH 540 0
DWIDTH 24 0
BBX 19 24 2 0
BITMAP
03FE00
1FFF80
1FFFC0
1E07E0
0001E0
0001E0
0001E0
0001E0
0000E0
0000E0
03FFE0
1FFFE0
3FF1E0
7E01E0
7801E0
F001E0
F001E0
F001E0
F003E0
F803E0
7C0FE0
7FFEE0
3FFCE0
1FF0E0
ENDCHAR
STARTCHAR 0062
ENCODING 98
SWIDTH 607 0
DWIDTH 27 0
BBX 21 34 4 0
BITMAP
F00000
F00000
F00000
F00000
F00000
F00000
F00000
F00000
F00000
F00000
F1FE00
F7FF80
FFFFC0
FE07E0
FC03E0
F801F0
F800F0
F000F0
F00078
F00078
F00078
F00078
F00078
F00078
F00078
F00078
F000F0
F000F0
F801F0
FC01E0
FE07E0
EFFFC0
E7FF80
E1FE00
ENDCHAR
STARTCHAR 0063
ENCODING 99
SWIDTH 472 0
DWIDTH 21 0
BBX 18 24 2 0
BITMAP
01FF80
07FFC0
0FFF80
1F8380
3E0000
3C0000
7C0000
780000
780000
780000
F80000
F00000
F00000
F80000
780000
780000
780000
780000
3C0000
3E0000
1F0180
1FFF80
07FF80
03FF80
ENDCHAR
STARTCHAR 0064
ENCODING 100
SWIDTH 607 0
DWIDTH 27 0
BBX 22 34 2 0
BITMAP
00003C
00003C
00003C
00003C
00003C
00003C
00003C
00003C
00003C
00003C
03FC3C
07FF3C
1FFFBC
1F03FC
3E01FC
3C00FC
7C007C
78007C
78007C
78003C
F8003C
F0003C
F0003C
F8003C
78003C
78007C
78007C
78007C
7C007C
3E00FC
3F03FC
1FFFBC
0FFF3C
03FE3C
ENDCHAR
STARTCHAR 0065
ENCODING 101
SWIDTH 562 0
DWIDTH 25 0
BBX 21 24 2 0
BITMAP
01FE00
07FF80
0FFFC0
1F03E0
3E01E0
3C00F0
7800F0
7800F8
780078
780078
FFFFF8
FFFFF8
FFFFF8
F80000
780000
780000
780000
7C0000
3C0000
3E0000
1F8070
0FFFF0
07FFF0
01FFC0
ENDCHAR
STARTCHAR 0066
ENCODING 102
SWIDTH 337 0
DWIDTH 15 0
BBX 16 34 1 0
BITMAP
00FE
03FF
07FF
07C2
0F80
0F00
0F00
0F00
0F00
0F00
3FFC
FFFC
FFFC
0F00
0F00
0F00
0F00
0F00
0F00
0F00
0F00
0F00
0F00
0F00
0F00
0F00
0F00
0F00
0F00
0F00
0F00
0F00
0F00
0F00
ENDCHAR
STARTCHAR 0067
ENCODING 103
SWIDTH 607 0
DWIDTH 27 0
BBX 22 35 2 -11
BITMAP
03FC3C
07FF3C
0FFFBC
1F03FC
3E01FC
3C00FC
7C007C
78007C
78007C
78003C
F8003C
F0003C
F0003C
F8003C
78003C
78003C
78007C
78007C
7C007C
3E00FC
1F01FC
1FFFBC
0FFF3C
03FE3C
00003C
00003C
000078
000078
000078
0000F8
3801F0
3FFFE0
3FFFC0
1FFF80
017C00
ENDCHAR
STARTCHAR 0068
ENCODING 104
SWIDTH 607 0
DWIDTH 27 0
BBX 20 34 4 0
BITMAP
F00000
F00000
F00000
F00000
F00000
F00000
F00000
F00000
F00000
F00000
F1FF00
F3FF80
FFFFC0
FF07E0
FC01E0
F801F0
F800F0
F000F0
F000F0
F000F0
F000F0
F000F0
F000F0
F000F0
F000F0
F000F0
F000F0
F000F0
F000F0
F000F0
F000F0
F000F0
F000F0
F000F0
ENDCHAR
STARTCHAR 0069
ENCODING 105
SWIDTH 247 0
DWIDTH 11 0
BBX 5 33 3 0
BITMAP
30
78
F8
78
70
00
00
00
00
78
78
78
78
78
78
78
78
78
78
78
78
78
78
78
78
78
78
78
78
78
78
78
78
ENDCHAR
STARTCHAR 006A
ENCODING 106
SWIDTH 247 0
DWIDTH 11 0
BBX 10 44 -2 -11
BITMAP
0180
03C0
07C0
03C0
0380
0000
0000
0000
0000
03C0
03C0
03C0
03C0
03C0
03C0
03C0
03C0
03C0
03C0
03C0
03C0
03C0
03C0
03C0
03C0
03C0
03C0
03C0
03C0
03C0
03C0
03C0
03C0
03C0
03C0
03C0
03C0
03C0
03C0
0780
FF80
FF00
FE00
7000
ENDCHAR
STARTCHAR 006B
ENCODING 107
SWIDTH 517 0
DWIDTH 23 0
BBX 19 34 4 0
BITMAP
F00000
F00000
F00000
F00000
F00000
F00000
F00000
F00000
F00000
F00000
F003C0
F00780
F00F00
F01F00
F03E00
F07C00
F0F800
F1F000
F3E000
F7C000
F78000
EFC000
FFE000
FDE000
F8F000
F0F800
F07C00
F03C00
F01E00
F01F00
F00F80
F00780
F003C0
F003E0
ENDCHAR
STARTCHAR 006C
ENCODING 108
SWIDTH 247 0
DWIDTH 11 0
BBX 4 34 4 0
BITMAP
F0
F0
F0
F0
F0
F0
F0
F0
F0
F0
F0
F0
F0
F0
F0
F0
F0
F0
F0
F0
F0
F0
F0
F0
F0
F0
F0
F0
F0
F0
F0
F0
F0
F0
ENDCHAR
STARTCHAR 006D
ENCODING 109
SWIDTH 922 0
DWIDTH 41 0
BBX 34 24 4 0
BITMAP
E1FE03FC00
E7FF0FFF00
EFFF9FFF80
FE0FFC0F80
FC03F80780
F803F007C0
F001E003C0
F001E003C0
F001E003C0
F001E003C0
F001E003C0
F001E003C0
F001E003C0
F001E003C0
F001E003C0
F001E003C0
F001E003C0
F001E003C0
F001E003C0
F001E003C0
F001E003C0
F001E003C0
F001E003C0
F001E003C0
ENDCHAR
STARTCHAR 006E
ENCODING 110
SWIDTH 607 0
DWIDTH 27 0
BBX 20 24 4 0
BITMAP
E1FF00
E7FF80
EFFFC0
FF07E0
FC01E0
F801F0
F800F0
F000F0
F000F0
F000F0
F000F0
F000F0
F000F0
F000F0
F000F0
F000F0
F000F0
F000F0
F000F0
F000F0
F000F0
F000F0
F000F0
F000F0
ENDCHAR
STARTCHAR 006F
ENCODING 111
SWIDTH 585 0
DWIDTH 26 0
BBX 22 24 2 0
BITMAP
01FF00
07FFC0
0FFFE0
1F83F0
3E00F8
3C0078
7C007C
78003C
78003C
78003C
F8003C
F0003C
F0003C
F8003C
78003C
78003C
78003C
78007C
3C0078
3E00F8
1F01F0
0FFFE0
07FFC0
01FF00
ENDCHAR
STARTCHAR 0070
ENCODING 112
SWIDTH 607 0
DWIDTH 27 0
BBX 21 35 4 -11
BITMAP
E1FE00
E7FF80
EFFFC0
FE07E0
FC03E0
F801F0
F000F0
F000F0
F000F8
F00078
F00078
F00078
F00078
F00078
F00078
F000F8
F000F0
F000F0
F801F0
FC01E0
FE07E0
EFFFC0
F7FF80
F1FE00
F00000
F00000
F00000
F00000
F00000
F00000
F00000
F00000
F00000
F00000
F00000
ENDCHAR
STARTCHAR 0071
ENCODING 113
SWIDTH 607 0
DWIDTH 27 0
BBX 22 35 2 -11
BITMAP
03FC3C
07FF3C
1FFFBC
1F03FC
3E01FC
3C00FC
78007C
78007C
78007C
78003C
F8003C
F0003C
F0003C
F8003C
78003C
78007C
78007C
78007C
7C007C
3E00FC
3F03FC
1FFFBC
0FFF3C
03FE3C
00003C
00003C
00003C
00003C
00003C
00003C
00003C
00003C
00003C
00003C
00003C
ENDCHAR
STARTCHAR 0072
ENCODING 114
SWIDTH 405 0
DWIDTH 18 0
BBX 14 24 4 0
BITMAP
E0FC
E3FC
E7F8
EF80
EE00
FC00
F800
F000
F000
F000
F000
F000
F000
F000
F000
F000
F000
F000
F000
F000
F000
F000
F000
F000
ENDCHAR
STARTCHAR 0073
ENCODING 115
SWIDTH 472 0
DWIDTH 21 0
BBX 17 24 2 0
BITMAP
0FFE00
1FFF80
7FFF00
7C0700
F00000
F00000
F00000
F80000
7C0000
7F0000
3FE000
0FF800
03FE00
00FF00
001F80
000F80
000780
000780
000780
800780
E00F80
FFFF00
FFFE00
3FF800
ENDCHAR
STARTCHAR 0074
ENCODING 116
SWIDTH 360 0
DWIDTH 16 0
BBX 14 29 1 0
BITMAP
0E00
0E00
0E00
0E00
1E00
3FFC
FFFC
FFFC
1E00
1E00
1E00
1E00
1E00
1E00
1E00
1E00
1E00
1E00
1E00
1E00
1E00
1E00
1E00
1E00
1F00
0F00
0FFC
07FC
03FC
ENDCHAR
STARTCHAR 0075
ENCODING 117
SWIDTH 607 0
DWIDTH 27 0
BBX 20 24 4 0
BITMAP
E000F0
E000F0
E000F0
E000F0
E000F0
E000F0
E000F0
E000F0
E000F0
E000F0
E000F0
E000F0
E000F0
E000F0
E000F0
E000F0
E001F0
F001F0
F001F0
F803F0
FC0FF0
7FFEF0
3FFCF0
1FF8F0
ENDCHAR
STARTCHAR 0076
ENCODING 118
SWIDTH 495 0
DWIDTH 22 0
BBX 22 24 0 0
BITMAP
F0003C
F8003C
78003C
780078
3C0078
3C00F8
3C00F0
1E00F0
1E01E0
0F01E0
0F01E0
0F03C0
0783C0
0783C0
078780
03C780
03C700
01CF00
01EF00
01EE00
00FE00
00FC00
00FC00
007C00
ENDCHAR
STARTCHAR 0077
ENCODING 119
SWIDTH 765 0
DWIDTH 34 0
BBX 33 24 1 0
BITMAP
F003E00780
F003E00780
F003E00780
F007F00780
7807700F00
7807700F00
780F780F00
780F781E00
3C0E381E00
3C1E3C1E00
3C1E3C1E00
1C1C3C3C00
1E3C1C3C00
1E3C1E3C00
1E381E3800
0E380E7800
0F780F7800
0F780F7800
0770077000
0770077000
07F007F000
07E007F000
03E003E000
03E003E000
ENDCHAR
STARTCHAR 0078
ENCODING 120
SWIDTH 517 0
DWIDTH 23 0
BBX 21 24 1 0
BITMAP
F80078
7C00F0
3C01F0
1E01E0
1F03C0
0F07C0
078780
07CF00
03DE00
01FE00
01FC00
00F800
00FC00
01FC00
01FE00
03DF00
078F00
0F8780
0F03C0
1E03E0
3E01E0
3C00F0
7800F8
F80078
ENDCHAR
STARTCHAR 0079
ENCODING 121
SWIDTH 495 0
DWIDTH 22 0
BBX 23 35 0 -11
BITMAP
F0003E
78003C
78003C
780078
3C0078
3C0078
1E00F0
1E00F0
1E01F0
0F01E0
0F01E0
0783C0
0783C0
0783C0
03C780
03C780
01C700
01EF00
01EF00
00EE00
00FE00
007E00
007C00
007C00
007800
007800
007800
00F000
00F000
01E000
03E000
FFC000
FF8000
FF0000
3C0000
ENDCHAR
STARTCHAR 007A
ENCODING 122
SWIDTH 450 0
DWIDTH 20 0
BBX 17 24 2 0
BITMAP
FFFF80
FFFF80
FFFF80
000F80
000F00
001E00
003C00
007C00
007800
00F000
01F000
01E000
03C000
07C000
078000
0F0000
1E0000
3E0000
3C0000
780000
F80000
FFFF80
FFFF80
FFFF80
ENDCHAR
STARTCHAR 007B
ENCODING 123
SWIDTH 360 0
DWIDTH 16 0
BBX 14 39 1 -7
BITMAP
0004
007C
01FC
01FC
03E0
03C0
03C0
03C0
03C0
03C0
03C0
03C0
03C0
03C0
03C0
0780
0780
1F80
FE00
F800
FE00
3F00
0780
0780
0380
03C0
03C0
03C0
03C0
03C0
03C0
03C0
03C0
03C0
03C0
03F0
01FC
00FC
001C
ENDCHAR
STARTCHAR 007C
ENCODING 124
SWIDTH 540 0
DWIDTH 24 0
BBX 3 45 11 -11
BITMAP
E0
E0
E0
E0
E0
E0
E0
E0
E0
E0
E0
E0
E0
E0
E0
E0
E0
E0
E0
E0
E0
E0
E0
E0
E0
E0
E0
E0
E0
E0
E0
E0
E0
E0
E0
E0
E0
E0
E0
E0
E0
E0
E0
E0
E0
ENDCHAR
STARTCHAR 007D
ENCODING 125
SWIDTH 360 0
DWIDTH 16 0
BBX 15 39 1 -7
BITMAP
C000
FC00
FE00
7F00
0F80
0780
0780
0780
0780
0780
0780
0780
0780
0780
0780
0780
03C0
03F0
01FE
003E
00FE
01F8
03C0
03C0
0780
0780
0780
0780
0780
0780
0780
0780
0780
0780
0F80
1F00
FF00
FC00
F000
ENDCHAR
STARTCHAR 007E
ENCODING 126
SWIDTH 562 0
DWIDTH 25 0
BBX 21 6 2 13
BITMAP
040000
3FE008
FFF838
FFFFF8
C07FF0
800FE0
ENDCHAR
STARTCHAR 00A0
ENCODING 160
SWIDTH 247 0
DWIDTH 11 0
BBX 0 0 0 0
BITMAP
ENDCHAR
STARTCHAR 00A1
ENCODING 161
SWIDTH 247 0
DWIDTH 11 0
BBX 6 32 3 -8
BITMAP
78
FC
FC
FC
78
30
00
00
00
30
30
30
70
70
70
78
78
78
78
78
78
78
78
78
78
78
78
78
78
78
78
78
ENDCHAR
STARTCHAR 00A2
ENCODING 162
SWIDTH 562 0
DWIDTH 25 0
BBX 17 32 4 0
BITMAP
007000
007000
007000
007800
03FF80
0FFF80
1FFF80
3F0180
7C0000
780000
780000
F80000
F00000
F00000
F00000
F00000
F00000
F00000
F00000
F00000
F80000
780000
7C0000
3E0000
3F8780
1FFF80
0FFF80
01FE00
007000
007000
007000
007000
ENDCHAR
STARTCHAR 00A3
ENCODING 163
SWIDTH 562 0
DWIDTH 25 0
BBX 23 32 1 0
BITMAP
003FE0
00FFF8
01FFF8
03F078
03C000
078000
078000
078000
078000
078000
078000
078000
078000
078000
078000
7FFFC0
7FFFC0
7FFFC0
078000
078000
078000
078000
078000
078000
078000
0F0000
0F0000
1E0000
7FFFFE
FFFFFE
FFFFFE
FFFFFE
ENDCHAR
STARTCHAR 00A4
ENCODING 164
SWIDTH 562 0
DWIDTH 25 0
BBX 20 20 3 6
BITMAP
000040
6000E0
F3FDF0
7FFFE0
3FFFC0
3C0780
380380
7801C0
7001C0
7001C0
7001C0
7001C0
7001C0
3803C0
3C0380
3E0F80
7FFFC0
FFFFE0
F1F8E0
600040
ENDCHAR
STARTCHAR 00A5
ENCODING 165
SWIDTH 562 0
DWIDTH 25 0
BBX 24 32 1 0
BITMAP
F0001F
F0001E
78003E
78003C
3C0078
3C0078
1E00F0
1E00F0
0F01E0
0701E0
0783C0
0383C0
03C780
01E780
01EF00
00FF00
00FE00
1FFFF0
1FFFF0
1FFFF0
003C00
003C00
003C00
1FFFF0
1FFFF0
1FFFF0
003C00
003C00
003C00
003C00
003C00
003C00
ENDCHAR
STARTCHAR 00A6
ENCODING 166
SWIDTH 540 0
DWIDTH 24 0
BBX 3 45 11 -11
BITMAP
E0
E0
E0
E0
E0
E0
E0
E0
E0
E0
E0
E0
E0
E0
E0
E0
E0
00
00
00
00
00
00
00
00
00
00
00
E0
E0
E0
E0
E0
E0
E0
E0
E0
E0
E0
E0
E0
E0
E0
E0
E0
ENDCHAR
STARTCHAR 00A7
ENCODING 167
SWIDTH 495 0
DWIDTH 22 0
BBX 17 34 3 0
BITMAP
07F800
3FFF00
7FFF00
780F00
F00000
F00000
F00000
F80000
7C0000
3F8000
1FE000
3FF800
7DFE00
703F00
F00F00
E00780
E00780
F00780
F00780
7C0700
7F0F00
1FDE00
0FFC00
01FC00
007F00
001F00
000780
000780
000780
000780
E01F00
FFFE00
FFFC00
3FF000
ENDCHAR
STARTCHAR 00A8
ENCODING 168
SWIDTH 562 0
DWIDTH 25 0
BBX 12 4 7 28
BITMAP
F0F0
F0F0
F0F0
E060
ENDCHAR
STARTCHAR 00A9
ENCODING 169
SWIDTH 810 0
DWIDTH 36 0
BBX 33 32 2 0
BITMAP
000FF80000
007FFF0000
01FC1FC000
03C003E000
070000F000
0E00003800
1C01F01C00
380FFE1C00
381FFC0E00
703E0C0600
703C000700
6078000300
E070000300
E070000380
E0F0000380
E0F0000380
E0F0000380
E0F0000380
E070000380
E070000380
6078000300
7078000700
703C040700
381FFC0E00
380FFC0E00
1C07F81C00
0E00003800
0F00007800
07C001E000
01F007C000
00FFFF8000
001FFC0000
ENDCHAR
STARTCHAR 00AA
ENCODING 170
SWIDTH 337 0
DWIDTH 15 0
BBX 13 15 1 17
BITMAP
1FC0
7FF0
38F0
0038
0038
0038
0FF8
3FF8
7838
6038
E038
E078
79F8
7FB8
1F18
ENDCHAR
STARTCHAR 00AB
ENCODING 171
SWIDTH 495 0
DWIDTH 22 0
BBX 19 18 2 2
BITMAP
010080
03C1E0
0783C0
0F8780
0F0F80
1E0F00
3C1E00
783C00
F07800
F07800
787C00
7C3E00
3C1E00
1E0F00
0F0780
0783C0
03C3E0
0381C0
ENDCHAR
STARTCHAR 00AC
ENCODING 172
SWIDTH 562 0
DWIDTH 25 0
BBX 21 11 2 6
BITMAP
FFFFF8
FFFFF8
FFFFF8
000038
000038
000038
000038
000038
000038
000038
000038
ENDCHAR
STARTCHAR 00AD
ENCODING 173
SWIDTH 315 0
DWIDTH 14 0
BBX 11 4 2 10
BITMAP
FFE0
FFE0
FFE0
FFE0
ENDCHAR
STARTCHAR 00AE
ENCODING 174
SWIDTH 810 0
DWIDTH 36 0
BBX 33 32 2 0
BITMAP
000FF80000
007FFF0000
01FC1FC000
03C003E000
070000F000
0E00003800
1C3F801C00
383FF81C00
383FFC0E00
703C3E0600
703C1E0700
603C0E0300
E03C0E0300
E03C1E0380
E03C1E0380
E03FFC0380
E03FF80380
E03FF00380
E03C700380
E03C780380
603C3C0300
703C3C0700
703C1E0700
383C0E0E00
383C0F0E00
1C3C079C00
0E00003800
0F00007800
07C001E000
01F007C000
00FFFF8000
001FFC0000
ENDCHAR
STARTCHAR 00AF
ENCODING 175
SWIDTH 495 0
DWIDTH 22 0
BBX 22 3 0 34
BITMAP
FFFFFC
FFFFFC
FFFFFC
ENDCHAR
STARTCHAR 00B0
ENCODING 176
SWIDTH 427 0
DWIDTH 19 0
BBX 15 13 2 19
BITMAP
0FE0
1FF0
3EF8
701C
701C
E00C
E00E
E00E
701C
701C
7C3C
3FF8
0FE0
ENDCHAR
STARTCHAR 00B1
ENCODING 177
SWIDTH 562 0
DWIDTH 25 0
BBX 21 27 2 0
BITMAP
007000
007000
007000
007000
007000
007000
007000
007000
007000
007000
FFFFF8
FFFFF8
FFFFF8
007000
007000
007000
007000
007000
007000
007000
007000
007000
000000
000000
FFFFF8
FFFFF8
FFFFF8
ENDCHAR
STARTCHAR 00B2
ENCODING 178
SWIDTH 337 0
DWIDTH 15 0
BBX 13 20 1 18
BITMAP
0F80
3FE0
FFF0
6070
0078
0078
0078
0070
0070
00E0
01C0
0380
0700
0E00
1C00
3800
7000
FFF8
FFF8
FFF8
ENDCHAR
STARTCHAR 00B3
ENCODING 179
SWIDTH 337 0
DWIDTH 15 0
BBX 13 20 1 18
BITMAP
1F80
7FE0
FFF0
6070
0078
0078
0070
0070
1FE0
1F80
1FF0
00F8
0038
0038
0038
0038
8078
FFF0
FFE0
3F80
ENDCHAR
STARTCHAR 00B4
ENCODING 180
SWIDTH 270 0
DWIDTH 12 0
BBX 9 7 2 27
BITMAP
0F80
1F00
1E00
3C00
7800
7000
E000
ENDCHAR
STARTCHAR 00B5
ENCODING 181
SWIDTH 607 0
DWIDTH 27 0
BBX 20 35 4 -11
BITMAP
F000F0
F000F0
F000F0
F000F0
F000F0
F000F0
F000F0
F000F0
F000F0
F000F0
F000F0
F000F0
F000F0
F000F0
F000F0
F000F0
F000F0
F001F0
F001F0
F803F0
FC07F0
FFFEF0
EFFEF0
F7F870
F00000
F00000
F00000
F00000
F00000
F00000
F00000
F00000
F00000
F00000
F00000
ENDCHAR
STARTCHAR 00B6
ENCODING 182
SWIDTH 652 0
DWIDTH 29 0
BBX 22 40 2 -6
BITMAP
01FFFC
07FFFC
1FFFFC
3FFE0C
3FFE0C
7FFE0C
7FFE0C
7FFE0C
7FFE0C
FFFE0C
FFFE0C
FFFE0C
FFFE0C
7FFE0C
7FFE0C
7FFE0C
7FFE0C
7FFE0C
3FFE0C
1FFE0C
0FFE0C
07FE0C
00060C
00060C
00060C
00060C
00060C
00060C
00060C
00060C
00060C
00060C
00060C
00060C
00060C
00060C
00060C
00060C
00060C
00060C
ENDCHAR
STARTCHAR 00B7
ENCODING 183
SWIDTH 247 0
DWIDTH 11 0
BBX 6 6 3 13
BITMAP
30
78
FC
FC
FC
78
ENDCHAR
STARTCHAR 00B8
ENCODING 184
SWIDTH 225 0
DWIDTH 10 0
BBX 8 11 1 -11
BITMAP
18
38
38
7E
0F
07
07
07
FF
FE
F0
ENDCHAR
STARTCHAR 00B9
ENCODING 185
SWIDTH 337 0
DWIDTH 15 0
BBX 9 20 2 18
BITMAP
0780
0F80
1F80
7B80
F380
E380
4380
0380
0380
0380
0380
0380
0380
0380
0380
0380
0380
0380
0380
0380
ENDCHAR
STARTCHAR 00BA
ENCODING 186
SWIDTH 360 0
DWIDTH 16 0
BBX 14 15 1 17
BITMAP
0FC0
1FF0
3C78
703C
701C
601C
E01C
E01C
E01C
601C
701C
7038
3EF8
1FF0
07C0
ENDCHAR
STARTCHAR 00BB
ENCODING 187
SWIDTH 495 0
DWIDTH 22 0
BBX 19 19 2 2
BITMAP
201000
F07800
F87800
783C00
3C1E00
1E0F00
0F0F80
0F87C0
07C3C0
03C1E0
0783C0
0F0780
1F0F00
3E1F00
3C3E00
783C00
F07800
603000
200000
ENDCHAR
STARTCHAR 00BC
ENCODING 188
SWIDTH 742 0
DWIDTH 33 0
BBX 31 32 2 0
BITMAP
078001C0
0F8003C0
3F800380
7B800700
F7800F00
E7800E00
07801E00
07801C00
07803800
07807800
07807000
0780E000
0781E000
0781C0F0
0783C0F0
078381F0
078703F0
078F0770
078E0770
001E0E70
001C1C70
00381C70
00783870
00707070
00F07070
00E0FFFE
01C0FFFE
03C0FFFE
03800070
07000070
07000070
0E000070
ENDCHAR
STARTCHAR 00BD
ENCODING 189
SWIDTH 765 0
DWIDTH 34 0
BBX 31 32 1 0
BITMAP
078003C0
0F800380
1F800780
7F800700
F3800E00
63801E00
03801C00
03803C00
03803800
03807000
0380F000
0380E000
0381E000
0381C7F8
03838FFC
03879E1E
0387080E
038E000E
039E000E
001C000E
003C000E
0038001C
00700038
00F00078
00E000F0
01E001E0
01C003C0
03800700
07800E00
07001FFE
0F001FFE
0E001FFE
ENDCHAR
STARTCHAR 00BE
ENCODING 190
SWIDTH 765 0
DWIDTH 34 0
BBX 33 32 1 0
BITMAP
1FC0003800
7FE0007800
FDF0007000
407000E000
007801E000
007801C000
0070038000
00F0078000
1FE0070000
1FC00F0000
1FF00E0000
00781C0000
00383C0000
0038381E00
0038783E00
0078707E00
C0F8E07E00
FFF1E0FE00
FFE1C1DE00
0E03C1DE00
0003839E00
0007071E00
000F061E00
000E0E1E00
001C1C1E00
001C1FFF80
00381FFF80
00781FFF80
0070001E00
00E0001E00
01E0001E00
01C0001E00
ENDCHAR
STARTCHAR 00BF
ENCODING 191
SWIDTH 427 0
DWIDTH 19 0
BBX 17 33 1 -9
BITMAP
00F000
00F800
00F800
00F800
00F800
007000
000000
000000
000000
007000
007000
007000
00F000
00F000
01E000
03E000
07C000
0F8000
1F0000
3E0000
7C0000
780000
F00000
F00000
F00000
F00000
F00000
F80000
7C0780
7FFF80
3FFF80
0FFE00
008000
ENDCHAR
STARTCHAR 00C0
ENCODING 192
SWIDTH 630 0
DWIDTH 28 0
BBX 28 42 0 0
BITMAP
00F80000
007C0000
003C0000
001E0000
000F0000
00070000
00038000
00000000
00000000
00000000
000F0000
000F8000
001F8000
001F8000
001FC000
003FC000
003DC000
0039E000
0079E000
0078F000
00F0F000
00F07000
00E07800
01E07800
01E03C00
03C03C00
03C03C00
03C01E00
07801E00
07FFFF00
0FFFFF00
0FFFFF00
0F000780
1E000780
1E000780
1E0003C0
3C0003C0
3C0003E0
780001E0
780001E0
780000F0
F00000F0
ENDCHAR
STARTCHAR 00C1
ENCODING 193
SWIDTH 630 0
DWIDTH 28 0
BBX 28 42 0 0
BITMAP
0000F800
0001F000
0001E000
0003C000
00078000
00070000
000E0000
00000000
00000000
00000000
000F0000
000F8000
001F8000
001F8000
001FC000
003FC000
003DC000
0039E000
0079E000
0078F000
00F0F000
00F07000
00E07800
01E07800
01E03C00
03C03C00
03C03C00
03C01E00
07801E00
07FFFF00
0FFFFF00
0FFFFF00
0F000780
1E000780
1E000780
1E0003C0
3C0003C0
3C0003E0
780001E0
780001E0
780000F0
F00000F0
ENDCHAR
STARTCHAR 00C2
ENCODING 194
SWIDTH 630 0
DWIDTH 28 0
BBX 28 42 0 0
BITMAP
000F0000
001F8000
003FC000
007FE000
0079F000
00F07800
01C03800
00000000
00000000
00000000
000F0000
000F8000
001F8000
001F8000
001FC000
003FC000
003DC000
0039E000
0079E000
0078F000
00F0F000
00F07000
00E07800
01E07800
01E03C00
03C03C00
03C03C00
03C01E00
07801E00
07FFFF00
0FFFFF00
0FFFFF00
0F000780
1E000780
1E000780
1E0003C0
3C0003C0
3C0003E0
780001E0
780001E0
780000F0
F00000F0
ENDCHAR
STARTCHAR 00C3
ENCODING 195
SWIDTH 630 0
DWIDTH 28 0
BBX 28 41 0 0
BITMAP
00000C00
00FC0C00
01FF1C00
01FFF800
0387F800
0301F000
00000000
00000000
00000000
000F0000
000F8000
001F8000
001F8000
001FC000
003FC000
003DC000
0039E000
0079E000
0078F000
00F0F000
00F07000
00E07800
01E07800
01E03C00
03C03C00
03C03C00
03C01E00
07801E00
07FFFF00
0FFFFF00
0FFFFF00
0F000780
1E000780
1E000780
1E0003C0
3C0003C0
3C0003E0
780001E0
780001E0
780000F0
F00000F0
ENDCHAR
STARTCHAR 00C4
ENCODING 196
SWIDTH 630 0
DWIDTH 28 0
BBX 28 40 0 0
BITMAP
00F07000
00F0F000
00F0F000
00607000
00000000
00000000
00000000
00000000
000F0000
000F8000
001F8000
001F8000
001FC000
003FC000
003DC000
0039E000
0079E000
0078F000
00F0F000
00F07000
00E07800
01E07800
01E03C00
03C03C00
03C03C00
03C01E00
07801E00
07FFFF00
0FFFFF00
0FFFFF00
0F000780
1E000780
1E000780
1E0003C0
3C0003C0
3C0003E0
780001E0
780001E0
780000F0
F00000F0
ENDCHAR
STARTCHAR 00C5
ENCODING 197
SWIDTH 630 0
DWIDTH 28 0
BBX 28 39 0 0
BITMAP
000F0000
003FC000
0039E000
0070E000
00706000
0070E000
0030E000
003FC000
001F8000
001F8000
001F8000
001FC000
003FC000
003DC000
0039E000
0079E000
0078F000
00F0F000
00F07000
00E07800
01E07800
01E03C00
03C03C00
03C03C00
03C01E00
07801E00
07FFFF00
0FFFFF00
0FFFFF00
0F000780
1E000780
1E000780
1E0003C0
3C0003C0
3C0003E0
780001E0
780001E0
780000F0
F00000F0
ENDCHAR
STARTCHAR 00C6
ENCODING 198
SWIDTH 877 0
DWIDTH 39 0
BBX 36 32 0 0
BITMAP
0001FFFFF0
0003FFFFF0
0003FFFFF0
0007FFFFF0
00078F0000
00078F0000
000F0F0000
000F0F0000
001E0F0000
001E0F0000
003C0F0000
003C0F0000
00780F0000
00780F0000
00F00FFFF0
00F00FFFF0
01E00FFFF0
01E00F0000
03C00F0000
03FFFF0000
07FFFF0000
07FFFF0000
0F800F0000
0F000F0000
1F000F0000
1E000F0000
1E000F0000
3C000F0000
3C000FFFF0
78000FFFF0
78000FFFF0
F0000FFFF0
ENDCHAR
STARTCHAR 00C7
ENCODING 199
SWIDTH 630 0
DWIDTH 28 0
BBX 23 43 3 -11
BITMAP
003FF8
01FFFE
03FFFE
0FF87E
1FC004
1F0000
3E0000
3C0000
7C0000
780000
F80000
F00000
F00000
F00000
F00000
F00000
F00000
F00000
F00000
F00000
F00000
F80000
780000
780000
7C0000
3E0000
3F0000
1F8000
0FE01C
07FFFC
03FFFC
00FFFC
000E00
000E00
001E00
001F80
0007C0
0001C0
0001C0
0003C0
007F80
007F00
003800
ENDCHAR
STARTCHAR 00C8
ENCODING 200
SWIDTH 540 0
DWIDTH 24 0
BBX 18 42 4 0
BITMAP
0F8000
0F8000
07C000
03C000
01E000
00F000
007800
000000
000000
000000
FFFFC0
FFFFC0
FFFFC0
FFFFC0
F00000
F00000
F00000
F00000
F00000
F00000
F00000
F00000
F00000
F00000
FFFF80
FFFF80
FFFF80
F00000
F00000
F00000
F00000
F00000
F00000
F00000
F00000
F00000
F00000
F00000
FFFFC0
FFFFC0
FFFFC0
FFFFC0
ENDCHAR
STARTCHAR 00C9
ENCODING 201
SWIDTH 540 0
DWIDTH 24 0
BBX 18 42 4 0
BITMAP
001F00
001E00
003E00
007C00
007800
00F000
01E000
000000
000000
000000
FFFFC0
FFFFC0
FFFFC0
FFFFC0
F00000
F00000
F00000
F00000
F00000
F00000
F00000
F00000
F00000
F00000
FFFF80
FFFF80
FFFF80
F00000
F00000
F00000
F00000
F00000
F00000
F00000
F00000
F00000
F00000
F00000
FFFFC0
FFFFC0
FFFFC0
FFFFC0
ENDCHAR
STARTCHAR 00CA
ENCODING 202
SWIDTH 540 0
DWIDTH 24 0
BBX 18 42 4 0
BITMAP
01F000
01F000
03F800
07BC00
0F1E00
1E0F00
3C0780
000000
000000
000000
FFFFC0
FFFFC0
FFFFC0
FFFFC0
F00000
F00000
F00000
F00000
F00000
F00000
F00000
F00000
F00000
F00000
FFFF80
FFFF80
FFFF80
F00000
F00000
F00000
F00000
F00000
F00000
F00000
F00000
F00000
F00000
F00000
FFFFC0
FFFFC0
FFFFC0
FFFFC0
ENDCHAR
STARTCHAR 00CB
ENCODING 203
SWIDTH 540 0
DWIDTH 24 0
BBX 18 40 4 0
BITMAP
0E0E00
1E0F00
1E0F00
0E0E00
000000
000000
000000
000000
FFFFC0
FFFFC0
FFFFC0
FFFFC0
F00000
F00000
F00000
F00000
F00000
F00000
F00000
F00000
F00000
F00000
FFFF80
FFFF80
FFFF80
F00000
F00000
F00000
F00000
F00000
F00000
F00000
F00000
F00000
F00000
F00000
FFFFC0
FFFFC0
FFFFC0
FFFFC0
ENDCHAR
STARTCHAR 00CC
ENCODING 204
SWIDTH 337 0
DWIDTH 15 0
BBX 11 42 2 0
BITMAP
F800
F800
7C00
3C00
1E00
0F00
0780
0000
0000
0000
FFE0
FFE0
FFE0
0F00
0F00
0F00
0F00
0F00
0F00
0F00
0F00
0F00
0F00
0F00
0F00
0F00
0F00
0F00
0F00
0F00
0F00
0F00
0F00
0F00
0F00
0F00
0F00
0F00
0F00
7FE0
FFE0
FFE0
ENDCHAR
STARTCHAR 00CD
ENCODING 205
SWIDTH 337 0
DWIDTH 15 0
BBX 12 42 2 0
BITMAP
01F0
01E0
03E0
07C0
0780
0F00
1E00
0000
0000
0000
FFE0
FFE0
FFE0
0F00
0F00
0F00
0F00
0F00
0F00
0F00
0F00
0F00
0F00
0F00
0F00
0F00
0F00
0F00
0F00
0F00
0F00
0F00
0F00
0F00
0F00
0F00
0F00
0F00
0F00
7FE0
FFE0
FFE0
ENDCHAR
STARTCHAR 00CE
ENCODING 206
SWIDTH 337 0
DWIDTH 15 0
BBX 15 42 0 0
BITMAP
07C0
07C0
0FE0
1EF0
3C78
783C
F01E
0000
0000
0000
3FF8
3FF8
3FF8
03C0
03C0
03C0
03C0
03C0
03C0
03C0
03C0
03C0
03C0
03C0
03C0
03C0
03C0
03C0
03C0
03C0
03C0
03C0
03C0
03C0
03C0
03C0
03C0
03C0
03C0
1FF8
3FF8
3FF8
ENDCHAR
STARTCHAR 00CF
ENCODING 207
SWIDTH 337 0
DWIDTH 15 0
BBX 13 40 1 0
BITMAP
7070
F078
F078
7070
0000
0000
0000
0000
7FF0
7FF0
7FF0
0780
0780
0780
0780
0780
0780
0780
0780
0780
0780
0780
0780
0780
0780
0780
0780
0780
0780
0780
0780
0780
0780
0780
0780
0780
0780
3FF0
7FF0
7FF0
ENDCHAR
STARTCHAR 00D0
ENCODING 208
SWIDTH 720 0
DWIDTH 32 0
BBX 29 32 1 0
BITMAP
0FFE0000
0FFFF000
0FFFFC00
0FFFFF00
0F003F80
0F000FC0
0F0007C0
0F0003E0
0F0001E0
0F0001F0
0F0000F0
0F0000F0
0F0000F0
0F0000F8
0F0000F8
FFFF00F8
FFFF00F8
FFFF00F8
0F0000F8
0F0000F0
0F0000F0
0F0000F0
0F0001F0
0F0001E0
0F0003E0
0F0007C0
0F000FC0
0F003F80
0F07FF00
0FFFFC00
0FFFF000
0FFF8000
ENDCHAR
STARTCHAR 00D1
ENCODING 209
SWIDTH 742 0
DWIDTH 33 0
BBX 25 41 4 0
BITMAP
00401800
01F83800
03FE3800
07FFF000
070FF000
0603C000
00000000
00000000
00000000
F8000380
FC000380
FC000380
FE000380
FF000380
FF000380
FF800380
F7C00380
F3C00380
F3E00380
F1F00380
F0F00380
F0F80380
F0780380
F03C0380
F03E0380
F01E0380
F01F0380
F00F8380
F0078380
F007C380
F003E380
F001E380
F001F380
F000FB80
F0007B80
F0007F80
F0003F80
F0001F80
F0001F80
F0000F80
F0000F80
ENDCHAR
STARTCHAR 00D2
ENCODING 210
SWIDTH 765 0
DWIDTH 34 0
BBX 29 42 3 0
BITMAP
00780000
007C0000
003E0000
001E0000
000F0000
00078000
00038000
00000000
00000000
00000000
007FF000
01FFFC00
07FFFE00
0FF07F80
1F800F80
3F0007C0
3E0003E0
7C0001E0
780001F0
780000F0
F80000F0
F00000F8
F00000F8
F0000078
F0000078
F0000078
F0000078
F0000078
F0000078
F0000078
F00000F8
F80000F0
780000F0
780001F0
7C0001E0
3C0003E0
3E0007C0
1F800FC0
0FE03F80
07FFFF00
03FFFC00
00FFF000
ENDCHAR
STARTCHAR 00D3
ENCODING 211
SWIDTH 765 0
DWIDTH 34 0
BBX 29 42 3 0
BITMAP
0000F800
0001F000
0001E000
0003C000
0003C000
00078000
000E0000
00000000
00000000
00000000
007FF000
01FFFC00
07FFFE00
0FF07F80
1F800F80
3F0007C0
3E0003E0
7C0001E0
780001F0
780000F0
F80000F0
F00000F8
F00000F8
F0000078
F0000078
F0000078
F0000078
F0000078
F0000078
F0000078
F00000F8
F80000F0
780000F0
780001F0
7C0001E0
3C0003E0
3E0007C0
1F800FC0
0FE03F80
07FFFF00
03FFFC00
00FFF000
ENDCHAR
STARTCHAR 00D4
ENCODING 212
SWIDTH 765 0
DWIDTH 34 0
BBX 29 42 3 0
BITMAP
000F8000
001F8000
001FC000
003DE000
0078F000
00F07800
01E03C00
00000000
00000000
00000000
007FF000
01FFFC00
07FFFE00
0FF07F80
1F800F80
3F0007C0
3E0003E0
7C0001E0
780001F0
780000F0
F80000F0
F00000F8
F00000F8
F0000078
F0000078
F0000078
F0000078
F0000078
F0000078
F0000078
F00000F8
F80000F0
780000F0
780001F0
7C0001E0
3C0003E0
3E0007C0
1F800FC0
0FE03F80
07FFFF00
03FFFC00
00FFF000
ENDCHAR
STARTCHAR 00D5
ENCODING 213
SWIDTH 765 0
DWIDTH 34 0
BBX 29 41 3 0
BITMAP
00100E00
00FC0C00
01FF1C00
01FFFC00
0187F800
0381F000
00000000
00000000
00000000
007FF000
01FFFC00
07FFFE00
0FF07F80
1F800F80
3F0007C0
3E0003E0
7C0001E0
780001F0
780000F0
F80000F0
F00000F8
F00000F8
F0000078
F0000078
F0000078
F0000078
F0000078
F0000078
F0000078
F00000F8
F80000F0
780000F0
780001F0
7C0001E0
3C0003E0
3E0007C0
1F800FC0
0FE03F80
07FFFF00
03FFFC00
00FFF000
ENDCHAR
STARTCHAR 00D6
ENCODING 214
SWIDTH 765 0
DWIDTH 34 0
BBX 29 40 3 0
BITMAP
00F07000
00F0F800
00F07800
00707000
00000000
00000000
00000000
00000000
007FF000
01FFFC00
07FFFE00
0FF07F80
1F800F80
3F0007C0
3E0003E0
7C0001E0
780001F0
780000F0
F80000F0
F00000F8
F00000F8
F0000078
F0000078
F0000078
F0000078
F0000078
F0000078
F0000078
F00000F8
F80000F0
780000F0
780001F0
7C0001E0
3C0003E0
3E0007C0
1F800FC0
0FE03F80
07FFFF00
03FFFC00
00FFF000
ENDCHAR
STARTCHAR 00D7
ENCODING 215
SWIDTH 562 0
DWIDTH 25 0
BBX 19 19 3 7
BITMAP
6000C0
F001E0
7803E0
3C07C0
1E0F80
0F1F00
07BE00
03FC00
01F800
01F000
03F800
07FC00
0F9E00
1F0F00
3E0780
7C03C0
F801E0
7000E0
200040
ENDCHAR
STARTCHAR 00D8
ENCODING 216
SWIDTH 765 0
DWIDTH 34 0
BBX 29 34 3 -1
BITMAP
00000080
007FE1E0
01FFFDC0
07FFFFC0
0FF0FF80
1F800F80
3F000FC0
3E001FE0
7C003DE0
78003DF0
780078F0
F800F0F0
F001E0F8
F001E0F8
F003C078
F0078078
F0078078
F00F0078
F01E0078
F01C0078
F03C0078
F07800F8
F8F000F0
78F000F0
79E001F0
7FC001E0
3FC003E0
3F8007C0
1F800FC0
1FE03F80
1FFFFF00
3FFFFC00
78FFF000
18000000
ENDCHAR
STARTCHAR 00D9
ENCODING 217
SWIDTH 720 0
DWIDTH 32 0
BBX 24 42 4 0
BITMAP
03E000
01F000
00F800
007800
003C00
001E00
000E00
000000
000000
000000
F0000F
F0000F
F0000F
F0000F
F0000F
F0000F
F0000F
F0000F
F0000F
F0000F
F0000F
F0000F
F0000F
F0000F
F0000F
F0000F
F0000F
F0000F
F0000F
F0000F
F0000F
F0000F
F0000F
F0000F
F8000F
78001F
7C001E
3E003E
3F80FC
1FFFF8
07FFF0
03FFC0
ENDCHAR
STARTCHAR 00DA
ENCODING 218
SWIDTH 720 0
DWIDTH 32 0
BBX 24 42 4 0
BITMAP
0003E0
0007C0
000780
000F00
001E00
001C00
003800
000000
000000
000000
F0000F
F0000F
F0000F
F0000F
F0000F
F0000F
F0000F
F0000F
F0000F
F0000F
F0000F
F0000F
F0000F
F0000F
F0000F
F0000F
F0000F
F0000F
F0000F
F0000F
F0000F
F0000F
F0000F
F0000F
F8000F
78001F
7C001E
3E003E
3F80FC
1FFFF8
07FFF0
03FFC0
ENDCHAR
STARTCHAR 00DB
ENCODING 219
SWIDTH 720 0
DWIDTH 32 0
BBX 24 42 4 0
BITMAP
003C00
007E00
00FF00
00F780
01E3C0
03C1E0
0700F0
000000
000000
000000
F0000F
F0000F
F0000F
F0000F
F0000F
F0000F
F0000F
F0000F
F0000F
F0000F
F0000F
F0000F
F0000F
F0000F
F0000F
F0000F
F0000F
F0000F
F0000F
F0000F
F0000F
F0000F
F0000F
F0000F
F8000F
78001F
7C001E
3E003E
3F80FC
1FFFF8
07FFF0
03FFC0
ENDCHAR
STARTCHAR 00DC
ENCODING 220
SWIDTH 720 0
DWIDTH 32 0
BBX 24 40 4 0
BITMAP
03C1C0
03C3E0
03C3C0
01C1C0
000000
000000
000000
000000
F0000F
F0000F
F0000F
F0000F
F0000F
F0000F
F0000F
F0000F
F0000F
F0000F
F0000F
F0000F
F0000F
F0000F
F0000F
F0000F
F0000F
F0000F
F0000F
F0000F
F0000F
F0000F
F0000F
F0000F
F8000F
78001F
7C001E
3E003E
3F80FC
1FFFF8
07FFF0
03FFC0
ENDCHAR
STARTCHAR 00DD
ENCODING 221
SWIDTH 562 0
DWIDTH 25 0
BBX 25 42 0 0
BITMAP
0003E000
0003C000
0007C000
000F8000
000F0000
001E0000
003C0000
00000000
00000000
00000000
F0000780
78000F80
7C000F00
3C001E00
3E001E00
1E003C00
1F003C00
0F007800
0F80F800
0780F000
03C1F000
03C1E000
01E3E000
01E3C000
00F78000
00F78000
007F0000
007F0000
003E0000
003E0000
001E0000
001E0000
001E0000
001E0000
001E0000
001E0000
001E0000
001E0000
001E0000
001E0000
001E0000
001E0000
ENDCHAR
STARTCHAR 00DE
ENCODING 222
SWIDTH 585 0
DWIDTH 26 0
BBX 21 32 4 0
BITMAP
F00000
F00000
F00000
F00000
F00000
F00000
FFFC00
FFFF80
FFFFC0
F01FE0
F003F0
F001F0
F000F0
F000F8
F000F8
F000F8
F000F8
F000F0
F000F0
F001F0
F003E0
F03FC0
FFFF80
FFFF00
FFF800
F00000
F00000
F00000
F00000
F00000
F00000
F00000
ENDCHAR
STARTCHAR 00DF
ENCODING 223
SWIDTH 630 0
DWIDTH 28 0
BBX 22 34 4 0
BITMAP
03FC00
1FFF00
3FFFC0
7F0FC0
F803E0
F001E0
F001E0
F001E0
F001E0
F003C0
F007C0
F00F80
F01F00
F03C00
F07800
F07800
F07800
F07C00
F03E00
F01F80
F00FC0
F007E0
F001F0
F000F8
F0007C
F0003C
F0003C
F0003C
F0003C
F0003C
F1C078
F1FFF8
F1FFF0
F0FFC0
ENDCHAR
STARTCHAR 00E0
ENCODING 224
SWIDTH 540 0
DWIDTH 24 0
BBX 19 34 2 0
BITMAP
07C000
07C000
03E000
01E000
00F000
007800
003C00
000000
000000
000000
03FE00
1FFF80
1FFFC0
1E07E0
0001E0
0001E0
0001E0
0001E0
0000E0
0000E0
03FFE0
1FFFE0
3FF1E0
7E01E0
7801E0
F001E0
F001E0
F001E0
F003E0
F803E0
7C0FE0
7FFEE0
3FFCE0
1FF0E0
ENDCHAR
STARTCHAR 00E1
ENCODING 225
SWIDTH 540 0
DWIDTH 24 0
BBX 19 34 2 0
BITMAP
000F80
001F00
001E00
003E00
003C00
007800
00E000
000000
000000
000000
03FE00
1FFF80
1FFFC0
1E07E0
0001E0
0001E0
0001E0
0001E0
0000E0
0000E0
03FFE0
1FFFE0
3FF1E0
7E01E0
7801E0
F001E0
F001E0
F001E0
F003E0
F803E0
7C0FE0
7FFEE0
3FFCE0
1FF0E0
ENDCHAR
STARTCHAR 00E2
ENCODING 226
SWIDTH 540 0
DWIDTH 24 0
BBX 19 34 2 0
BITMAP
00F800
01F800
01FC00
03DE00
078F00
0F0780
1E03C0
000000
000000
000000
03FE00
1FFF80
1FFFC0
1E07E0
0001E0
0001E0
0001E0
0001E0
0000E0
0000E0
03FFE0
1FFFE0
3FF1E0
7E01E0
7801E0
F001E0
F001E0
F001E0
F003E0
F803E0
7C0FE0
7FFEE0
3FFCE0
1FF0E0
ENDCHAR
STARTCHAR 00E3
ENCODING 227
SWIDTH 540 0
DWIDTH 24 0
BBX 19 33 2 0
BITMAP
0100E0
0FE0C0
1FF1C0
1FFFC0
183F80
380F00
000000
000000
000000
03FE00
1FFF80
1FFFC0
1E07E0
0001E0
0001E0
0001E0
0001E0
0000E0
0000E0
03FFE0
1FFFE0
3FF1E0
7E01E0
7801E0
F001E0
F001E0
F001E0
F003E0
F803E0
7C0FE0
7FFEE0
3FFCE0
1FF0E0
ENDCHAR
STARTCHAR 00E4
ENCODING 228
SWIDTH 540 0
DWIDTH 24 0
BBX 19 32 2 0
BITMAP
070700
0F0780
0F0780
070700
000000
000000
000000
000000
03FE00
1FFF80
1FFFC0
1E07E0
0001E0
0001E0
0001E0
0001E0
0000E0
0000E0
03FFE0
1FFFE0
3FF1E0
7E01E0
7801E0
F001E0
F001E0
F001E0
F003E0
F803E0
7C0FE0
7FFEE0
3FFCE0
1FF0E0
ENDCHAR
STARTCHAR 00E5
ENCODING 229
SWIDTH 540 0
DWIDTH 24 0
BBX 19 36 2 0
BITMAP
01F800
03FC00
038E00
030600
030600
030600
038E00
01FC00
00F800
000000
000000
000000
03FE00
1FFF80
1FFFC0
1E07E0
0001E0
0001E0
0001E0
0001E0
0000E0
0000E0
03FFE0
1FFFE0
3FF1E0
7E01E0
7801E0
F001E0
F001E0
F001E0
F003E0
F803E0
7C0FE0
7FFEE0
3FFCE0
1FF0E0
ENDCHAR
STARTCHAR 00E6
ENCODING 230
SWIDTH 855 0
DWIDTH 38 0
BBX 34 24 2 0
BITMAP
07FC07F800
1FFF1FFC00
3FFFBFFE00
1C07BC1F00
1003F80F80
0003F00780
0001F003C0
0001E003C0
0001E003C0
0001E003C0
03FFFFFFC0
1FFFFFFFC0
3FE1FFFFC0
7C01E00000
7801E00000
F001E00000
F001E00000
F003F00000
F003F00000
F807F80000
780F7E0380
7FFE3FFF80
3FFC1FFF80
1FF007FF00
ENDCHAR
STARTCHAR 00E7
ENCODING 231
SWIDTH 472 0
DWIDTH 21 0
BBX 18 35 2 -11
BITMAP
01FF80
07FFC0
0FFF80
1F8380
3E0000
3C0000
7C0000
780000
780000
780000
F80000
F00000
F00000
F80000
780000
780000
780000
780000
3C0000
3E0000
1F0180
1FFF80
07FF80
03FF80
007000
007000
00F000
00FC00
003E00
000E00
000E00
001E00
03FC00
03F800
01C000
ENDCHAR
STARTCHAR 00E8
ENCODING 232
SWIDTH 562 0
DWIDTH 25 0
BBX 21 34 2 0
BITMAP
07C000
03C000
01E000
01F000
00F000
007800
003C00
000000
000000
000000
01FE00
07FF80
0FFFC0
1F03E0
3E01E0
3C00F0
7800F0
7800F8
780078
780078
FFFFF8
FFFFF8
FFFFF8
F80000
780000
780000
780000
7C0000
3C0000
3E0000
1F8070
0FFFF0
07FFF0
01FFC0
ENDCHAR
STARTCHAR 00E9
ENCODING 233
SWIDTH 562 0
DWIDTH 25 0
BBX 21 34 2 0
BITMAP
000F80
000F00
001F00
003E00
003C00
007800
00F000
000000
000000
000000
01FE00
07FF80
0FFFC0
1F03E0
3E01E0
3C00F0
7800F0
7800F8
780078
780078
FFFFF8
FFFFF8
FFFFF8
F80000
780000
780000
780000
7C0000
3C0000
3E0000
1F8070
0FFFF0
07FFF0
01FFC0
ENDCHAR
STARTCHAR 00EA
ENCODING 234
SWIDTH 562 0
DWIDTH 25 0
BBX 21 34 2 0
BITMAP
00F800
00FC00
01FC00
03DE00
078F00
0F0780
1E01C0
000000
000000
000000
01FE00
07FF80
0FFFC0
1F03E0
3E01E0
3C00F0
7800F0
7800F8
780078
780078
FFFFF8
FFFFF8
FFFFF8
F80000
780000
780000
780000
7C0000
3C0000
3E0000
1F8070
0FFFF0
07FFF0
01FFC0
ENDCHAR
STARTCHAR 00EB
ENCODING 235
SWIDTH 562 0
DWIDTH 25 0
BBX 21 32 2 0
BITMAP
070780
0F8780
078780
070700
000000
000000
000000
000000
01FE00
07FF80
0FFFC0
1F03E0
3E01E0
3C00F0
7800F0
7800F8
780078
780078
FFFFF8
FFFFF8
FFFFF8
F80000
780000
780000
780000
7C0000
3C0000
3E0000
1F8070
0FFFF0
07FFF0
01FFC0
ENDCHAR
STARTCHAR 00EC
ENCODING 236
SWIDTH 247 0
DWIDTH 11 0
BBX 9 34 0 0
BITMAP
F800
7800
3C00
3E00
1E00
0F00
0380
0000
0000
0000
0F00
0F00
0F00
0F00
0F00
0F00
0F00
0F00
0F00
0F00
0F00
0F00
0F00
0F00
0F00
0F00
0F00
0F00
0F00
0F00
0F00
0F00
0F00
0F00
ENDCHAR
STARTCHAR 00ED
ENCODING 237
SWIDTH 247 0
DWIDTH 11 0
BBX 9 34 3 0
BITMAP
0F80
0F00
1F00
3E00
3C00
7800
F000
0000
0000
0000
7800
7800
7800
7800
7800
7800
7800
7800
7800
7800
7800
7800
7800
7800
7800
7800
7800
7800
7800
7800
7800
7800
7800
7800
ENDCHAR
STARTCHAR 00EE
ENCODING 238
SWIDTH 247 0
DWIDTH 11 0
BBX 15 34 -2 0
BITMAP
07C0
07E0
0FF0
1EF0
3C78
783C
F00E
0000
0000
0000
03C0
03C0
03C0
03C0
03C0
03C0
03C0
03C0
03C0
03C0
03C0
03C0
03C0
03C0
03C0
03C0
03C0
03C0
03C0
03C0
03C0
03C0
03C0
03C0
ENDCHAR
STARTCHAR 00EF
ENCODING 239
SWIDTH 247 0
DWIDTH 11 0
BBX 12 32 0 0
BITMAP
E0F0
F0F0
F0F0
E060
0000
0000
0000
0000
0F00
0F00
0F00
0F00
0F00
0F00
0F00
0F00
0F00
0F00
0F00
0F00
0F00
0F00
0F00
0F00
0F00
0F00
0F00
0F00
0F00
0F00
0F00
0F00
ENDCHAR
STARTCHAR 00F0
ENCODING 240
SWIDTH 585 0
DWIDTH 26 0
BBX 22 34 2 0
BITMAP
018020
01E0E0
03F3F0
01FFC0
007F80
007F00
01FF80
03F7C0
07C3C0
0301E0
0000F0
0000F0
000078
01FE78
07FFB8
0FFFFC
1F83FC
3E00FC
7C007C
78003C
78003C
78003C
F0001C
F0003C
F0003C
78003C
78003C
78003C
7C0078
3C00F8
1F01F0
1FFFE0
07FFC0
03FF00
ENDCHAR
STARTCHAR 00F1
ENCODING 241
SWIDTH 607 0
DWIDTH 27 0
BBX 20 33 4 0
BITMAP
0700C0
0FC1C0
1FF380
3FFF80
307F00
301E00
000000
000000
000000
E1FF00
E7FF80
EFFFC0
FF07E0
FC01E0
F801F0
F800F0
F000F0
F000F0
F000F0
F000F0
F000F0
F000F0
F000F0
F000F0
F000F0
F000F0
F000F0
F000F0
F000F0
F000F0
F000F0
F000F0
F000F0
ENDCHAR
STARTCHAR 00F2
ENCODING 242
SWIDTH 585 0
DWIDTH 26 0
BBX 22 34 2 0
BITMAP
03E000
03E000
01F000
00F000
007800
003C00
001E00
000000
000000
000000
01FF00
07FFC0
0FFFE0
1F83F0
3E00F8
3C0078
7C007C
78003C
78003C
78003C
F8003C
F0003C
F0003C
F8003C
78003C
78003C
78003C
78007C
3C0078
3E00F8
1F01F0
0FFFE0
07FFC0
01FF00
ENDCHAR
STARTCHAR 00F3
ENCODING 243
SWIDTH 585 0
DWIDTH 26 0
BBX 22 34 2 0
BITMAP
0007C0
000F80
000F00
001E00
001C00
003800
007000
000000
000000
000000
01FF00
07FFC0
0FFFE0
1F83F0
3E00F8
3C0078
7C007C
78003C
78003C
78003C
F8003C
F0003C
F0003C
F8003C
78003C
78003C
78003C
78007C
3C0078
3E00F8
1F01F0
0FFFE0
07FFC0
01FF00
ENDCHAR
STARTCHAR 00F4
ENCODING 244
SWIDTH 585 0
DWIDTH 26 0
BBX 22 34 2 0
BITMAP
007C00
00FC00
00FE00
01EF00
03C780
0783C0
0E01E0
000000
000000
000000
01FF00
07FFC0
0FFFE0
1F83F0
3E00F8
3C0078
7C007C
78003C
78003C
78003C
F8003C
F0003C
F0003C
F8003C
78003C
78003C
78003C
78007C
3C0078
3E00F8
1F01F0
0FFFE0
07FFC0
01FF00
ENDCHAR
STARTCHAR 00F5
ENCODING 245
SWIDTH 585 0
DWIDTH 26 0
BBX 22 33 2 0
BITMAP
008070
07F060
0FF8E0
0FFFE0
0C1FC0
1C0780
000000
000000
000000
01FF00
07FFC0
0FFFE0
1F83F0
3E00F8
3C0078
7C007C
78003C
78003C
78003C
F8003C
F0003C
F0003C
F8003C
78003C
78003C
78003C
78007C
3C0078
3E00F8
1F01F0
0FFFE0
07FFC0
01FF00
ENDCHAR
STARTCHAR 00F6
ENCODING 246
SWIDTH 585 0
DWIDTH 26 0
BBX 22 32 2 0
BITMAP
038380
0783C0
0783C0
038380
000000
000000
000000
000000
01FF00
07FFC0
0FFFE0
1F83F0
3E00F8
3C0078
7C007C
78003C
78003C
78003C
F8003C
F0003C
F0003C
F8003C
78003C
78003C
78003C
78007C
3C0078
3E00F8
1F01F0
0FFFE0
07FFC0
01FF00
ENDCHAR
STARTCHAR 00F7
ENCODING 247
SWIDTH 562 0
DWIDTH 25 0
BBX 21 21 2 5
BITMAP
007000
00F800
00F800
00F800
007800
000000
000000
000000
000000
FFFFF8
FFFFF8
FFFFF8
000000
000000
000000
007000
00F800
00F800
00F800
007800
003000
ENDCHAR
STARTCHAR 00F8
ENCODING 248
SWIDTH 585 0
DWIDTH 26 0
BBX 22 26 2 -1
BITMAP
000010
01FF3C
07FFF8
0FFFF0
1F83F0
3E01F8
3C03F8
7C03FC
7807BC
780F3C
781E3C
F81E3C
F03C3C
F0783C
F8703C
78F03C
79E03C
7BC03C
7BC07C
3F8078
3F00F8
1F01F0
1FFFE0
3FFFC0
79FF00
380000
ENDCHAR
STARTCHAR 00F9
ENCODING 249
SWIDTH 607 0
DWIDTH 27 0
BBX 20 34 4 0
BITMAP
0F8000
078000
03C000
03E000
01E000
00F000
003800
000000
000000
000000
E000F0
E000F0
E000F0
E000F0
E000F0
E000F0
E000F0
E000F0
E000F0
E000F0
E000F0
E000F0
E000F0
E000F0
E000F0
E000F0
E001F0
F001F0
F001F0
F803F0
FC0FF0
7FFEF0
3FFCF0
1FF8F0
ENDCHAR
STARTCHAR 00FA
ENCODING 250
SWIDTH 607 0
DWIDTH 27 0
BBX 20 34 4 0
BITMAP
001F00
001E00
003E00
007C00
007800
00F000
01E000
000000
000000
000000
E000F0
E000F0
E000F0
E000F0
E000F0
E000F0
E000F0
E000F0
E000F0
E000F0
E000F0
E000F0
E000F0
E000F0
E000F0
E000F0
E001F0
F001F0
F001F0
F803F0
FC0FF0
7FFEF0
3FFCF0
1FF8F0
ENDCHAR
STARTCHAR 00FB
ENCODING 251
SWIDTH 607 0
DWIDTH 27 0
BBX 20 34 4 0
BITMAP
01F000
01F800
03FC00
07BC00
0F1E00
1E0F00
3C0380
000000
000000
000000
E000F0
E000F0
E000F0
E000F0
E000F0
E000F0
E000F0
E000F0
E000F0
E000F0
E000F0
E000F0
E000F0
E000F0
E000F0
E000F0
E001F0
F001F0
F001F0
F803F0
FC0FF0
7FFEF0
3FFCF0
1FF8F0
ENDCHAR
STARTCHAR 00FC
ENCODING 252
SWIDTH 607 0
DWIDTH 27 0
BBX 20 32 4 0
BITMAP
0E0F00
0F0F00
0F0F00
0E0600
000000
000000
000000
000000
E000F0
E000F0
E000F0
E000F0
E000F0
E000F0
E000F0
E000F0
E000F0
E000F0
E000F0
E000F0
E000F0
E000F0
E000F0
E000F0
E001F0
F001F0
F001F0
F803F0
FC0FF0
7FFEF0
3FFCF0
1FF8F0
ENDCHAR
STARTCHAR 00FD
ENCODING 253
SWIDTH 495 0
DWIDTH 22 0
BBX 23 45 0 -11
BITMAP
0007C0
000F80
000F00
001E00
003C00
003800
007000
000000
000000
000000
F0003E
78003C
78003C
780078
3C0078
3C0078
1E00F0
1E00F0
1E01F0
0F01E0
0F01E0
0783C0
0783C0
0783C0
03C780
03C780
01C700
01EF00
01EF00
00EE00
00FE00
007E00
007C00
007C00
007800
007800
007800
00F000
00F000
01E000
03E000
FFC000
FF8000
FF0000
3C0000
ENDCHAR
STARTCHAR 00FE
ENCODING 254
SWIDTH 607 0
DWIDTH 27 0
BBX 21 45 4 -11
BITMAP
F00000
F00000
F00000
F00000
F00000
F00000
F00000
F00000
F00000
F00000
F1FE00
F3FF80
FFFFC0
FE07E0
FC01E0
F801F0
F000F0
F000F0
F00078
F00078
F00078
F00078
F00078
F00078
F00078
F00078
F000F0
F000F0
F801F0
FC01E0
FE03E0
EFFFC0
F7FF80
F1FE00
F00000
F00000
F00000
F00000
F00000
F00000
F00000
F00000
F00000
F00000
F00000
ENDCHAR
STARTCHAR 00FF
ENCODING 255
SWIDTH 495 0
DWIDTH 22 0
BBX 23 43 0 -11
BITMAP
078380
0787C0
0783C0
038380
000000
000000
000000
000000
F0003E
78003C
78003C
780078
3C0078
3C0078
1E00F0
1E00F0
1E01F0
0F01E0
0F01E0
0783C0
0783C0
0783C0
03C780
03C780
01C700
01EF00
01EF00
00EE00
00FE00
007E00
007C00
007C00
007800
007800
007800
00F000
00F000
01E000
03E000
FFC000
FF8000
FF0000
3C0000
ENDCHAR
STARTCHAR 0100
ENCODING 256
SWIDTH 630 0
DWIDTH 28 0
BBX 28 38 0 0
BITMAP
00FFF800
00FFF800
00FFF800
00000000
00000000
00000000
000F0000
000F8000
001F8000
001F8000
001FC000
003FC000
003DC000
0039E000
0079E000
0078F000
00F0F000
00F07000
00E07800
01E07800
01E03C00
03C03C00
03C03C00
03C01E00
07801E00
07FFFF00
0FFFFF00
0FFFFF00
0F000780
1E000780
1E000780
1E0003C0
3C0003C0
3C0003E0
780001E0
780001E0
780000F0
F00000F0
ENDCHAR
STARTCHAR 0101
ENCODING 257
SWIDTH 540 0
DWIDTH 24 0
BBX 19 30 2 0
BITMAP
0FFF80
0FFF80
0FFF80
000000
000000
000000
03FE00
1FFF80
1FFFC0
1E07E0
0001E0
0001E0
0001E0
0001E0
0000E0
0000E0
03FFE0
1FFFE0
3FF1E0
7E01E0
7801E0
F001E0
F001E0
F001E0
F003E0
F803E0
7C0FE0
7FFEE0
3FFCE0
1FF0E0
ENDCHAR
STARTCHAR 0102
ENCODING 258
SWIDTH 630 0
DWIDTH 28 0
BBX 28 41 0 0
BITMAP
01C01800
01C03800
00E07000
00FFF000
007FE000
003F8000
00000000
00000000
00000000
000F0000
000F8000
001F8000
001F8000
001FC000
003FC000
003DC000
0039E000
0079E000
0078F000
00F0F000
00F07000
00E07800
01E07800
01E03C00
03C03C00
03C03C00
03C01E00
07801E00
07FFFF00
0FFFFF00
0FFFFF00
0F000780
1E000780
1E000780
1E0003C0
3C0003C0
3C0003E0
780001E0
780001E0
780000F0
F00000F0
ENDCHAR
STARTCHAR 0103
ENCODING 259
SWIDTH 540 0
DWIDTH 24 0
BBX 19 33 2 0
BITMAP
0C0180
0C0380
0F0780
07FF00
07FE00
01FC00
000000
000000
000000
03FE00
1FFF80
1FFFC0
1E07E0
0001E0
0001E0
0001E0
0001E0
0000E0
0000E0
03FFE0
1FFFE0
3FF1E0
7E01E0
7801E0
F001E0
F001E0
F001E0
F003E0
F803E0
7C0FE0
7FFEE0
3FFCE0
1FF0E0
ENDCHAR
STARTCHAR 0104
ENCODING 260
SWIDTH 630 0
DWIDTH 28 0
BBX 28 42 0 -10
BITMAP
000F0000
000F8000
001F8000
001F8000
001FC000
003FC000
003DC000
0039E000
0079E000
0078F000
00F0F000
00F07000
00E07800
01E07800
01E03C00
03C03C00
03C03C00
03C01E00
07801E00
07FFFF00
0FFFFF00
0FFFFF00
0F000780
1E000780
1E000780
1E0003C0
3C0003C0
3C0003E0
780001E0
780001E0
780000F0
F00000F0
000000E0
000001C0
00000380
00000780
00000700
00000700
00000780
000007F0
000003F0
000001F0
ENDCHAR
STARTCHAR 0105
ENCODING 261
SWIDTH 540 0
DWIDTH 24 0
BBX 20 34 2 -10
BITMAP
03FE00
1FFF80
1FFFC0
1E07E0
0001E0
0001E0
0001E0
0001E0
0000E0
0000E0
03FFE0
1FFFE0
3FF1E0
7E01E0
7801E0
F001E0
F001E0
F001E0
F003E0
F803E0
7C0FE0
7FFEE0
3FFCE0
1FF0E0
0000E0
0001C0
000380
000380
000700
000700
000780
0007F0
0003F0
0000F0
ENDCHAR
STARTCHAR 0106
ENCODING 262
SWIDTH 630 0
DWIDTH 28 0
BBX 23 42 3 0
BITMAP
0000F0
0001F0
0003E0
0003C0
000780
000F00
000E00
000000
000000
000000
003FF8
01FFFE
03FFFE
0FF87E
1FC004
1F0000
3E0000
3C0000
7C0000
780000
F80000
F00000
F00000
F00000
F00000
F00000
F00000
F00000
F00000
F00000
F00000
F80000
780000
780000
7C0000
3E0000
3F0000
1F8000
0FE01C
07FFFC
03FFFC
00FFFC
ENDCHAR
STARTCHAR 0107
ENCODING 263
SWIDTH 472 0
DWIDTH 21 0
BBX 18 34 2 0
BITMAP
000F80
000F00
001F00
003E00
003C00
007800
00F000
000000
000000
000000
01FF80
07FFC0
0FFF80
1F8380
3E0000
3C0000
7C0000
780000
780000
780000
F80000
F00000
F00000
F80000
780000
780000
780000
780000
3C0000
3E0000
1F0180
1FFF80
07FF80
03FF80
ENDCHAR
STARTCHAR 0108
ENCODING 264
SWIDTH 630 0
DWIDTH 28 0
BBX 23 42 3 0
BITMAP
000F00
001F80
003FC0
007BC0
00F1E0
01E0F0
01C038
000000
000000
000000
003FF8
01FFFE
03FFFE
0FF87E
1FC004
1F0000
3E0000
3C0000
7C0000
780000
F80000
F00000
F00000
F00000
F00000
F00000
F00000
F00000
F00000
F00000
F00000
F80000
780000
780000
7C0000
3E0000
3F0000
1F8000
0FE01C
07FFFC
03FFFC
00FFFC
ENDCHAR
STARTCHAR 0109
ENCODING 265
SWIDTH 472 0
DWIDTH 21 0
BBX 18 34 2 0
BITMAP
00F800
01FC00
01FC00
03DE00
078F00
0F0780
1E03C0
000000
000000
000000
01FF80
07FFC0
0FFF80
1F8380
3E0000
3C0000
7C0000
780000
780000
780000
F80000
F00000
F00000
F80000
780000
780000
780000
780000
3C0000
3E0000
1F0180
1FFF80
07FF80
03FF80
ENDCHAR
STARTCHAR 010A
ENCODING 266
SWIDTH 630 0
DWIDTH 28 0
BBX 23 41 3 0
BITMAP
000600
000F00
000F00
000F00
000F00
000000
000000
000000
000000
003FF8
01FFFE
03FFFE
0FF87E
1FC004
1F0000
3E0000
3C0000
7C0000
780000
F80000
F00000
F00000
F00000
F00000
F00000
F00000
F00000
F00000
F00000
F00000
F80000
780000
780000
7C0000
3E0000
3F0000
1F8000
0FE01C
07FFFC
03FFFC
00FFFC
ENDCHAR
STARTCHAR 010B
ENCODING 267
SWIDTH 472 0
DWIDTH 21 0
BBX 18 33 2 0
BITMAP
003000
007800
00F800
00F800
007000
000000
000000
000000
000000
01FF80
07FFC0
0FFF80
1F8380
3E0000
3C0000
7C0000
780000
780000
780000
F80000
F00000
F00000
F80000
780000
780000
780000
780000
3C0000
3E0000
1F0180
1FFF80
07FF80
03FF80
ENDCHAR
STARTCHAR 010C
ENCODING 268
SWIDTH 630 0
DWIDTH 28 0
BBX 23 42 3 0
BITMAP
03C038
01E078
00F0F0
007BE0
003FC0
001F80
001F00
000000
000000
000000
003FF8
01FFFE
03FFFE
0FF87E
1FC004
1F0000
3E0000
3C0000
7C0000
780000
F80000
F00000
F00000
F00000
F00000
F00000
F00000
F00000
F00000
F00000
F00000
F80000
780000
780000
7C0000
3E0000
3F0000
1F8000
0FE01C
07FFFC
03FFFC
00FFFC
ENDCHAR
STARTCHAR 010D
ENCODING 269
SWIDTH 472 0
DWIDTH 21 0
BBX 18 34 2 0
BITMAP
1E01C0
0F0780
078F00
03DE00
01FC00
01FC00
00F800
000000
000000
000000
01FF80
07FFC0
0FFF80
1F8380
3E0000
3C0000
7C0000
780000
780000
780000
F80000
F00000
F00000
F80000
780000
780000
780000
780000
3C0000
3E0000
1F0180
1FFF80
07FF80
03FF80
ENDCHAR
STARTCHAR 010E
ENCODING 270
SWIDTH 720 0
DWIDTH 32 0
BBX 26 42 4 0
BITMAP
0700F000
0781E000
03C3C000
01E78000
00FF0000
007E0000
003C0000
00000000
00000000
00000000
FFF00000
FFFF8000
FFFFE000
FFFFF800
F001FC00
F0007E00
F0003E00
F0001F00
F0000F00
F0000F80
F0000780
F0000780
F0000780
F00007C0
F00007C0
F00007C0
F00007C0
F00007C0
F00007C0
F0000780
F0000780
F0000780
F0000F80
F0000F00
F0001F00
F0003E00
F0007E00
F001FC00
F03FF800
FFFFE000
FFFF8000
FFFC0000
ENDCHAR
STARTCHAR 010F
ENCODING 271
SWIDTH 607 0
DWIDTH 27 0
BBX 29 34 2 0
BITMAP
00003C78
00003C70
00003CF0
00003CF0
00003CE0
00003CC0
00003DC0
00003C00
00003C00
00003C00
03FC3C00
07FF3C00
1FFFBC00
1F03FC00
3E01FC00
3C00FC00
7C007C00
78007C00
78007C00
78003C00
F8003C00
F0003C00
F0003C00
F8003C00
78003C00
78007C00
78007C00
78007C00
7C007C00
3E00FC00
3F03FC00
1FFFBC00
0FFF3C00
03FE3C00
ENDCHAR
STARTCHAR 0110
ENCODING 272
SWIDTH 720 0
DWIDTH 32 0
BBX 29 32 1 0
BITMAP
0FFE0000
0FFFF000
0FFFFC00
0FFFFF00
0F003F80
0F000FC0
0F0007C0
0F0003E0
0F0001E0
0F0001F0
0F0000F0
0F0000F0
0F0000F0
0F0000F8
0F0000F8
FFFF00F8
FFFF00F8
FFFF00F8
0F0000F8
0F0000F0
0F0000F0
0F0000F0
0F0001F0
0F0001E0
0F0003E0
0F0007C0
0F000FC0
0F003F80
0F07FF00
0FFFFC00
0FFFF000
0FFF8000
ENDCHAR
STARTCHAR 0111
ENCODING 273
SWIDTH 607 0
DWIDTH 27 0
BBX 25 34 2 0
BITMAP
00003C00
00003C00
00003C00
00003C00
00FFFF80
00FFFF80
00FFFF80
00003C00
00003C00
00003C00
01FC3C00
07FF3C00
0FFFBC00
1F87FC00
3E01FC00
3C00FC00
7C007C00
78007C00
78007C00
78003C00
F8003C00
F8003C00
F8003C00
F8003C00
78003C00
78007C00
78007C00
78007C00
7C007C00
3E00FC00
3F03FC00
1FFFBC00
0FFF3C00
03FE3C00
ENDCHAR
STARTCHAR 0112
ENCODING 274
SWIDTH 540 0
DWIDTH 24 0
BBX 18 38 4 0
BITMAP
1FFF00
1FFF00
1FFF00
000000
000000
000000
FFFFC0
FFFFC0
FFFFC0
FFFFC0
F00000
F00000
F00000
F00000
F00000
F00000
F00000
F00000
F00000
F00000
FFFF80
FFFF80
FFFF80
F00000
F00000
F00000
F00000
F00000
F00000
F00000
F00000
F00000
F00000
F00000
FFFFC0
FFFFC0
FFFFC0
FFFFC0
ENDCHAR
STARTCHAR 0113
ENCODING 275
SWIDTH 562 0
DWIDTH 25 0
BBX 21 30 2 0
BITMAP
0FFF80
0FFF80
0FFF80
000000
000000
000000
01FE00
07FF80
0FFFC0
1F03E0
3E01E0
3C00F0
7800F0
7800F8
780078
780078
FFFFF8
FFFFF8
FFFFF8
F80000
780000
780000
780000
7C0000
3C0000
3E0000
1F8070
0FFFF0
07FFF0
01FFC0
ENDCHAR
STARTCHAR 0114
ENCODING 276
SWIDTH 540 0
DWIDTH 24 0
BBX 18 41 4 0
BITMAP
180300
180300
1C0F00
0FFE00
0FFC00
03F800
000000
000000
000000
FFFFC0
FFFFC0
FFFFC0
FFFFC0
F00000
F00000
F00000
F00000
F00000
F00000
F00000
F00000
F00000
F00000
FFFF80
FFFF80
FFFF80
F00000
F00000
F00000
F00000
F00000
F00000
F00000
F00000
F00000
F00000
F00000
FFFFC0
FFFFC0
FFFFC0
FFFFC0
ENDCHAR
STARTCHAR 0115
ENCODING 277
SWIDTH 562 0
DWIDTH 25 0
BBX 21 33 2 0
BITMAP
0C01C0
0E0180
0F0780
07FF00
03FE00
01FC00
000000
000000
000000
01FE00
07FF80
0FFFC0
1F03E0
3E01E0
3C00F0
7800F0
7800F8
780078
780078
FFFFF8
FFFFF8
FFFFF8
F80000
780000
780000
780000
7C0000
3C0000
3E0000
1F8070
0FFFF0
07FFF0
01FFC0
ENDCHAR
STARTCHAR 0116
ENCODING 278
SWIDTH 540 0
DWIDTH 24 0
BBX 18 41 4 0
BITMAP
004000
00F000
01F000
01F000
00E000
000000
000000
000000
000000
FFFFC0
FFFFC0
FFFFC0
FFFFC0
F00000
F00000
F00000
F00000
F00000
F00000
F00000
F00000
F00000
F00000
FFFF80
FFFF80
FFFF80
F00000
F00000
F00000
F00000
F00000
F00000
F00000
F00000
F00000
F00000
F00000
FFFFC0
FFFFC0
FFFFC0
FFFFC0
ENDCHAR
STARTCHAR 0117
ENCODING 279
SWIDTH 562 0
DWIDTH 25 0
BBX 21 33 2 0
BITMAP
003000
007800
00F800
00F800
007000
000000
000000
000000
000000
01FE00
07FF80
0FFFC0
1F03E0
3E01E0
3C00F0
7800F0
7800F8
780078
780078
FFFFF8
FFFFF8
FFFFF8
F80000
780000
780000
780000
7C0000
3C0000
3E0000
1F8070
0FFFF0
07FFF0
01FFC0
ENDCHAR
STARTCHAR 0118
ENCODING 280
SWIDTH 540 0
DWIDTH 24 0
BBX 18 42 4 -10
BITMAP
FFFFC0
FFFFC0
FFFFC0
FFFFC0
F00000
F00000
F00000
F00000
F00000
F00000
F00000
F00000
F00000
F00000
FFFF80
FFFF80
FFFF80
F00000
F00000
F00000
F00000
F00000
F00000
F00000
F00000
F00000
F00000
F00000
FFFFC0
FFFFC0
FFFFC0
FFFFC0
000700
000E00
001E00
001C00
001C00
003C00
001C00
001FC0
001FC0
000780
ENDCHAR
STARTCHAR 0119
ENCODING 281
SWIDTH 562 0
DWIDTH 25 0
BBX 21 34 2 -10
BITMAP
01FE00
07FF80
0FFFC0
1F03E0
3E01E0
3C00F0
7800F0
7800F8
780078
780078
FFFFF8
FFFFF8
FFFFF8
F80000
780000
780000
780000
7C0000
3C0000
3E0000
1F8070
0FFFF0
07FFF0
01FFE0
0001C0
000380
000700
000700
000E00
000E00
000F00
000FE0
0007E0
0001E0
ENDCHAR
STARTCHAR 011A
ENCODING 282
SWIDTH 540 0
DWIDTH 24 0
BBX 18 42 4 0
BITMAP
380380
1E0F00
0F1E00
07BC00
03F800
03F800
01F000
000000
000000
000000
FFFFC0
FFFFC0
FFFFC0
FFFFC0
F00000
F00000
F00000
F00000
F00000
F00000
F00000
F00000
F00000
F00000
FFFF80
FFFF80
FFFF80
F00000
F00000
F00000
F00000
F00000
F00000
F00000
F00000
F00000
F00000
F00000
FFFFC0
FFFFC0
FFFFC0
FFFFC0
ENDCHAR
STARTCHAR 011B
ENCODING 283
SWIDTH 562 0
DWIDTH 25 0
BBX 21 34 2 0
BITMAP
1E01C0
0F0780
078F00
03DE00
01FE00
00FC00
00F800
000000
000000
000000
01FE00
07FF80
0FFFC0
1F03E0
3E01E0
3C00F0
7800F0
7800F8
780078
780078
FFFFF8
FFFFF8
FFFFF8
F80000
780000
780000
780000
7C0000
3C0000
3E0000
1F8070
0FFFF0
07FFF0
01FFC0
ENDCHAR
STARTCHAR 011C
ENCODING 284
SWIDTH 720 0
DWIDTH 32 0
BBX 26 42 3 0
BITMAP
00078000
000FC000
001FE000
003FF000
0078F000
00707800
00E01C00
00000000
00000000
00000000
001FFC00
00FFFF80
03FFFF80
07FC3F80
0FC00300
1F000000
3E000000
3C000000
7C000000
78000000
F8000000
F0000000
F0000000
F0000000
F0000000
F001FFC0
F001FFC0
F001FFC0
F001FFC0
F00003C0
F00003C0
F80003C0
780003C0
780003C0
7C0003C0
3E0003C0
3F0003C0
1F8003C0
0FF007C0
07FFFFC0
01FFFFC0
007FFF00
ENDCHAR
STARTCHAR 011D
ENCODING 285
SWIDTH 607 0
DWIDTH 27 0
BBX 22 45 2 -11
BITMAP
007800
00FC00
01FE00
03EF00
03C780
0703C0
0E01E0
000000
000000
000000
03FC3C
07FF3C
0FFFBC
1F03FC
3E01FC
3C00FC
7C007C
78007C
78007C
78003C
F8003C
F0003C
F0003C
F8003C
78003C
78003C
78007C
78007C
7C007C
3E00FC
1F01FC
1FFFBC
0FFF3C
03FE3C
00003C
00003C
000078
000078
000078
0000F8
3801F0
3FFFE0
3FFFC0
1FFF80
017C00
ENDCHAR
STARTCHAR 011E
ENCODING 286
SWIDTH 720 0
DWIDTH 32 0
BBX 26 41 3 0
BITMAP
00C01C00
00E01C00
00703800
007FF800
003FF000
001FC000
00000000
00000000
00000000
001FFC00
00FFFF80
03FFFF80
07FC3F80
0FC00300
1F000000
3E000000
3C000000
7C000000
78000000
F8000000
F0000000
F0000000
F0000000
F0000000
F001FFC0
F001FFC0
F001FFC0
F001FFC0
F00003C0
F00003C0
F80003C0
780003C0
780003C0
7C0003C0
3E0003C0
3F0003C0
1F8003C0
0FF007C0
07FFFFC0
01FFFFC0
007FFF00
ENDCHAR
STARTCHAR 011F
ENCODING 287
SWIDTH 607 0
DWIDTH 27 0
BBX 22 44 2 -11
BITMAP
0E00C0
0E01C0
070380
07FF80
03FF00
00FC00
000000
000000
000000
03FC3C
07FF3C
0FFFBC
1F03FC
3E01FC
3C00FC
7C007C
78007C
78007C
78003C
F8003C
F0003C
F0003C
F8003C
78003C
78003C
78007C
78007C
7C007C
3E00FC
1F01FC
1FFFBC
0FFF3C
03FE3C
00003C
00003C
000078
000078
000078
0000F8
3801F0
3FFFE0
3FFFC0
1FFF80
017C00
ENDCHAR
STARTCHAR 0120
ENCODING 288
SWIDTH 720 0
DWIDTH 32 0
BBX 26 41 3 0
BITMAP
00030000
00078000
00078000
00078000
00078000
00000000
00000000
00000000
00000000
001FFC00
00FFFF80
03FFFF80
07FC3F80
0FC00300
1F000000
3E000000
3C000000
7C000000
78000000
F8000000
F0000000
F0000000
F0000000
F0000000
F001FFC0
F001FFC0
F001FFC0
F001FFC0
F00003C0
F00003C0
F80003C0
780003C0
780003C0
7C0003C0
3E0003C0
3F0003C0
1F8003C0
0FF007C0
07FFFFC0
01FFFFC0
007FFF00
ENDCHAR
STARTCHAR 0121
ENCODING 289
SWIDTH 607 0
DWIDTH 27 0
BBX 22 44 2 -11
BITMAP
003000
007800
007C00
007800
007800
000000
000000
000000
000000
03FC3C
07FF3C
0FFFBC
1F03FC
3E01FC
3C00FC
7C007C
78007C
78007C
78003C
F8003C
F0003C
F0003C
F8003C
78003C
78003C
78007C
78007C
7C007C
3E00FC
1F01FC
1FFFBC
0FFF3C
03FE3C
00003C
00003C
000078
000078
000078
0000F8
3801F0
3FFFE0
3FFFC0
1FFF80
017C00
ENDCHAR
STARTCHAR 0122
ENCODING 290
SWIDTH 720 0
DWIDTH 32 0
BBX 26 42 3 -10
BITMAP
001FFC00
00FFFF80
03FFFF80
07FC3F80
0FC00300
1F000000
3E000000
3C000000
7C000000
78000000
F8000000
F0000000
F0000000
F0000000
F0000000
F001FFC0
F001FFC0
F001FFC0
F001FFC0
F00003C0
F00003C0
F80003C0
780003C0
780003C0
7C0003C0
3E0003C0
3F0003C0
1F8003C0
0FF007C0
07FFFFC0
01FFFFC0
007FFF00
00000000
00000000
00000000
0003C000
00038000
00078000
00070000
00070000
000E0000
000C0000
ENDCHAR
STARTCHAR 0123
ENCODING 291
SWIDTH 607 0
DWIDTH 27 0
BBX 22 45 2 -11
BITMAP
000C00
001C00
003800
003800
007800
007800
00F000
000000
000000
000000
03FC3C
07FF3C
0FFFBC
1F03FC
3E01FC
3C00FC
7C007C
78007C
78007C
78003C
F8003C
F0003C
F0003C
F8003C
78003C
78003C
78007C
78007C
7C007C
3E00FC
1F01FC
1FFFBC
0FFF3C
03FE3C
00003C
00003C
000078
000078
000078
0000F8
3801F0
3FFFE0
3FFFC0
1FFF80
017C00
ENDCHAR
STARTCHAR 0124
ENCODING 292
SWIDTH 720 0
DWIDTH 32 0
BBX 25 42 4 0
BITMAP
003E0000
007E0000
007F0000
00F78000
01E3C000
03C1E000
0780F000
00000000
00000000
00000000
F0000780
F0000780
F0000780
F0000780
F0000780
F0000780
F0000780
F0000780
F0000780
F0000780
F0000780
F0000780
F0000780
F0000780
FFFFFF80
FFFFFF80
FFFFFF80
F0000780
F0000780
F0000780
F0000780
F0000780
F0000780
F0000780
F0000780
F0000780
F0000780
F0000780
F0000780
F0000780
F0000780
F0000780
ENDCHAR
STARTCHAR 0125
ENCODING 293
SWIDTH 607 0
DWIDTH 27 0
BBX 26 44 -2 0
BITMAP
07C00000
07E00000
0FF00000
1EF00000
3C780000
783C0000
F00E0000
00000000
00000000
00000000
03C00000
03C00000
03C00000
03C00000
03C00000
03C00000
03C00000
03C00000
03C00000
03C00000
03C7FC00
03CFFE00
03FFFF00
03FC1F80
03F00780
03E007C0
03E003C0
03C003C0
03C003C0
03C003C0
03C003C0
03C003C0
03C003C0
03C003C0
03C003C0
03C003C0
03C003C0
03C003C0
03C003C0
03C003C0
03C003C0
03C003C0
03C003C0
03C003C0
ENDCHAR
STARTCHAR 0126
ENCODING 294
SWIDTH 720 0
DWIDTH 32 0
BBX 33 32 0 0
BITMAP
0F00007800
0F00007800
0F00007800
0F00007800
0F00007800
0F00007800
FFFFFFFF80
FFFFFFFF80
FFFFFFFF80
0F00007800
0F00007800
0F00007800
0F00007800
0F00007800
0FFFFFF800
0FFFFFF800
0FFFFFF800
0F00007800
0F00007800
0F00007800
0F00007800
0F00007800
0F00007800
0F00007800
0F00007800
0F00007800
0F00007800
0F00007800
0F00007800
0F00007800
0F00007800
0F00007800
ENDCHAR
STARTCHAR 0127
ENCODING 295
SWIDTH 607 0
DWIDTH 27 0
BBX 24 34 0 0
BITMAP
0F0000
0F0000
0F0000
0F0000
FFFF80
FFFF80
FFFF80
0F0000
0F0000
0F0000
0F0000
0F1FF0
0F7FF8
0FFFFC
0FE07E
0FC01E
0F801F
0F000F
0F000F
0F000F
0F000F
0F000F
0F000F
0F000F
0F000F
0F000F
0F000F
0F000F
0F000F
0F000F
0F000F
0F000F
0F000F
0F000F
ENDCHAR
STARTCHAR 0128
ENCODING 296
SWIDTH 337 0
DWIDTH 15 0
BBX 17 41 -1 0
BITMAP
000380
3F8380
3FC700
7FFF00
60FE00
E07C00
000000
000000
000000
1FFC00
1FFC00
1FFC00
01E000
01E000
01E000
01E000
01E000
01E000
01E000
01E000
01E000
01E000
01E000
01E000
01E000
01E000
01E000
01E000
01E000
01E000
01E000
01E000
01E000
01E000
01E000
01E000
01E000
01E000
0FFC00
1FFC00
1FFC00
ENDCHAR
STARTCHAR 0129
ENCODING 297
SWIDTH 247 0
DWIDTH 11 0
BBX 16 33 -2 0
BITMAP
1C03
3F07
7FCE
FFFE
C1FC
C078
0000
0000
0000
03C0
03C0
03C0
03C0
03C0
03C0
03C0
03C0
03C0
03C0
03C0
03C0
03C0
03C0
03C0
03C0
03C0
03C0
03C0
03C0
03C0
03C0
03C0
03C0
ENDCHAR
STARTCHAR 012A
ENCODING 298
SWIDTH 337 0
DWIDTH 15 0
BBX 13 38 1 0
BITMAP
FFF8
FFF8
FFF8
0000
0000
0000
7FF0
7FF0
7FF0
0780
0780
0780
0780
0780
0780
0780
0780
0780
0780
0780
0780
0780
0780
0780
0780
0780
0780
0780
0780
0780
0780
0780
0780
0780
0780
3FF0
7FF0
7FF0
ENDCHAR
STARTCHAR 012B
ENCODING 299
SWIDTH 247 0
DWIDTH 11 0
BBX 13 30 -1 0
BITMAP
FFF8
FFF8
FFF8
0000
0000
0000
0780
0780
0780
0780
0780
0780
0780
0780
0780
0780
0780
0780
0780
0780
0780
0780
0780
0780
0780
0780
0780
0780
0780
0780
ENDCHAR
STARTCHAR 012C
ENCODING 300
SWIDTH 337 0
DWIDTH 15 0
BBX 13 41 1 0
BITMAP
C018
C018
E078
7FF0
7FE0
1FC0
0000
0000
0000
7FF0
7FF0
7FF0
0780
0780
0780
0780
0780
0780
0780
0780
0780
0780
0780
0780
0780
0780
0780
0780
0780
0780
0780
0780
0780
0780
0780
0780
0780
0780
3FF0
7FF0
7FF0
ENDCHAR
STARTCHAR 012D
ENCODING 301
SWIDTH 247 0
DWIDTH 11 0
BBX 14 33 -1 0
BITMAP
C01C
E018
F078
7FF0
3FF0
1FC0
0000
0000
0000
0780
0780
0780
0780
0780
0780
0780
0780
0780
0780
0780
0780
0780
0780
0780
0780
0780
0780
0780
0780
0780
0780
0780
0780
ENDCHAR
STARTCHAR 012E
ENCODING 302
SWIDTH 337 0
DWIDTH 15 0
BBX 11 42 2 -10
BITMAP
FFE0
FFE0
FFE0
0F00
0F00
0F00
0F00
0F00
0F00
0F00
0F00
0F00
0F00
0F00
0F00
0F00
0F00
0F00
0F00
0F00
0F00
0F00
0F00
0F00
0F00
0F00
0F00
0F00
0F00
7FE0
FFE0
FFE0
01C0
0380
0700
0E00
0E00
0E00
0E00
0FE0
07E0
03E0
ENDCHAR
STARTCHAR 012F
ENCODING 303
SWIDTH 247 0
DWIDTH 11 0
BBX 8 43 1 -10
BITMAP
0C
1E
3E
1E
1C
00
00
00
00
1E
1E
1E
1E
1E
1E
1E
1E
1E
1E
1E
1E
1E
1E
1E
1E
1E
1E
1E
1E
1E
1E
1E
1E
1C
38
70
70
F0
E0
F0
7F
7F
1E
ENDCHAR
STARTCHAR 0130
ENCODING 304
SWIDTH 337 0
DWIDTH 15 0
BBX 11 41 2 0
BITMAP
0400
0F00
1F00
1F00
0E00
0000
0000
0000
0000
FFE0
FFE0
FFE0
0F00
0F00
0F00
0F00
0F00
0F00
0F00
0F00
0F00
0F00
0F00
0F00
0F00
0F00
0F00
0F00
0F00
0F00
0F00
0F00
0F00
0F00
0F00
0F00
0F00
0F00
7FE0
FFE0
FFE0
ENDCHAR
STARTCHAR 0131
ENCODING 305
SWIDTH 247 0
DWIDTH 11 0
BBX 4 24 4 0
BITMAP
F0
F0
F0
F0
F0
F0
F0
F0
F0
F0
F0
F0
F0
F0
F0
F0
F0
F0
F0
F0
F0
F0
F0
F0
ENDCHAR
STARTCHAR 0132
ENCODING 306
SWIDTH 607 0
DWIDTH 27 0
BBX 21 40 2 -8
BITMAP
FFE078
FFE078
FFE078
0F0078
0F0078
0F0078
0F0078
0F0078
0F0078
0F0078
0F0078
0F0078
0F0078
0F0078
0F0078
0F0078
0F0078
0F0078
0F0078
0F0078
0F0078
0F0078
0F0078
0F0078
0F0078
0F0078
0F0078
0F0078
0F0078
7FE078
FFE078
FFE078
000078
000078
000078
0000F8
0001F0
003FF0
003FE0
003F80
ENDCHAR
STARTCHAR 0133
ENCODING 307
SWIDTH 495 0
DWIDTH 22 0
BBX 17 44 3 -11
BITMAP
300600
780F00
F80F80
780F00
700F00
000000
000000
000000
000000
780F00
780F00
780F00
780F00
780F00
780F00
780F00
780F00
780F00
780F00
780F00
780F00
780F00
780F00
780F00
780F00
780F00
780F00
780F00
780F00
780F00
780F00
780F00
780F00
000F00
000F00
000F00
000F00
000F00
000F00
001F00
03FE00
03FE00
03FC00
01E000
ENDCHAR
STARTCHAR 0134
ENCODING 308
SWIDTH 270 0
DWIDTH 12 0
BBX 16 50 -3 -8
BITMAP
01E0
03F0
07F8
0FFC
0F3E
1C0E
3807
0000
0000
0000
01E0
01E0
01E0
01E0
01E0
01E0
01E0
01E0
01E0
01E0
01E0
01E0
01E0
01E0
01E0
01E0
01E0
01E0
01E0
01E0
01E0
01E0
01E0
01E0
01E0
01E0
01E0
01E0
01E0
01E0
01E0
01E0
01E0
01E0
01E0
03E0
07C0
FF80
FF80
FE00
ENDCHAR
STARTCHAR 0135
ENCODING 309
SWIDTH 247 0
DWIDTH 11 0
BBX 15 45 -2 -11
BITMAP
07C0
07E0
0FF0
1EF0
3C78
783C
F00E
0000
0000
0000
03C0
03C0
03C0
03C0
03C0
03C0
03C0
03C0
03C0
03C0
03C0
03C0
03C0
03C0
03C0
03C0
03C0
03C0
03C0
03C0
03C0
03C0
03C0
03C0
03C0
03C0
03C0
03C0
03C0
03C0
0780
FF80
FF00
FE00
7000
ENDCHAR
STARTCHAR 0136
ENCODING 310
SWIDTH 607 0
DWIDTH 27 0
BBX 23 42 4 -10
BITMAP
F0003E
F0007C
F000F8
F001F0
F001E0
F003C0
F00780
F00F00
F01F00
F03E00
F07C00
F0F800
F1F000
F3E000
F3E000
F7E000
FFF000
FEF800
FC7C00
F83C00
F03E00
F01F00
F00F80
F00F80
F007C0
F003E0
F001F0
F001F0
F000F8
F0007C
F0003C
F0003E
000000
000000
000000
003800
007800
007800
007000
007000
00E000
00C000
ENDCHAR
STARTCHAR 0137
ENCODING 311
SWIDTH 517 0
DWIDTH 23 0
BBX 19 44 4 -10
BITMAP
F00000
F00000
F00000
F00000
F00000
F00000
F00000
F00000
F00000
F00000
F003C0
F00780
F00F00
F01F00
F03E00
F07C00
F0F800
F1F000
F3E000
F7C000
F78000
EFC000
FFE000
FDE000
F8F000
F0F800
F07C00
F03C00
F01E00
F01F00
F00F80
F00780
F003C0
F003E0
000000
000000
000000
01E000
01C000
03C000
038000
038000
070000
060000
ENDCHAR
STARTCHAR 0138
ENCODING 312
SWIDTH 517 0
DWIDTH 23 0
BBX 19 24 4 0
BITMAP
F003C0
F007C0
F00F80
F01F00
F03E00
F07C00
F07800
F0F000
F1F000
F3E000
F7C000
FFC000
FFE000
FFF000
F8F000
F0F800
F07C00
F03E00
F01E00
F01F00
F00F80
F007C0
F003C0
F003E0
ENDCHAR
STARTCHAR 0139
ENCODING 313
SWIDTH 517 0
DWIDTH 23 0
BBX 18 42 4 0
BITMAP
0F8000
1F0000
1E0000
3C0000
780000
700000
E00000
000000
000000
000000
F00000
F00000
F00000
F00000
F00000
F00000
F00000
F00000
F00000
F00000
F00000
F00000
F00000
F00000
F00000
F00000
F00000
F00000
F00000
F00000
F00000
F00000
F00000
F00000
F00000
F00000
F00000
F00000
FFFFC0
FFFFC0
FFFFC0
FFFFC0
ENDCHAR
STARTCHAR 013A
ENCODING 314
SWIDTH 247 0
DWIDTH 11 0
BBX 9 44 3 0
BITMAP
0F80
0F80
1F00
3E00
3C00
7800
F000
0000
0000
0000
7800
7800
7800
7800
7800
7800
7800
7800
7800
7800
7800
7800
7800
7800
7800
7800
7800
7800
7800
7800
7800
7800
7800
7800
7800
7800
7800
7800
7800
7800
7800
7800
7800
7800
ENDCHAR
STARTCHAR 013B
ENCODING 315
SWIDTH 517 0
DWIDTH 23 0
BBX 18 42 4 -10
BITMAP
F00000
F00000
F00000
F00000
F00000
F00000
F00000
F00000
F00000
F00000
F00000
F00000
F00000
F00000
F00000
F00000
F00000
F00000
F00000
F00000
F00000
F00000
F00000
F00000
F00000
F00000
F00000
F00000
FFFFC0
FFFFC0
FFFFC0
FFFFC0
000000
000000
000000
00F000
00F000
00E000
01E000
01C000
01C000
038000
ENDCHAR
STARTCHAR 013C
ENCODING 316
SWIDTH 247 0
DWIDTH 11 0
BBX 5 44 3 -10
BITMAP
78
78
78
78
78
78
78
78
78
78
78
78
78
78
78
78
78
78
78
78
78
78
78
78
78
78
78
78
78
78
78
78
78
78
00
00
00
38
78
78
70
70
E0
C0
ENDCHAR
STARTCHAR 013D
ENCODING 317
SWIDTH 517 0
DWIDTH 23 0
BBX 18 32 4 0
BITMAP
F003C0
F003C0
F003C0
F00380
F00780
F00700
F00700
F00000
F00000
F00000
F00000
F00000
F00000
F00000
F00000
F00000
F00000
F00000
F00000
F00000
F00000
F00000
F00000
F00000
F00000
F00000
F00000
F00000
FFFFC0
FFFFC0
FFFFC0
FFFFC0
ENDCHAR
STARTCHAR 013E
ENCODING 318
SWIDTH 247 0
DWIDTH 11 0
BBX 11 34 4 0
BITMAP
F1E0
F1E0
F1C0
F1C0
F380
F380
F300
F000
F000
F000
F000
F000
F000
F000
F000
F000
F000
F000
F000
F000
F000
F000
F000
F000
F000
F000
F000
F000
F000
F000
F000
F000
F000
F000
ENDCHAR
STARTCHAR 013F
ENCODING 319
SWIDTH 517 0
DWIDTH 23 0
BBX 18 32 4 0
BITMAP
F00000
F00000
F00000
F00000
F00000
F00000
F00000
F00000
F00000
F00000
F00000
F00000
F00000
F00000
F01E00
F01E00
F01E00
F01E00
F00C00
F00000
F00000
F00000
F00000
F00000
F00000
F00000
F00000
F00000
FFFFC0
FFFFC0
FFFFC0
FFFFC0
ENDCHAR
STARTCHAR 0140
ENCODING 320
SWIDTH 247 0
DWIDTH 11 0
BBX 10 34 4 0
BITMAP
F000
F000
F000
F000
F000
F000
F000
F000
F000
F000
F000
F000
F000
F000
F000
F380
F7C0
F7C0
F3C0
F180
F000
F000
F000
F000
F000
F000
F000
F000
F000
F000
F000
F000
F000
F000
ENDCHAR
STARTCHAR 0141
ENCODING 321
SWIDTH 517 0
DWIDTH 23 0
BBX 21 32 1 0
BITMAP
1E0000
1E0000
1E0000
1E0000
1E0000
1E0000
1E0000
1E0000
1E0000
1E0000
1E0000
1E0000
1E0C00
1E3E00
1EFE00
1FF800
1FE000
1F8000
7F0000
FE0000
FE0000
7E0000
1E0000
1E0000
1E0000
1E0000
1E0000
1E0000
1FFFF8
1FFFF8
1FFFF8
1FFFF8
ENDCHAR
STARTCHAR 0142
ENCODING 322
SWIDTH 247 0
DWIDTH 11 0
BBX 12 34 0 0
BITMAP
1E00
1E00
1E00
1E00
1E00
1E00
1E00
1E00
1E00
1E00
1E00
1E00
1E00
1E00
1EE0
1FF0
1FE0
1F80
3F00
7E00
FE00
FE00
5E00
1E00
1E00
1E00
1E00
1E00
1E00
1E00
1E00
1E00
1E00
1E00
ENDCHAR
STARTCHAR 0143
ENCODING 323
SWIDTH 742 0
DWIDTH 33 0
BBX 25 42 4 0
BITMAP
0001E000
0003E000
0007C000
00078000
000F0000
001E0000
001C0000
00000000
00000000
00000000
F8000380
FC000380
FC000380
FE000380
FF000380
FF000380
FF800380
F7C00380
F3C00380
F3E00380
F1F00380
F0F00380
F0F80380
F0780380
F03C0380
F03E0380
F01E0380
F01F0380
F00F8380
F0078380
F007C380
F003E380
F001E380
F001F380
F000FB80
F0007B80
F0007F80
F0003F80
F0001F80
F0001F80
F0000F80
F0000F80
ENDCHAR
STARTCHAR 0144
ENCODING 324
SWIDTH 607 0
DWIDTH 27 0
BBX 20 34 4 0
BITMAP
001F00
001E00
003E00
007C00
007800
00F000
01E000
000000
000000
000000
E1FF00
E7FF80
EFFFC0
FF07E0
FC01E0
F801F0
F800F0
F000F0
F000F0
F000F0
F000F0
F000F0
F000F0
F000F0
F000F0
F000F0
F000F0
F000F0
F000F0
F000F0
F000F0
F000F0
F000F0
F000F0
ENDCHAR
STARTCHAR 0145
ENCODING 325
SWIDTH 742 0
DWIDTH 33 0
BBX 25 42 4 -10
BITMAP
F8000380
FC000380
FC000380
FE000380
FF000380
FF000380
FF800380
F7C00380
F3C00380
F3E00380
F1F00380
F0F00380
F0F80380
F0780380
F03C0380
F03E0380
F01E0380
F01F0380
F00F8380
F0078380
F007C380
F003E380
F001E380
F001F380
F000FB80
F0007B80
F0007F80
F0003F80
F0001F80
F0001F80
F0000F80
F0000F80
00000000
00000000
00000000
000F0000
000E0000
001E0000
001C0000
001C0000
00380000
00300000
ENDCHAR
STARTCHAR 0146
ENCODING 326
SWIDTH 607 0
DWIDTH 27 0
BBX 20 34 4 -10
BITMAP
E1FF00
E7FF80
EFFFC0
FF07E0
FC01E0
F801F0
F800F0
F000F0
F000F0
F000F0
F000F0
F000F0
F000F0
F000F0
F000F0
F000F0
F000F0
F000F0
F000F0
F000F0
F000F0
F000F0
F000F0
F000F0
000000
000000
000000
007000
00F000
00F000
00E000
00E000
01C000
018000
ENDCHAR
STARTCHAR 0147
ENCODING 327
SWIDTH 742 0
DWIDTH 33 0
BBX 25 42 4 0
BITMAP
07807000
03C0F000
01E1E000
00F7C000
007F8000
003F0000
003E0000
00000000
00000000
00000000
F8000380
FC000380
FC000380
FE000380
FF000380
FF000380
FF800380
F7C00380
F3C00380
F3E00380
F1F00380
F0F00380
F0F80380
F0780380
F03C0380
F03E0380
F01E0380
F01F0380
F00F8380
F0078380
F007C380
F003E380
F001E380
F001F380
F000FB80
F0007B80
F0007F80
F0003F80
F0001F80
F0001F80
F0000F80
F0000F80
ENDCHAR
STARTCHAR 0148
ENCODING 328
SWIDTH 607 0
DWIDTH 27 0
BBX 20 34 4 0
BITMAP
3C0380
1E0F00
0F1E00
07BC00
03FC00
01F800
01F000
000000
000000
000000
E1FF00
E7FF80
EFFFC0
FF07E0
FC01E0
F801F0
F800F0
F000F0
F000F0
F000F0
F000F0
F000F0
F000F0
F000F0
F000F0
F000F0
F000F0
F000F0
F000F0
F000F0
F000F0
F000F0
F000F0
F000F0
ENDCHAR
STARTCHAR 0149
ENCODING 329
SWIDTH 675 0
DWIDTH 30 0
BBX 27 32 0 0
BITMAP
3E000000
3E000000
3C000000
3C000000
3C000000
78000000
78000000
78000000
71C3FE00
F1C7FF00
E1CFFF80
01FE0FC0
01F803C0
01F003E0
01F001E0
01E001E0
01E001E0
01E001E0
01E001E0
01E001E0
01E001E0
01E001E0
01E001E0
01E001E0
01E001E0
01E001E0
01E001E0
01E001E0
01E001E0
01E001E0
01E001E0
01E001E0
ENDCHAR
STARTCHAR 014A
ENCODING 330
SWIDTH 742 0
DWIDTH 33 0
BBX 25 40 4 -8
BITMAP
F8000380
FC000380
FC000380
FE000380
FF000380
FF000380
FF800380
F7C00380
F3C00380
F3E00380
F1F00380
F0F00380
F0F80380
F07C0380
F03C0380
F01E0380
F01F0380
F00F0380
F0078380
F007C380
F003C380
F001E380
F001F380
F000F380
F0007B80
F0007F80
F0003F80
F0001F80
F0001F80
F0000F80
F0000780
F0000780
00000380
00000380
00000780
00000780
00001F80
0003FF00
0003FE00
0003F800
ENDCHAR
STARTCHAR 014B
ENCODING 331
SWIDTH 607 0
DWIDTH 27 0
BBX 20 35 4 -11
BITMAP
E1FF00
E7FF80
EFFFC0
FF07E0
FC01E0
F801F0
F800F0
F000F0
F000F0
F000F0
F000F0
F000F0
F000F0
F000F0
F000F0
F000F0
F000F0
F000F0
F000F0
F000F0
F000F0
F000F0
F000F0
F000F0
0000F0
0000F0
0000F0
0000F0
0000F0
0000F0
0001F0
003FE0
003FE0
003FC0
000E00
ENDCHAR
STARTCHAR 014C
ENCODING 332
SWIDTH 765 0
DWIDTH 34 0
BBX 29 38 3 0
BITMAP
00FFF800
00FFF800
00FFF800
00000000
00000000
00000000
007FF000
01FFFC00
07FFFE00
0FF07F80
1F800F80
3F0007C0
3E0003E0
7C0001E0
780001F0
780000F0
F80000F0
F00000F8
F00000F8
F0000078
F0000078
F0000078
F0000078
F0000078
F0000078
F0000078
F00000F8
F80000F0
780000F0
780001F0
7C0001E0
3C0003E0
3E0007C0
1F800FC0
0FE03F80
07FFFF00
03FFFC00
00FFF000
ENDCHAR
STARTCHAR 014D
ENCODING 333
SWIDTH 585 0
DWIDTH 26 0
BBX 22 30 2 0
BITMAP
07FFC0
07FFC0
07FFC0
000000
000000
000000
01FF00
07FFC0
0FFFE0
1F83F0
3E00F8
3C0078
7C007C
78003C
78003C
78003C
F8003C
F0003C
F0003C
F8003C
78003C
78003C
78003C
78007C
3C0078
3E00F8
1F01F0
0FFFE0
07FFC0
01FF00
ENDCHAR
STARTCHAR 014E
ENCODING 334
SWIDTH 765 0
DWIDTH 34 0
BBX 29 41 3 0
BITMAP
01C01800
00C03800
00E07800
00FFF000
007FE000
001FC000
00000000
00000000
00000000
007FF000
01FFFC00
07FFFE00
0FF07F80
1F800F80
3F0007C0
3E0003E0
7C0001E0
780001F0
780000F0
F80000F0
F00000F8
F00000F8
F0000078
F0000078
F0000078
F0000078
F0000078
F0000078
F0000078
F00000F8
F80000F0
780000F0
780001F0
7C0001E0
3C0003E0
3E0007C0
1F800FC0
0FE03F80
07FFFF00
03FFFC00
00FFF000
ENDCHAR
STARTCHAR 014F
ENCODING 335
SWIDTH 585 0
DWIDTH 26 0
BBX 22 33 2 0
BITMAP
0600C0
0601C0
0783C0
03FF80
03FF00
00FE00
000000
000000
000000
01FF00
07FFC0
0FFFE0
1F83F0
3E00F8
3C0078
7C007C
78003C
78003C
78003C
F8003C
F0003C
F0003C
F8003C
78003C
78003C
78003C
78007C
3C0078
3E00F8
1F01F0
0FFFE0
07FFC0
01FF00
ENDCHAR
STARTCHAR 0150
ENCODING 336
SWIDTH 765 0
DWIDTH 34 0
BBX 29 42 3 0
BITMAP
003E3C00
007C7C00
00787800
00F0F000
00E0E000
01C1C000
03838000
00000000
00000000
00000000
007FF000
01FFFC00
07FFFE00
0FF07F80
1F800F80
3F0007C0
3E0003E0
7C0001E0
780001F0
780000F0
F80000F0
F00000F8
F00000F8
F0000078
F0000078
F0000078
F0000078
F0000078
F0000078
F0000078
F00000F8
F80000F0
780000F0
780001F0
7C0001E0
3C0003E0
3E0007C0
1F800FC0
0FE03F80
07FFFF00
03FFFC00
00FFF000
ENDCHAR
STARTCHAR 0151
ENCODING 337
SWIDTH 585 0
DWIDTH 26 0
BBX 22 34 2 0
BITMAP
01F1E0
01E3E0
03C3C0
078780
070700
0E0E00
1C1C00
000000
000000
000000
01FF00
07FFC0
0FFFE0
1F83F0
3E00F8
3C0078
7C007C
78003C
78003C
78003C
F8003C
F0003C
F0003C
F8003C
78003C
78003C
78003C
78007C
3C0078
3E00F8
1F01F0
0FFFE0
07FFC0
01FF00
ENDCHAR
STARTCHAR 0152
ENCODING 338
SWIDTH 922 0
DWIDTH 41 0
BBX 36 32 3 0
BITMAP
007FFFFFF0
01FFFFFFF0
07FFFFFFF0
0FF07FFFF0
1F801E0000
3F001E0000
3E001E0000
7C001E0000
78001E0000
78001E0000
F8001E0000
F0001E0000
F0001E0000
F0001E0000
F0001FFFE0
F0001FFFE0
F0001FFFE0
F0001E0000
F0001E0000
F0001E0000
F0001E0000
F8001E0000
78001E0000
78001E0000
7C001E0000
3C001E0000
3E001E0000
1F801E0000
0FE03FFFF0
07FFFFFFF0
03FFFFFFF0
00FFFFFFF0
ENDCHAR
STARTCHAR 0153
ENCODING 339
SWIDTH 945 0
DWIDTH 42 0
BBX 38 24 2 0
BITMAP
01FE00FF00
07FF81FFC0
0FFFC7FFE0
1F03E7C1F0
3E01FF00F0
3C00FE0078
78007E0078
78007C0078
78003C003C
78003C003C
F8003FFFFC
F0003FFFFC
F0003FFFFC
F8003C0000
78003C0000
78003C0000
78007C0000
78007E0000
3C007E0000
3E00FF0000
1F03E7C038
0FFFE7FFF8
07FF81FFF8
01FF00FFE0
ENDCHAR
STARTCHAR 0154
ENCODING 340
SWIDTH 607 0
DWIDTH 27 0
BBX 23 42 4 0
BITMAP
001F00
001F00
003E00
003C00
007800
00F000
00E000
000000
000000
000000
FFF800
FFFF00
FFFFC0
FFFFE0
F003E0
F001F0
F000F0
F000F0
F000F8
F000F8
F000F8
F000F0
F000F0
F001F0
F003E0
F07FC0
FFFF80
FFFE00
FFFE00
F01E00
F00F00
F00F80
F00780
F007C0
F003C0
F003E0
F001F0
F000F0
F000F8
F00078
F0007C
F0003E
ENDCHAR
STARTCHAR 0155
ENCODING 341
SWIDTH 405 0
DWIDTH 18 0
BBX 14 34 4 0
BITMAP
00F8
00F0
01F0
03E0
03C0
0780
0F00
0000
0000
0000
E0FC
E3FC
E7F8
EF80
EE00
FC00
F800
F000
F000
F000
F000
F000
F000
F000
F000
F000
F000
F000
F000
F000
F000
F000
F000
F000
ENDCHAR
STARTCHAR 0156
ENCODING 342
SWIDTH 607 0
DWIDTH 27 0
BBX 23 42 4 -10
BITMAP
FFF800
FFFF00
FFFFC0
FFFFE0
F003E0
F001F0
F000F0
F000F0
F000F8
F000F8
F000F8
F000F0
F000F0
F001F0
F003E0
F07FC0
FFFF80
FFFE00
FFFE00
F01E00
F00F00
F00F80
F00780
F007C0
F003C0
F003E0
F001F0
F000F0
F000F8
F00078
F0007C
F0003E
000000
000000
000000
007800
007800
007800
007000
00E000
00E000
00C000
ENDCHAR
STARTCHAR 0157
ENCODING 343
SWIDTH 405 0
DWIDTH 18 0
BBX 15 34 3 -10
BITMAP
707E
71FE
73FC
77C0
7700
7E00
7C00
7800
7800
7800
7800
7800
7800
7800
7800
7800
7800
7800
7800
7800
7800
7800
7800
7800
0000
0000
0000
7800
7800
7800
7000
E000
E000
C000
ENDCHAR
STARTCHAR 0158
ENCODING 344
SWIDTH 607 0
DWIDTH 27 0
BBX 23 42 4 0
BITMAP
3C0380
1E0700
0F1F00
07BE00
03FC00
01F800
01F000
000000
000000
000000
FFF800
FFFF00
FFFFC0
FFFFE0
F003E0
F001F0
F000F0
F000F0
F000F8
F000F8
F000F8
F000F0
F000F0
F001F0
F003E0
F07FC0
FFFF80
FFFE00
FFFE00
F01E00
F00F00
F00F80
F00780
F007C0
F003C0
F003E0
F001F0
F000F0
F000F8
F00078
F0007C
F0003E
ENDCHAR
STARTCHAR 0159
ENCODING 345
SWIDTH 405 0
DWIDTH 18 0
BBX 15 34 3 0
BITMAP
F00E
783C
3C78
1EF0
0FF0
07E0
07C0
0000
0000
0000
707E
71FE
73FC
77C0
7700
7E00
7C00
7800
7800
7800
7800
7800
7800
7800
7800
7800
7800
7800
7800
7800
7800
7800
7800
7800
ENDCHAR
STARTCHAR 015A
ENCODING 346
SWIDTH 540 0
DWIDTH 24 0
BBX 20 42 2 0
BITMAP
000F80
000F80
001F00
003E00
003C00
007800
00F000
000000
000000
000000
03FF00
0FFFE0
1FFFE0
3F8FE0
7C0060
780000
780000
780000
780000
780000
780000
7C0000
3F0000
3FC000
0FF000
07FC00
01FF00
007FC0
000FE0
0003E0
0001F0
0000F0
0000F0
0000F0
0000F0
0000F0
0000F0
8001E0
F807E0
FFFFC0
FFFF80
3FFE00
ENDCHAR
STARTCHAR 015B
ENCODING 347
SWIDTH 472 0
DWIDTH 21 0
BBX 17 34 2 0
BITMAP
003E00
003C00
007C00
00F800
00F000
01E000
03C000
000000
000000
000000
0FFE00
1FFF80
7FFF00
7C0700
F00000
F00000
F00000
F80000
7C0000
7F0000
3FE000
0FF800
03FE00
00FF00
001F80
000F80
000780
000780
000780
800780
E00F80
FFFF00
FFFE00
3FF800
ENDCHAR
STARTCHAR 015C
ENCODING 348
SWIDTH 540 0
DWIDTH 24 0
BBX 20 42 2 0
BITMAP
00F800
00FC00
01FC00
03DE00
078F00
0F0780
1E03C0
000000
000000
000000
03FF00
0FFFE0
1FFFE0
3F8FE0
7C0060
780000
780000
780000
780000
780000
780000
7C0000
3F0000
3FC000
0FF000
07FC00
01FF00
007FC0
000FE0
0003E0
0001F0
0000F0
0000F0
0000F0
0000F0
0000F0
0000F0
8001E0
F807E0
FFFFC0
FFFF80
3FFE00
ENDCHAR
STARTCHAR 015D
ENCODING 349
SWIDTH 472 0
DWIDTH 21 0
BBX 17 34 2 0
BITMAP
03E000
03F000
07F000
0F7800
1E3C00
3C1E00
780700
000000
000000
000000
0FFE00
1FFF80
7FFF00
7C0700
F00000
F00000
F00000
F80000
7C0000
7F0000
3FE000
0FF800
03FE00
00FF00
001F80
000F80
000780
000780
000780
800780
E00F80
FFFF00
FFFE00
3FF800
ENDCHAR
STARTCHAR 015E
ENCODING 350
SWIDTH 540 0
DWIDTH 24 0
BBX 20 43 2 -11
BITMAP
03FF00
0FFFE0
1FFFE0
3F8FE0
7C0060
780000
780000
780000
780000
780000
780000
7C0000
3F0000
3FC000
0FF000
07FC00
01FF00
007FC0
000FE0
0003E0
0001F0
0000F0
0000F0
0000F0
0000F0
0000F0
0000F0
8001E0
F807E0
FFFFC0
FFFF80
3FFE00
00E000
00C000
01C000
01F800
007800
003C00
001C00
003C00
07F800
07F000
038000
ENDCHAR
STARTCHAR 015F
ENCODING 351
SWIDTH 472 0
DWIDTH 21 0
BBX 17 35 2 -11
BITMAP
0FFE00
1FFF80
7FFF00
7C0700
F00000
F00000
F00000
F80000
7C0000
7F0000
3FE000
0FF800
03FE00
00FF00
001F80
000F80
000780
000780
000780
800780
E00F80
FFFF00
FFFE00
3FF800
01C000
01C000
03C000
03F000
00F800
003800
003800
007800
0FF000
0FE000
0F0000
ENDCHAR
STARTCHAR 0160
ENCODING 352
SWIDTH 540 0
DWIDTH 24 0
BBX 20 42 2 0
BITMAP
1C01C0
0F0780
078F00
03DE00
01FE00
01FC00
00F800
000000
000000
000000
03FF00
0FFFE0
1FFFE0
3F8FE0
7C0060
780000
780000
780000
780000
780000
780000
7C0000
3F0000
3FC000
0FF000
07FC00
01FF00
007FC0
000FE0
0003E0
0001F0
0000F0
0000F0
0000F0
0000F0
0000F0
0000F0
8001E0
F807E0
FFFFC0
FFFF80
3FFE00
ENDCHAR
STARTCHAR 0161
ENCODING 353
SWIDTH 472 0
DWIDTH 21 0
BBX 17 34 2 0
BITMAP
780700
3C1E00
1E3C00
0F7800
07F800
03F000
03E000
000000
000000
000000
0FFE00
1FFF80
7FFF00
7C0700
F00000
F00000
F00000
F80000
7C0000
7F0000
3FE000
0FF800
03FE00
00FF00
001F80
000F80
000780
000780
000780
800780
E00F80
FFFF00
FFFE00
3FF800
ENDCHAR
STARTCHAR 0162
ENCODING 354
SWIDTH 540 0
DWIDTH 24 0
BBX 24 43 0 -11
BITMAP
FFFFFF
FFFFFF
FFFFFF
FFFFFF
003C00
003C00
003C00
003C00
003C00
003C00
003C00
003C00
003C00
003C00
003C00
003C00
003C00
003C00
003C00
003C00
003C00
003C00
003C00
003C00
003C00
003C00
003C00
003C00
003C00
003C00
003C00
003C00
001C00
001800
003C00
003F00
000F00
000780
000380
000780
00FF00
00FE00
007000
ENDCHAR
STARTCHAR 0163
ENCODING 355
SWIDTH 360 0
DWIDTH 16 0
BBX 14 40 1 -11
BITMAP
0E00
0E00
0E00
0E00
1E00
3FFC
FFFC
FFFC
1E00
1E00
1E00
1E00
1E00
1E00
1E00
1E00
1E00
1E00
1E00
1E00
1E00
1E00
1E00
1E00
1F00
0F00
0FFC
07FC
03FC
01C0
01C0
03C0
03F0
00F8
0038
0038
0078
0FF0
0FE0
0700
ENDCHAR
STARTCHAR 0164
ENCODING 356
SWIDTH 540 0
DWIDTH 24 0
BBX 24 42 0 0
BITMAP
0700F0
0381E0
01E3C0
01F780
00FF00
007E00
003E00
000000
000000
000000
FFFFFF
FFFFFF
FFFFFF
FFFFFF
003C00
003C00
003C00
003C00
003C00
003C00
003C00
003C00
003C00
003C00
003C00
003C00
003C00
003C00
003C00
003C00
003C00
003C00
003C00
003C00
003C00
003C00
003C00
003C00
003C00
003C00
003C00
003C00
ENDCHAR
STARTCHAR 0165
ENCODING 357
SWIDTH 360 0
DWIDTH 16 0
BBX 20 34 1 0
BITMAP
0000F0
0000F0
0000E0
0001E0
0001C0
0E01C0
0E0180
0E0000
0E0000
1E0000
3FFC00
FFFC00
FFFC00
1E0000
1E0000
1E0000
1E0000
1E0000
1E0000
1E0000
1E0000
1E0000
1E0000
1E0000
1E0000
1E0000
1E0000
1E0000
1E0000
1F0000
0F0000
0FFC00
07FC00
03FC00
ENDCHAR
STARTCHAR 0166
ENCODING 358
SWIDTH 540 0
DWIDTH 24 0
BBX 24 32 0 0
BITMAP
FFFFFF
FFFFFF
FFFFFF
FFFFFF
003C00
003C00
003C00
003C00
003C00
003C00
003C00
003C00
003C00
003C00
0FFFF8
0FFFF8
0FFFF8
0FFFF8
003C00
003C00
003C00
003C00
003C00
003C00
003C00
003C00
003C00
003C00
003C00
003C00
003C00
003C00
ENDCHAR
STARTCHAR 0167
ENCODING 359
SWIDTH 360 0
DWIDTH 16 0
BBX 14 29 1 0
BITMAP
0E00
0E00
0E00
0E00
1E00
3FFC
FFFC
FFFC
1E00
1E00
1E00
1E00
1E00
1E00
FFF8
FFF8
FFF8
1E00
1E00
1E00
1E00
1E00
1E00
1E00
1F00
0F00
0FFC
07FC
03FC
ENDCHAR
STARTCHAR 0168
ENCODING 360
SWIDTH 720 0
DWIDTH 32 0
BBX 24 41 4 0
BITMAP
004030
03F030
07FC70
07FFF0
0E1FE0
0E07C0
000000
000000
000000
F0000F
F0000F
F0000F
F0000F
F0000F
F0000F
F0000F
F0000F
F0000F
F0000F
F0000F
F0000F
F0000F
F0000F
F0000F
F0000F
F0000F
F0000F
F0000F
F0000F
F0000F
F0000F
F0000F
F0000F
F8000F
78001F
7C001E
3E003E
3F80FC
1FFFF8
07FFF0
03FFC0
ENDCHAR
STARTCHAR 0169
ENCODING 361
SWIDTH 607 0
DWIDTH 27 0
BBX 20 33 4 0
BITMAP
0700C0
0FC1C0
1FF380
3FFF80
307F00
301E00
000000
000000
000000
E000F0
E000F0
E000F0
E000F0
E000F0
E000F0
E000F0
E000F0
E000F0
E000F0
E000F0
E000F0
E000F0
E000F0
E000F0
E000F0
E001F0
F001F0
F001F0
F803F0
FC0FF0
7FFEF0
3FFCF0
1FF8F0
ENDCHAR
STARTCHAR 016A
ENCODING 362
SWIDTH 720 0
DWIDTH 32 0
BBX 24 38 4 0
BITMAP
03FFE0
03FFE0
03FFE0
000000
000000
000000
F0000F
F0000F
F0000F
F0000F
F0000F
F0000F
F0000F
F0000F
F0000F
F0000F
F0000F
F0000F
F0000F
F0000F
F0000F
F0000F
F0000F
F0000F
F0000F
F0000F
F0000F
F0000F
F0000F
F0000F
F8000F
78001F
7C001E
3E003E
3F80FC
1FFFF8
07FFF0
03FFC0
ENDCHAR
STARTCHAR 016B
ENCODING 363
SWIDTH 607 0
DWIDTH 27 0
BBX 20 30 4 0
BITMAP
1FFF00
1FFF00
1FFF00
000000
000000
000000
E000F0
E000F0
E000F0
E000F0
E000F0
E000F0
E000F0
E000F0
E000F0
E000F0
E000F0
E000F0
E000F0
E000F0
E000F0
E000F0
E001F0
F001F0
F001F0
F803F0
FC0FF0
7FFEF0
3FFCF0
1FF8F0
ENDCHAR
STARTCHAR 016C
ENCODING 364
SWIDTH 720 0
DWIDTH 32 0
BBX 24 41 4 0
BITMAP
070060
0700E0
0381E0
03FFC0
01FF80
007F00
000000
000000
000000
F0000F
F0000F
F0000F
F0000F
F0000F
F0000F
F0000F
F0000F
F0000F
F0000F
F0000F
F0000F
F0000F
F0000F
F0000F
F0000F
F0000F
F0000F
F0000F
F0000F
F0000F
F0000F
F0000F
F0000F
F8000F
78001F
7C001E
3E003E
3F80FC
1FFFF8
07FFF0
03FFC0
ENDCHAR
STARTCHAR 016D
ENCODING 365
SWIDTH 607 0
DWIDTH 27 0
BBX 20 33 4 0
BITMAP
180380
1C0300
1E0F00
0FFE00
07FE00
03F800
000000
000000
000000
E000F0
E000F0
E000F0
E000F0
E000F0
E000F0
E000F0
E000F0
E000F0
E000F0
E000F0
E000F0
E000F0
E000F0
E000F0
E000F0
E001F0
F001F0
F001F0
F803F0
FC0FF0
7FFEF0
3FFCF0
1FF8F0
ENDCHAR
STARTCHAR 016E
ENCODING 366
SWIDTH 720 0
DWIDTH 32 0
BBX 24 44 4 0
BITMAP
007E00
00FF00
00E380
01C180
01C180
01C180
00E380
00FF00
007E00
000000
000000
000000
F0000F
F0000F
F0000F
F0000F
F0000F
F0000F
F0000F
F0000F
F0000F
F0000F
F0000F
F0000F
F0000F
F0000F
F0000F
F0000F
F0000F
F0000F
F0000F
F0000F
F0000F
F0000F
F0000F
F0000F
F8000F
78001F
7C001E
3E003E
3F80FC
1FFFF8
07FFF0
03FFC0
ENDCHAR
STARTCHAR 016F
ENCODING 367
SWIDTH 607 0
DWIDTH 27 0
BBX 20 36 4 0
BITMAP
01F800
03FC00
071C00
060E00
060E00
060C00
071C00
03FC00
01F000
000000
000000
000000
E000F0
E000F0
E000F0
E000F0
E000F0
E000F0
E000F0
E000F0
E000F0
E000F0
E000F0
E000F0
E000F0
E000F0
E000F0
E000F0
E001F0
F001F0
F001F0
F803F0
FC0FF0
7FFEF0
3FFCF0
1FF8F0
ENDCHAR
STARTCHAR 0170
ENCODING 368
SWIDTH 720 0
DWIDTH 32 0
BBX 24 42 4 0
BITMAP
00F0F0
01F1F0
01E1E0
03C3C0
038780
070700
0E0E00
000000
000000
000000
F0000F
F0000F
F0000F
F0000F
F0000F
F0000F
F0000F
F0000F
F0000F
F0000F
F0000F
F0000F
F0000F
F0000F
F0000F
F0000F
F0000F
F0000F
F0000F
F0000F
F0000F
F0000F
F0000F
F0000F
F8000F
78001F
7C001E
3E003E
3F80FC
1FFFF8
07FFF0
03FFC0
ENDCHAR
STARTCHAR 0171
ENCODING 369
SWIDTH 607 0
DWIDTH 27 0
BBX 20 34 4 0
BITMAP
07C7C0
078780
0F0F00
0F1E00
1E1C00
3C3800
383000
000000
000000
000000
E000F0
E000F0
E000F0
E000F0
E000F0
E000F0
E000F0
E000F0
E000F0
E000F0
E000F0
E000F0
E000F0
E000F0
E000F0
E000F0
E001F0
F001F0
F001F0
F803F0
FC0FF0
7FFEF0
3FFCF0
1FF8F0
ENDCHAR
STARTCHAR 0172
ENCODING 370
SWIDTH 720 0
DWIDTH 32 0
BBX 24 42 4 -10
BITMAP
F0000F
F0000F
F0000F
F0000F
F0000F
F0000F
F0000F
F0000F
F0000F
F0000F
F0000F
F0000F
F0000F
F0000F
F0000F
F0000F
F0000F
F0000F
F0000F
F0000F
F0000F
F0000F
F0000F
F0000F
F8000F
78001F
7C001E
3E003E
3F80FC
1FFFF8
07FFF0
03FFE0
0001C0
0001C0
000380
000380
000380
000380
000380
0003F8
0001F8
0000F0
ENDCHAR
STARTCHAR 0173
ENCODING 371
SWIDTH 607 0
DWIDTH 27 0
BBX 20 34 4 -10
BITMAP
E000F0
E000F0
E000F0
E000F0
E000F0
E000F0
E000F0
E000F0
E000F0
E000F0
E000F0
E000F0
E000F0
E000F0
E000F0
E000F0
E001F0
F001F0
F001F0
F803F0
FC0FF0
7FFEF0
3FFCF0
1FF8F0
0001C0
000380
000380
000700
000700
000700
000700
0007F0
0003F0
0001F0
ENDCHAR
STARTCHAR 0174
ENCODING 372
SWIDTH 922 0
DWIDTH 41 0
BBX 40 42 1 0
BITMAP
00007C0000
00007E0000
0000FE0000
0001EF0000
0003C78000
000783C000
000F01E000
0000000000
0000000000
0000000000
F0007C000F
F0007C001E
F0007C001E
F800FE001E
7800FE003E
7800EE003C
7800EE003C
7C01EF003C
3C01EF007C
3C01C70078
3C03C78078
1E03C78078
1E03C780F8
1E0383C0F0
1E0783C0F0
0F0783C0F0
0F0701C1E0
0F0F01E1E0
0F0F01E1E0
078F00E1E0
078E00F3C0
079E00F3C0
079E00F3C0
03DC0073C0
03DC007B80
03FC007F80
03FC003F80
01F8003F80
01F8003F00
01F8001F00
00F0001F00
00F0001E00
ENDCHAR
STARTCHAR 0175
ENCODING 373
SWIDTH 765 0
DWIDTH 34 0
BBX 33 34 1 0
BITMAP
0003E00000
0007E00000
0007F00000
000F780000
001E3C0000
003C1E0000
00700F0000
0000000000
0000000000
0000000000
F003E00780
F003E00780
F003E00780
F007F00780
7807700F00
7807700F00
780F780F00
780F781E00
3C0E381E00
3C1E3C1E00
3C1E3C1E00
1C1C3C3C00
1E3C1C3C00
1E3C1E3C00
1E381E3800
0E380E7800
0F780F7800
0F780F7800
0770077000
0770077000
07F007F000
07E007F000
03E003E000
03E003E000
ENDCHAR
STARTCHAR 0176
ENCODING 374
SWIDTH 562 0
DWIDTH 25 0
BBX 25 42 0 0
BITMAP
003E0000
003E0000
007F0000
00F78000
01E3C000
03C1E000
0780F000
00000000
00000000
00000000
F0000780
78000F80
7C000F00
3C001E00
3E001E00
1E003C00
1F003C00
0F007800
0F80F800
0780F000
03C1F000
03C1E000
01E3E000
01E3C000
00F78000
00F78000
007F0000
007F0000
003E0000
003E0000
001E0000
001E0000
001E0000
001E0000
001E0000
001E0000
001E0000
001E0000
001E0000
001E0000
001E0000
001E0000
ENDCHAR
STARTCHAR 0177
ENCODING 375
SWIDTH 495 0
DWIDTH 22 0
BBX 23 45 0 -11
BITMAP
007C00
00FC00
01FE00
01EF00
03C780
0783C0
0E01E0
000000
000000
000000
F0003E
78003C
78003C
780078
3C0078
3C0078
1E00F0
1E00F0
1E01F0
0F01E0
0F01E0
0783C0
0783C0
0783C0
03C780
03C780
01C700
01EF00
01EF00
00EE00
00FE00
007E00
007C00
007C00
007800
007800
007800
00F000
00F000
01E000
03E000
FFC000
FF8000
FF0000
3C0000
ENDCHAR
STARTCHAR 0178
ENCODING 376
SWIDTH 562 0
DWIDTH 25 0
BBX 25 40 0 0
BITMAP
01C1E000
03E1E000
03C1E000
01C1C000
00000000
00000000
00000000
00000000
F0000780
78000F80
7C000F00
3C001E00
3E001E00
1E003C00
1F003C00
0F007800
0F80F800
0780F000
03C1F000
03C1E000
01E3E000
01E3C000
00F78000
00F78000
007F0000
007F0000
003E0000
003E0000
001E0000
001E0000
001E0000
001E0000
001E0000
001E0000
001E0000
001E0000
001E0000
001E0000
001E0000
001E0000
ENDCHAR
STARTCHAR 0179
ENCODING 377
SWIDTH 562 0
DWIDTH 25 0
BBX 22 42 2 0
BITMAP
000780
000F80
001F00
001E00
003C00
007800
007000
000000
000000
000000
FFFFF8
FFFFF8
FFFFF8
FFFFF8
0000F0
0001F0
0001E0
0003C0
0007C0
000780
000F00
001F00
001E00
003C00
007C00
007800
00F000
01F000
01E000
03C000
07C000
078000
0F0000
1F0000
1E0000
3C0000
7C0000
780000
FFFFFC
FFFFFC
FFFFFC
FFFFFC
ENDCHAR
STARTCHAR 017A
ENCODING 378
SWIDTH 450 0
DWIDTH 20 0
BBX 17 34 2 0
BITMAP
003E00
007C00
007800
00F000
00E000
01E000
038000
000000
000000
000000
FFFF80
FFFF80
FFFF80
000F80
000F00
001E00
003C00
007C00
007800
00F000
01F000
01E000
03C000
07C000
078000
0F0000
1E0000
3E0000
3C0000
780000
F80000
FFFF80
FFFF80
FFFF80
ENDCHAR
STARTCHAR 017B
ENCODING 379
SWIDTH 562 0
DWIDTH 25 0
BBX 22 41 2 0
BITMAP
003000
007800
007800
007800
007800
000000
000000
000000
000000
FFFFF8
FFFFF8
FFFFF8
FFFFF8
0000F0
0001F0
0001E0
0003C0
0007C0
000780
000F00
001F00
001E00
003C00
007C00
007800
00F000
01F000
01E000
03C000
07C000
078000
0F0000
1F0000
1E0000
3C0000
7C0000
780000
FFFFFC
FFFFFC
FFFFFC
FFFFFC
ENDCHAR
STARTCHAR 017C
ENCODING 380
SWIDTH 450 0
DWIDTH 20 0
BBX 17 33 2 0
BITMAP
01C000
03E000
03E000
03E000
01C000
000000
000000
000000
000000
FFFF80
FFFF80
FFFF80
000F80
000F00
001E00
003C00
007C00
007800
00F000
01F000
01E000
03C000
07C000
078000
0F0000
1E0000
3E0000
3C0000
780000
F80000
FFFF80
FFFF80
FFFF80
ENDCHAR
STARTCHAR 017D
ENCODING 381
SWIDTH 562 0
DWIDTH 25 0
BBX 22 42 2 0
BITMAP
1E01C0
0F03C0
078780
03DF00
01FE00
00FC00
00F800
000000
000000
000000
FFFFF8
FFFFF8
FFFFF8
FFFFF8
0000F0
0001F0
0001E0
0003C0
0007C0
000780
000F00
001F00
001E00
003C00
007C00
007800
00F000
01F000
01E000
03C000
07C000
078000
0F0000
1F0000
1E0000
3C0000
7C0000
780000
FFFFFC
FFFFFC
FFFFFC
FFFFFC
ENDCHAR
STARTCHAR 017E
ENCODING 382
SWIDTH 450 0
DWIDTH 20 0
BBX 17 34 2 0
BITMAP
700F00
3C1E00
1E3C00
0F7800
0FF000
07E000
03E000
000000
000000
000000
FFFF80
FFFF80
FFFF80
000F80
000F00
001E00
003C00
007C00
007800
00F000
01F000
01E000
03C000
07C000
078000
0F0000
1E0000
3E0000
3C0000
780000
F80000
FFFF80
FFFF80
FFFF80
ENDCHAR
STARTCHAR 017F
ENCODING 383
SWIDTH 315 0
DWIDTH 14 0
BBX 12 34 4 0
BITMAP
0FE0
3FF0
7FF0
7C60
F800
F000
F000
F000
F000
F000
F000
F000
F000
F000
F000
F000
F000
F000
F000
F000
F000
F000
F000
F000
F000
F000
F000
F000
F000
F000
F000
F000
F000
F000
ENDCHAR
STARTCHAR 0180
ENCODING 384
SWIDTH 607 0
DWIDTH 27 0
BBX 25 34 0 0
BITMAP
0F000000
0F000000
0F000000
0F000000
FFFF8000
FFFF8000
FFFF8000
0F000000
0F000000
0F000000
0F1FE000
0F7FF800
0FFFFC00
0FE07E00
0FC03E00
0F801F00
0F800F00
0F000F00
0F000780
0F000780
0F000780
0F000780
0F000780
0F000780
0F000780
0F000780
0F000F00
0F000F00
0F801F00
0FC01E00
0FE07E00
0EFFFC00
0E7FF800
0E1FE000
ENDCHAR
STARTCHAR 0181
ENCODING 385
SWIDTH 720 0
DWIDTH 32 0
BBX 30 32 0 0
BITMAP
07FFF000
3FFFFF80
7FFFFFE0
7FFFFFF0
70F003F0
F0F000F8
F0F000F8
70F00078
00F00078
00F00078
00F00078
00F000F0
00F001F0
00F007E0
00FFFF80
00FFFE00
00FFFFE0
00F003F0
00F000F8
00F00078
00F0007C
00F0003C
00F0003C
00F0003C
00F0003C
00F0007C
00F00078
00F001F8
00F01FF0
00FFFFE0
00FFFFC0
00FFFE00
ENDCHAR
STARTCHAR 0182
ENCODING 386
SWIDTH 607 0
DWIDTH 27 0
BBX 21 32 4 0
BITMAP
FFFFE0
FFFFE0
FFFFE0
FFFFE0
F00000
F00000
F00000
F00000
F00000
F00000
F00000
F00000
F00000
F00000
FFFE00
FFFFC0
FFFFE0
F007F0
F001F0
F000F8
F00078
F00078
F00078
F00078
F00078
F000F8
F000F0
F001F0
F03FE0
FFFFC0
FFFF80
FFFE00
ENDCHAR
STARTCHAR 0183
ENCODING 387
SWIDTH 607 0
DWIDTH 27 0
BBX 21 34 4 0
BITMAP
FFFFC0
FFFFC0
FFFFC0
FFFFC0
F00000
F00000
F00000
F00000
F00000
F00000
F1FE00
F7FF80
FFFFC0
FE07E0
FC03E0
F801F0
F800F0
F000F0
F00078
F00078
F00078
F00078
F00078
F00078
F00078
F00078
F000F0
F000F0
F801F0
FC01E0
FE07E0
EFFFC0
E7FF80
E1FE00
ENDCHAR
STARTCHAR 0184
ENCODING 388
SWIDTH 630 0
DWIDTH 28 0
BBX 22 32 4 0
BITMAP
F00000
F00000
F00000
F00000
F00000
F00000
F00000
F00000
F00000
F00000
F00000
F00000
F00000
F00000
FFFF00
FFFFC0
FFFFE0
F007F0
F000F8
F00078
F0007C
F0003C
F0003C
F0003C
F0003C
F0007C
780078
7C00F8
7E03F0
3FFFF0
1FFFC0
07FF80
ENDCHAR
STARTCHAR 0185
ENCODING 389
SWIDTH 607 0
DWIDTH 27 0
BBX 21 34 4 0
BITMAP
F00000
F00000
F00000
F00000
F00000
F00000
F00000
F00000
F00000
F00000
F1FE00
E7FF80
EFFFC0
FE07E0
FC03E0
F801F0
F000F0
F000F0
F000F0
F00078
F00078
F00078
F00078
F00078
F00078
F000F0
F000F0
F800F0
7801F0
7C01E0
3E07E0
1FFFC0
0FFF80
07FE00
ENDCHAR
STARTCHAR 0186
ENCODING 390
SWIDTH 630 0
DWIDTH 28 0
BBX 23 32 2 0
BITMAP
1FFC00
FFFF00
FFFFC0
FC3FE0
4003F0
0001F8
0000F8
00007C
00003C
00003C
00003E
00001E
00001E
00001E
00001E
00001E
00001E
00001E
00001E
00001E
00001E
00003E
00003C
00003C
00007C
0000F8
0001F8
0003F0
700FE0
7FFFC0
7FFF00
3FFC00
ENDCHAR
STARTCHAR 0187
ENCODING 391
SWIDTH 630 0
DWIDTH 28 0
BBX 28 38 3 0
BITMAP
000003F0
000007F0
000007F0
00000F10
00000F00
00000F00
003FFF00
01FFFF00
03FFFE00
0FF87E00
1FC00C00
1F000000
3E000000
3C000000
7C000000
78000000
F8000000
F0000000
F0000000
F0000000
F0000000
F0000000
F0000000
F0000000
F0000000
F0000000
F0000000
F8000000
78000000
78000000
7C000000
3E000000
3F000000
1F800000
0FE01C00
07FFFC00
03FFFC00
00FFFC00
ENDCHAR
STARTCHAR 0188
ENCODING 392
SWIDTH 495 0
DWIDTH 22 0
BBX 22 34 2 0
BITMAP
00007C
0000FC
0001FC
0001E4
0001C0
0003C0
0003C0
0003C0
0003C0
0003C0
01FFC0
07FFC0
0FFF80
1F8380
3E0000
3C0000
7C0000
780000
780000
780000
F80000
F00000
F00000
F80000
780000
780000
780000
780000
3C0000
3E0000
1F0180
1FFF80
07FF80
03FF80
ENDCHAR
STARTCHAR 0189
ENCODING 393
SWIDTH 720 0
DWIDTH 32 0
BBX 29 32 1 0
BITMAP
0FFE0000
0FFFF000
0FFFFC00
0FFFFF00
0F003F80
0F000FC0
0F0007C0
0F0003E0
0F0001E0
0F0001F0
0F0000F0
0F0000F0
0F0000F0
0F0000F8
0F0000F8
FFFF00F8
FFFF00F8
FFFF00F8
0F0000F8
0F0000F0
0F0000F0
0F0000F0
0F0001F0
0F0001E0
0F0003E0
0F0007C0
0F000FC0
0F003F80
0F07FF00
0FFFFC00
0FFFF000
0FFF8000
ENDCHAR
STARTCHAR 018A
ENCODING 394
SWIDTH 810 0
DWIDTH 36 0
BBX 33 32 0 0
BITMAP
07FFF00000
3FFFFF8000
7FFFFFE000
7FFFFFF000
70F003F800
F0F000FC00
F0F0003E00
70F0001E00
00F0001F00
00F0000F00
00F0000F80
00F0000780
00F0000780
00F0000780
00F0000780
00F0000780
00F0000780
00F0000780
00F0000780
00F0000780
00F0000780
00F0000F80
00F0000F00
00F0001F00
00F0001E00
00F0003E00
00F0007C00
00F001F800
00F07FF000
00FFFFE000
00FFFF8000
00FFFC0000
ENDCHAR
STARTCHAR 018B
ENCODING 395
SWIDTH 607 0
DWIDTH 27 0
BBX 21 32 2 0
BITMAP
3FFFF8
3FFFF8
3FFFF8
3FFFF8
000078
000078
000078
000078
000078
000078
000078
000078
000078
000078
01FFF8
07FFF8
1FFFF8
3F8078
7E0078
780078
780078
F80078
F00078
F80078
F80078
F80078
7C0078
7E0078
3FF078
1FFFF8
0FFFF8
01FFF8
ENDCHAR
STARTCHAR 018C
ENCODING 396
SWIDTH 607 0
DWIDTH 27 0
BBX 22 34 2 0
BITMAP
1FFFFC
1FFFFC
1FFFFC
1FFFFC
00003C
00003C
00003C
00003C
00003C
00003C
03FC3C
07FF3C
1FFFBC
1F03FC
3E01FC
3C00FC
7C007C
78007C
78007C
78003C
F8003C
F0003C
F0003C
F8003C
78003C
78007C
78007C
78007C
7C007C
3E00FC
3F03FC
1FFFBC
0FFF3C
03FE3C
ENDCHAR
STARTCHAR 018D
ENCODING 397
SWIDTH 585 0
DWIDTH 26 0
BBX 22 34 3 -10
BITMAP
01FE00
0FFF80
1FFFE0
3F03F0
3C01F0
7800F8
780078
F0007C
F0003C
F0003C
F0003C
F0003C
F0003C
F00078
780078
7800F8
3C00F0
3E01E0
1F87C0
0FDF80
03FE00
01FC00
007F00
001F80
000F80
0007C0
0003C0
0003C0
0003C0
3803C0
3E0F80
7FFF00
1FFE00
07FC00
ENDCHAR
STARTCHAR 018E
ENCODING 398
SWIDTH 540 0
DWIDTH 24 0
BBX 17 32 3 0
BITMAP
FFFF80
FFFF80
FFFF80
FFFF80
000780
000780
000780
000780
000780
000780
000780
000780
000780
000780
FFFF80
FFFF80
FFFF80
000780
000780
000780
000780
000780
000780
000780
000780
000780
000780
000780
FFFF80
FFFF80
FFFF80
FFFF80
ENDCHAR
STARTCHAR 018F
ENCODING 399
SWIDTH 720 0
DWIDTH 32 0
BBX 27 32 3 0
BITMAP
07FF8000
3FFFF000
3FFFF800
3F03FC00
30007E00
00001F00
00000F80
00000780
000007C0
000003C0
000003C0
000003E0
000001E0
000001E0
000001E0
FFFFFFE0
FFFFFFE0
FFFFFFE0
F00001E0
F00001E0
F00001E0
F00003C0
F00003C0
780003C0
780007C0
78000F80
3C001F80
3E003F00
1F80FE00
0FFFFC00
07FFF000
01FFE000
ENDCHAR
STARTCHAR 0190
ENCODING 400
SWIDTH 585 0
DWIDTH 26 0
BBX 22 32 2 0
BITMAP
01FF80
07FFF0
0FFFF8
1F80FC
1F0038
3E0008
3C0000
3C0000
3C0000
3C0000
3E0000
1E0000
1F0000
0FE000
03FFE0
00FFE0
07FFE0
1FE000
3E0000
7C0000
780000
780000
F80000
F80000
F80000
780000
7C0000
7E0004
3F803C
1FFFFC
0FFFFC
03FFF0
ENDCHAR
STARTCHAR 0191
ENCODING 401
SWIDTH 585 0
DWIDTH 26 0
BBX 26 43 -1 -11
BITMAP
007FFFC0
007FFFC0
007FFFC0
007FFFC0
00780000
00780000
00780000
00780000
00780000
00780000
00780000
00780000
00780000
00780000
007FFF80
007FFF80
007FFF80
00780000
00780000
00780000
00780000
00780000
00780000
00780000
00780000
00780000
00780000
00780000
00780000
00780000
00780000
00780000
00780000
00780000
40780000
F0780000
F0780000
F0780000
F8F80000
7FF00000
7FF00000
3FE00000
07000000
ENDCHAR
STARTCHAR 0192
ENCODING 402
SWIDTH 405 0
DWIDTH 18 0
BBX 21 45 -1 -11
BITMAP
0007F0
000FF8
001FF8
003E10
003C00
007800
007800
007800
007800
007800
00FFE0
07FFE0
07FFE0
007800
007800
007800
007800
007800
007800
007800
007800
007800
007800
007800
007800
007800
007800
007800
007800
007800
007800
007800
007800
007800
007800
007800
007800
607800
F07800
F07800
70F800
7FF000
3FF000
1FE000
070000
ENDCHAR
STARTCHAR 0193
ENCODING 403
SWIDTH 720 0
DWIDTH 32 0
BBX 30 38 3 0
BITMAP
0000007C
000001FC
000001FC
000003E0
000003C0
000003C0
001FFFC0
00FFFFC0
03FFFF80
07FC3F80
0FC00300
1F000000
3E000000
3C000000
7C000000
78000000
F8000000
F0000000
F0000000
F0000000
F0000000
F001FFC0
F001FFC0
F001FFC0
F001FFC0
F00003C0
F00003C0
F80003C0
780003C0
780003C0
7C0003C0
3E0003C0
3F0003C0
1F8003C0
0FF007C0
07FFFFC0
01FFFFC0
007FFF00
ENDCHAR
STARTCHAR 0194
ENCODING 404
SWIDTH 562 0
DWIDTH 25 0
BBX 25 43 0 -11
BITMAP
F0000780
F8000780
78000F00
78000F00
3C001F00
3C001E00
3E001E00
1E003E00
1E003C00
0F003C00
0F007800
0F007800
0780F800
0780F000
03C0F000
03C1E000
03C1E000
01E1E000
01E3C000
01E3C000
00F38000
00F78000
00778000
007F0000
007F0000
003F0000
003E0000
003E0000
003E0000
007F0000
007F0000
00778000
00F78000
00F38000
00E3C000
00E3C000
00E3C000
00E3C000
00F3C000
00FF8000
007F8000
007F0000
000C0000
ENDCHAR
STARTCHAR 0195
ENCODING 405
SWIDTH 922 0
DWIDTH 41 0
BBX 34 34 4 0
BITMAP
F000000000
F000000000
F000000000
F000000000
F000000000
F000000000
F000000000
F000000000
F000000000
F000000000
F1FE0003C0
F7FF0003C0
FFFF8003C0
FE0FC003C0
FC03C003C0
F803E003C0
F001E003C0
F001E003C0
F001E003C0
F001E003C0
F001E003C0
F001E003C0
F001E003C0
F001E003C0
F001E003C0
F001E003C0
F001E003C0
F001E003C0
F001E007C0
F001F00780
F000F80F80
F000FFFF00
F0007FFE00
F0001FFC00
ENDCHAR
STARTCHAR 0196
ENCODING 406
SWIDTH 337 0
DWIDTH 15 0
BBX 11 32 4 0
BITMAP
F000
F000
F000
F000
F000
F000
F000
F000
F000
F000
F000
F000
F000
F000
F000
F000
F000
F000
F000
F000
F000
F000
F000
F000
F000
F000
F000
F800
FC00
7FE0
3FE0
1FE0
ENDCHAR
STARTCHAR 0197
ENCODING 407
SWIDTH 337 0
DWIDTH 15 0
BBX 12 32 2 0
BITMAP
FFE0
FFE0
FFE0
0F00
0F00
0F00
0F00
0F00
0F00
0F00
0F00
0F00
0F00
0F00
FFF0
FFF0
FFF0
0F00
0F00
0F00
0F00
0F00
0F00
0F00
0F00
0F00
0F00
0F00
0F00
7FE0
FFE0
FFE0
ENDCHAR
STARTCHAR 0198
ENCODING 408
SWIDTH 607 0
DWIDTH 27 0
BBX 23 32 4 0
BITMAP
F0003E
F0007E
F000FE
F001F0
F003E0
F007C0
F00F80
F00F00
F01E00
F03C00
F07800
F0F800
F1F000
F1E000
F3E000
F7F000
FFF000
FEF800
FC7C00
F83E00
F01E00
F01F00
F00F80
F00780
F007C0
F003E0
F001F0
F000F0
F000F8
F0007C
F0003C
F0003E
ENDCHAR
STARTCHAR 0199
ENCODING 409
SWIDTH 517 0
DWIDTH 23 0
BBX 19 34 4 0
BITMAP
1F0000
7F0000
FF0000
F90000
F00000
F00000
F00000
F00000
F00000
F00000
F003C0
F00780
F00F00
F01F00
F03E00
F07C00
F0F800
F1F000
F3E000
F7C000
F78000
FFC000
FFE000
FDE000
F8F000
F0F800
F07C00
F03C00
F01E00
F01F00
F00F80
F00780
F003C0
F003E0
ENDCHAR
STARTCHAR 019A
ENCODING 410
SWIDTH 247 0
DWIDTH 11 0
BBX 10 34 1 0
BITMAP
1E00
1E00
1E00
1E00
1E00
1E00
1E00
1E00
1E00
1E00
1E00
1E00
1E00
1E00
1E00
FFC0
FFC0
FFC0
1E00
1E00
1E00
1E00
1E00
1E00
1E00
1E00
1E00
1E00
1E00
1E00
1E00
1E00
1E00
1E00
ENDCHAR
STARTCHAR 019B
ENCODING 411
SWIDTH 540 0
DWIDTH 24 0
BBX 24 34 0 0
BITMAP
3F0000
3FC000
3FC000
03E780
01FF80
03FF00
1FF800
0FF800
0E7800
003C00
003C00
003C00
007E00
007E00
00FE00
00EF00
01EF00
01E700
01C780
03C780
03C3C0
0783C0
0783C0
0F01E0
0F01E0
1E01E0
1E00F0
1E00F0
3C00F0
3C0078
780078
78003F
F0003F
F0001F
ENDCHAR
STARTCHAR 019C
ENCODING 412
SWIDTH 1012 0
DWIDTH 45 0
BBX 37 32 4 0
BITMAP
F000780078
F000780078
F000780078
F000780078
F000780078
F000780078
F000780078
F000780078
F000780078
F000780078
F000780078
F000780078
F000780078
F000780078
F000780078
F000780078
F000780078
F000780078
F000780078
F000780078
F000780078
F000780078
F000780078
F000F80078
F000F80078
F000F800F8
F801F800F8
7803FC01F8
7E07BF07B8
3FFF3FFFB8
3FFE1FFE38
0FF807FC38
ENDCHAR
STARTCHAR 019D
ENCODING 413
SWIDTH 742 0
DWIDTH 33 0
BBX 29 43 0 -11
BITMAP
0F800038
0FC00038
0FC00038
0FE00038
0FF00038
0FF00038
0FF80038
0F7C0038
0F3C0038
0F3E0038
0F1F0038
0F0F0038
0F0F8038
0F078038
0F03C038
0F03E038
0F01E038
0F01F038
0F00F838
0F007838
0F007C38
0F003E38
0F001E38
0F001F38
0F000FB8
0F0007B8
0F0007F8
0F0003F8
0F0001F8
0F0001F8
0F0000F8
0F0000F8
0F000000
0F000000
0F000000
0F000000
0F000000
0F000000
1F000000
FE000000
FE000000
FC000000
E0000000
ENDCHAR
STARTCHAR 019E
ENCODING 414
SWIDTH 607 0
DWIDTH 27 0
BBX 19 35 4 -11
BITMAP
E1FE00
E7FF80
EFFFC0
FF07C0
FC03E0
F801E0
F801E0
F001E0
F000E0
F000E0
F000E0
F000E0
F000E0
F000E0
F000E0
F000E0
F000E0
F000E0
F000E0
F000E0
F000E0
F000E0
F000E0
F000E0
0000E0
0000E0
0000E0
0000E0
0000E0
0000E0
0000E0
0000E0
0000E0
0000E0
0000E0
ENDCHAR
STARTCHAR 019F
ENCODING 415
SWIDTH 765 0
DWIDTH 34 0
BBX 29 32 3 0
BITMAP
007FF000
01FFFC00
07FFFE00
0FF07F80
1F800F80
3F0007C0
3E0003E0
7C0001E0
780001F0
780000F0
F80000F0
F00000F8
F00000F8
F0000078
FFFFFFF8
FFFFFFF8
FFFFFFF8
FFFFFFF8
F0000078
F0000078
F00000F8
F80000F0
780000F0
780001F0
7C0001E0
3C0003E0
3E0007C0
1F000FC0
0FE03F80
07FFFF00
03FFFC00
00FFF000
ENDCHAR
STARTCHAR 01A0
ENCODING 416
SWIDTH 765 0
DWIDTH 34 0
BBX 33 34 3 0
BITMAP
0000000F80
0000000F80
007FE00F00
01FFFC0F00
07FFFE0F00
0FF07F9E00
1F800FFC00
3F0007F800
3E0003F000
7C0001E000
780001F000
780000F000
F80000F000
F00000F800
F00000F800
F000007800
F000007800
F000007800
F000007800
F000007800
F000007800
F00000F800
F00000F800
F80000F000
780000F000
780001F000
7C0001E000
3C0003E000
3E0007C000
1F800FC000
0FE03F8000
07FFFF0000
03FFFC0000
00FFF00000
ENDCHAR
STARTCHAR 01A1
ENCODING 417
SWIDTH 607 0
DWIDTH 27 0
BBX 27 27 2 0
BITMAP
000003E0
000003C0
000003C0
01FF03C0
07FFC780
0FFFEF80
1F83FF00
3E00FC00
3C007800
78007C00
78003C00
78003C00
78003C00
F8003C00
F0003C00
F0003C00
F8003C00
78003C00
78003C00
78003C00
78003C00
3C007800
3E00F800
1F01F000
0FFFE000
07FFC000
01FF0000
ENDCHAR
STARTCHAR 01A2
ENCODING 418
SWIDTH 1057 0
DWIDTH 47 0
BBX 41 32 3 0
BITMAP
007FE00FF000
03FFF83FFC00
07FFFC7FFE00
0FE0FEF87F00
1F801FE01F00
3E000FC00F00
3C0007C00F80
7C0007C00780
780003C00780
780003E00780
F80001E00780
F00001E00780
F00001E00780
F00001E00780
F00001F00780
F00001F00780
F00001F00780
F00001F00780
F00001E00780
F00001E00780
F00001E00780
F80001E00780
F80003E00780
780003C00780
7C0003C00780
3C0007C00780
3E000F800780
1F001F000780
0FC07F000780
07FFFC000780
03FFF8000780
00FFE0000780
ENDCHAR
STARTCHAR 01A3
ENCODING 419
SWIDTH 832 0
DWIDTH 37 0
BBX 32 35 2 -11
BITMAP
01FE07F8
07FF8FFC
0FFFDFFE
1F07FC3E
3E01F01F
3C00F00F
7800F00F
7800780F
7800780F
7800780F
F800780F
F000780F
F000780F
F800780F
7800780F
7800780F
7800780F
7800F80F
3C00F00F
3E01F00F
1F03E00F
0FFFC00F
07FF800F
03FF000F
0000000F
0000000F
0000000F
0000000F
0000000F
0000000F
0000000F
0000000F
0000000F
0000000F
0000000F
ENDCHAR
STARTCHAR 01A4
ENCODING 420
SWIDTH 675 0
DWIDTH 30 0
BBX 28 32 0 0
BITMAP
07FFF000
3FFFFE00
7FFFFF80
7FFFFFC0
70F007E0
F0F003E0
F0F001F0
70F000F0
00F000F0
00F000F0
00F000F0
00F000F0
00F000F0
00F001E0
00F003E0
00F00FC0
00FFFF80
00FFFF00
00FFFC00
00FF8000
00F00000
00F00000
00F00000
00F00000
00F00000
00F00000
00F00000
00F00000
00F00000
00F00000
00F00000
00F00000
ENDCHAR
STARTCHAR 01A5
ENCODING 421
SWIDTH 607 0
DWIDTH 27 0
BBX 21 45 4 -11
BITMAP
1F0000
7F0000
FF0000
F90000
F00000
F00000
F00000
F00000
F00000
F00000
F1FE00
F7FF80
FFFFC0
FE07E0
FC03E0
F801F0
F000F0
F000F0
F000F8
F00078
F00078
F00078
F00078
F00078
F00078
F000F8
F000F0
F000F0
F801F0
FC01E0
FE07E0
EFFFC0
F7FF80
F1FE00
F00000
F00000
F00000
F00000
F00000
F00000
F00000
F00000
F00000
F00000
F00000
ENDCHAR
STARTCHAR 01A6
ENCODING 422
SWIDTH 607 0
DWIDTH 27 0
BBX 22 36 4 -4
BITMAP
F00000
F00000
F00000
F00000
F00000
FFFE00
FFFF80
FFFFC0
F00FE0
F001F0
F000F0
F000F0
F000F8
F000F8
F000F8
F000F0
F000F0
F000F0
F001E0
F007E0
FFFFC0
FFFF00
FFFC00
F01E00
F01F00
F00F00
F00F80
F007C0
F003C0
F003E0
F001E0
F001F0
0000F8
000078
00007C
00003C
ENDCHAR
STARTCHAR 01A7
ENCODING 423
SWIDTH 540 0
DWIDTH 24 0
BBX 20 32 2 0
BITMAP
07FC00
3FFF80
3FFFC0
1F9FE0
1803E0
0001F0
0000F0
0000F0
0000F0
0000F0
0000F0
0001F0
0007E0
001FC0
007F80
03FF00
0FFC00
1FF000
3F8000
7E0000
7C0000
F80000
F00000
F00000
F00000
F00000
780000
7C0010
3F01F0
3FFFF0
0FFFF0
03FFC0
ENDCHAR
STARTCHAR 01A8
ENCODING 424
SWIDTH 472 0
DWIDTH 21 0
BBX 17 24 2 0
BITMAP
1FF800
7FFE00
3FFF00
380F00
000780
000780
000780
000780
001F80
007F00
01FE00
0FF800
1FE000
7F8000
7E0000
F80000
F00000
F00000
F00000
F00000
780380
7FFF80
3FFF80
0FFF00
ENDCHAR
STARTCHAR 01A9
ENCODING 425
SWIDTH 562 0
DWIDTH 25 0
BBX 22 32 2 0
BITMAP
FFFFF8
FFFFF8
FFFFF8
FFFFF8
7C0000
3E0000
1F0000
1F0000
0F8000
07C000
03E000
01F000
00F800
00F800
007C00
003C00
007C00
007800
00F000
01E000
03E000
07C000
078000
0F0000
1E0000
3E0000
7C0000
780000
FFFFFC
FFFFFC
FFFFFC
FFFFFC
ENDCHAR
STARTCHAR 01AA
ENCODING 426
SWIDTH 337 0
DWIDTH 15 0
BBX 18 45 0 -11
BITMAP
3F0000
7F8000
FFC000
F3E000
E1E000
E1E000
F9E000
FFE000
7FE000
3FE000
01E000
01E000
01E000
01E000
01E000
01E000
01E000
01E000
01E000
01E000
01E000
01E000
01E000
01E000
01E000
01E000
01E000
01E000
01E000
01E000
01E000
01E000
01E000
01E000
01E000
01E000
01E000
01E000
01E000
01E000
01F000
00FFC0
00FFC0
007FC0
000F00
ENDCHAR
STARTCHAR 01AB
ENCODING 427
SWIDTH 360 0
DWIDTH 16 0
BBX 14 40 1 -11
BITMAP
0E00
0E00
0E00
0E00
1E00
3FFC
FFFC
FFFC
1E00
1E00
1E00
1E00
1E00
1E00
1E00
1E00
1E00
1E00
1E00
1E00
1E00
1E00
1E00
1E00
1E00
0F00
0FFC
07FC
03FC
001C
001C
001C
001C
001C
003C
003C
03FC
03F8
03F0
01E0
ENDCHAR
STARTCHAR 01AC
ENCODING 428
SWIDTH 562 0
DWIDTH 25 0
BBX 25 32 0 0
BITMAP
07FFFF80
3FFFFF80
7FFFFF80
7FFFFF80
701E0000
F01E0000
F01E0000
701E0000
001E0000
001E0000
001E0000
001E0000
001E0000
001E0000
001E0000
001E0000
001E0000
001E0000
001E0000
001E0000
001E0000
001E0000
001E0000
001E0000
001E0000
001E0000
001E0000
001E0000
001E0000
001E0000
001E0000
001E0000
ENDCHAR
STARTCHAR 01AD
ENCODING 429
SWIDTH 360 0
DWIDTH 16 0
BBX 14 34 1 0
BITMAP
01F8
07F8
0FF8
0F98
1E00
1E00
1E00
1E00
1E00
1E00
3FFC
FFFC
FFFC
1E00
1E00
1E00
1E00
1E00
1E00
1E00
1E00
1E00
1E00
1E00
1E00
1E00
1E00
1E00
1E00
1F00
0F00
0FFC
07FC
03FC
ENDCHAR
STARTCHAR 01AE
ENCODING 430
SWIDTH 540 0
DWIDTH 24 0
BBX 24 43 0 -11
BITMAP
FFFFFF
FFFFFF
FFFFFF
FFFFFF
003C00
003C00
003C00
003C00
003C00
003C00
003C00
003C00
003C00
003C00
003C00
003C00
003C00
003C00
003C00
003C00
003C00
003C00
003C00
003C00
003C00
003C00
003C00
003C00
003C00
003C00
003C00
003C00
003C00
003C00
003C00
003C00
003C00
003E00
001E00
001FE0
001FE0
000FE0
0003C0
ENDCHAR
STARTCHAR 01AF
ENCODING 431
SWIDTH 765 0
DWIDTH 34 0
BBX 32 34 4 0
BITMAP
0000000F
0000000F
F0000F0F
F0000F0F
F0000F1E
F0000F1E
F0000F7C
F0000FF8
F0000FE0
F0000F00
F0000F00
F0000F00
F0000F00
F0000F00
F0000F00
F0000F00
F0000F00
F0000F00
F0000F00
F0000F00
F0000F00
F0000F00
F0000F00
F0000F00
F0000F00
F0000F00
F8000F00
78001F00
7C001E00
3E003E00
1F80FC00
1FFFF800
07FFF000
01FFC000
ENDCHAR
STARTCHAR 01B0
ENCODING 432
SWIDTH 652 0
DWIDTH 29 0
BBX 27 28 4 0
BITMAP
000001E0
000001E0
000001E0
000001E0
E000F3C0
E000F3C0
E000F780
E000FF80
E000FE00
E000F800
E000F000
E000F000
E000F000
E000F000
E000F000
E000F000
E000F000
E000F000
E000F000
E000F000
E001F000
F001F000
F001F000
F803F000
FC0FF000
7FFEF000
3FFCF000
1FF8F000
ENDCHAR
STARTCHAR 01B1
ENCODING 433
SWIDTH 765 0
DWIDTH 34 0
BBX 31 32 2 0
BITMAP
FFF03FFE
FFF03FFE
FFF03FFE
FFF03FFE
01E00F00
03C00780
078003C0
0F0003E0
1F0001E0
1E0000F0
3C0000F0
3C000078
3C000078
78000078
7800007C
7800003C
7800003C
7800003C
7800003C
7800003C
7800003C
7800007C
7C000078
3C000078
3C0000F8
3E0000F0
1F0001F0
0F8003E0
0FF01FC0
07FFFF80
01FFFF00
007FFC00
ENDCHAR
STARTCHAR 01B2
ENCODING 434
SWIDTH 720 0
DWIDTH 32 0
BBX 24 32 4 0
BITMAP
F001FC
F003FE
F003FF
F0039F
F0000F
F0000F
F0000F
F0000F
F0000F
F0000F
F0000F
F0000F
F0000F
F0000F
F0000F
F0000F
F0000F
F0000F
F0000F
F0000F
F0000F
F0000F
F0000F
F0000F
F8000F
78001F
7C001E
3E003E
3F80FC
1FFFF8
07FFF0
03FFC0
ENDCHAR
STARTCHAR 01B3
ENCODING 435
SWIDTH 562 0
DWIDTH 25 0
BBX 25 32 0 0
BITMAP
F0000F80
78001F80
7C001F80
3C003E00
3E003C00
1E007800
1F007800
0F00F000
0F80F000
0781E000
03C1E000
03C1E000
01E3C000
01E3C000
00F78000
00F78000
007F0000
007F0000
003E0000
003E0000
001E0000
001E0000
001E0000
001E0000
001E0000
001E0000
001E0000
001E0000
001E0000
001E0000
001E0000
001E0000
ENDCHAR
STARTCHAR 01B4
ENCODING 436
SWIDTH 540 0
DWIDTH 24 0
BBX 24 35 0 -11
BITMAP
F0001F
78003F
78003F
78007C
3C0078
3C0070
1E00F0
1E00F0
1E01E0
0F01E0
0F01E0
0783C0
0783C0
0783C0
03C780
03C780
01C700
01EF00
01EF00
00EE00
00FE00
007E00
007C00
007C00
007800
007800
007800
00F000
00F000
01E000
03E000
FFC000
FF8000
FF0000
3C0000
ENDCHAR
STARTCHAR 01B5
ENCODING 437
SWIDTH 562 0
DWIDTH 25 0
BBX 22 32 2 0
BITMAP
FFFFF8
FFFFF8
FFFFF8
FFFFF8
0000F0
0001F0
0001E0
0003C0
0007C0
000780
000F00
001F00
001E00
003C00
3FFFF0
3FFFF0
3FFFF0
01F000
01E000
03C000
07C000
078000
0F0000
1F0000
1E0000
3C0000
7C0000
780000
FFFFFC
FFFFFC
FFFFFC
FFFFFC
ENDCHAR
STARTCHAR 01B6
ENCODING 438
SWIDTH 450 0
DWIDTH 20 0
BBX 17 24 2 0
BITMAP
FFFF80
FFFF80
FFFF80
000F80
000F00
001E00
003C00
007C00
007800
00F000
7FFF00
7FFF00
7FFF00
078000
078000
0F0000
1E0000
3E0000
3C0000
780000
F80000
FFFF80
FFFF80
FFFF80
ENDCHAR
STARTCHAR 01B7
ENCODING 439
SWIDTH 562 0
DWIDTH 25 0
BBX 21 32 2 0
BITMAP
FFFFF0
FFFFF0
FFFFF0
FFFFF0
0003E0
0007C0
000F80
001F00
003E00
007C00
00F800
01F000
03E000
07C000
07FC00
07FF80
07FFE0
000FF0
0001F0
0000F8
000078
000078
000078
000078
000078
000078
0000F8
8001F0
F007F0
FFFFE0
FFFF80
7FFE00
ENDCHAR
STARTCHAR 01B8
ENCODING 440
SWIDTH 562 0
DWIDTH 25 0
BBX 22 32 2 0
BITMAP
3FFFFC
3FFFFC
3FFFFC
3FFFFC
1F0000
0F8000
07C000
03E000
01F000
00F800
007C00
003E00
003F00
03FF00
0FFF00
1FFF00
3F0000
3E0000
7C0000
780000
780000
F80000
F80000
F80000
780000
780000
7C0000
3E0004
3F803C
1FFFFC
07FFFC
01FFF0
ENDCHAR
STARTCHAR 01B9
ENCODING 441
SWIDTH 495 0
DWIDTH 22 0
BBX 20 35 2 -11
BITMAP
7FFFE0
7FFFE0
7FFFE0
780000
3C0000
1E0000
0F0000
078000
03C000
03E000
01F000
00F800
007800
003C00
01FE00
0FFE00
1FFE00
3F8000
7C0000
780000
F00000
F00000
F00000
E00000
E00000
E00000
F00000
F00000
F80000
7C0000
7E0070
3FFFF0
1FFFF0
07FFE0
007A00
ENDCHAR
STARTCHAR 01BA
ENCODING 442
SWIDTH 495 0
DWIDTH 22 0
BBX 19 35 1 -11
BITMAP
FFFFC0
FFFFC0
FFFFC0
000F80
001F00
003E00
007C00
00F800
01F000
07C000
0FF000
0FFE00
0FFF00
00FF80
0007C0
0003C0
0001E0
0001E0
0001E0
0001E0
0001E0
0003E0
0003C0
000FC0
0FFF80
3FFF00
7FFC00
7C0000
F00000
F00000
F80300
7FFF00
7FFF00
1FFE00
01F000
ENDCHAR
STARTCHAR 01BB
ENCODING 443
SWIDTH 562 0
DWIDTH 25 0
BBX 21 34 2 0
BITMAP
03F800
0FFE00
3FFF00
7FBF80
7807C0
3003C0
0003C0
0003C0
0003C0
0003C0
0003C0
0003C0
0003C0
000780
000780
7FFFF8
7FFFF8
7FFFF8
003C00
007C00
00F800
00F000
01E000
03C000
07C000
0F8000
0F0000
1E0000
3C0000
780000
F80000
FFFFF8
FFFFF8
FFFFF8
ENDCHAR
STARTCHAR 01BC
ENCODING 444
SWIDTH 562 0
DWIDTH 25 0
BBX 22 32 2 0
BITMAP
FFFFF0
FFFFF0
FFFFF0
FFFFF0
0F0000
0F0000
0F0000
0F0000
0F0000
0F0000
0F0000
0F0000
0FE000
0FFF00
0FFFC0
0FFFE0
0003F0
0001F0
0000F8
000078
000078
000078
00007C
000078
000078
000078
0000F8
8001F0
F007E0
FFFFC0
FFFF80
7FFE00
ENDCHAR
STARTCHAR 01BD
ENCODING 445
SWIDTH 472 0
DWIDTH 21 0
BBX 19 24 1 0
BITMAP
7FFF80
7FFF80
7FFF80
0F0000
0F0000
0F0000
0F0000
0F0000
0F0000
0FFE00
0FFF00
0FFF80
000FC0
0003C0
0001E0
0001E0
0001E0
0001E0
0003C0
8003C0
E00FC0
FFFF80
FFFF00
3FFC00
ENDCHAR
STARTCHAR 01BE
ENCODING 446
SWIDTH 450 0
DWIDTH 20 0
BBX 17 29 2 0
BITMAP
070000
070000
070000
0F0000
0F0000
3FFE00
FFFE00
FFFE00
0F0000
0F0000
0F0000
0F0000
0F0000
0F0000
0F0000
07C000
07F000
03FC00
00FE00
003F00
000F00
000F80
000780
000780
000F00
C01F00
FFFE00
FFFC00
7FF800
ENDCHAR
STARTCHAR 01BF
ENCODING 447
SWIDTH 585 0
DWIDTH 26 0
BBX 20 35 4 -11
BITMAP
E1FE00
E7FF00
EFFFC0
FE0FC0
FC03E0
F801E0
F001F0
F000F0
F000F0
F000F0
F000F0
F000F0
F000F0
F001E0
F001E0
F003E0
F003C0
F007C0
F01F80
F03F00
F1FE00
FFF800
FFF000
FF8000
F00000
F00000
F00000
F00000
F00000
F00000
F00000
F00000
F00000
F00000
F00000
ENDCHAR
STARTCHAR 01C0
ENCODING 448
SWIDTH 315 0
DWIDTH 14 0
BBX 3 34 6 0
BITMAP
E0
E0
E0
E0
E0
E0
E0
E0
E0
E0
E0
E0
E0
E0
E0
E0
E0
E0
E0
E0
E0
E0
E0
E0
E0
E0
E0
E0
E0
E0
E0
E0
E0
E0
ENDCHAR
STARTCHAR 01C1
ENCODING 449
SWIDTH 540 0
DWIDTH 24 0
BBX 13 34 6 0
BITMAP
E078
E078
E078
E078
E078
E078
E078
E078
E078
E078
E078
E078
E078
E078
E078
E078
E078
E078
E078
E078
E078
E078
E078
E078
E078
E078
E078
E078
E078
E078
E078
E078
E078
E078
ENDCHAR
STARTCHAR 01C2
ENCODING 450
SWIDTH 495 0
DWIDTH 22 0
BBX 17 34 3 0
BITMAP
01C000
01C000
01C000
01C000
01C000
01C000
01C000
01C000
01C000
01C000
01C000
FFFF80
FFFF80
FFFF80
FFFF80
01C000
01C000
01C000
01C000
FFFF80
FFFF80
FFFF80
01C000
01C000
01C000
01C000
01C000
01C000
01C000
01C000
01C000
01C000
01C000
01C000
ENDCHAR
STARTCHAR 01C3
ENCODING 451
SWIDTH 247 0
DWIDTH 11 0
BBX 6 33 3 -1
BITMAP
78
78
78
78
78
78
78
78
78
78
78
78
78
78
78
78
78
78
70
30
30
30
30
00
00
00
00
78
FC
FC
FC
78
30
ENDCHAR
STARTCHAR 01C4
ENCODING 452
SWIDTH 1282 0
DWIDTH 57 0
BBX 52 42 4 0
BITMAP
00000000780700
000000003C0F00
000000001E1E00
000000000F7C00
0000000007F800
0000000003F000
0000000003E000
00000000000000
00000000000000
00000000000000
FFF00003FFFFE0
FFFF8003FFFFE0
FFFFE003FFFFE0
FFFFF803FFFFE0
F001FC000003C0
F0007E000007C0
F0003E00000780
F0001F00000F00
F0000F00001F00
F0000F80001E00
F0000780003C00
F0000780007C00
F0000780007800
F00007C000F000
F00007C001F000
F00007C001E000
F00007C003C000
F00007C007C000
F00007C0078000
F00007800F0000
F00007801F0000
F00007801E0000
F0000F803C0000
F0000F007C0000
F0001F00780000
F0003E00F00000
F0007E01F00000
F001FC01E00000
F03FF803FFFFF0
FFFFE003FFFFF0
FFFF8003FFFFF0
FFFC0003FFFFF0
ENDCHAR
STARTCHAR 01C5
ENCODING 453
SWIDTH 1192 0
DWIDTH 53 0
BBX 48 34 4 0
BITMAP
00000001E01C
00000000F038
FFF0000078F8
FFFF80003DF0
FFFFE0001FE0
FFFFF8000FC0
F001FC000F80
F0007E000000
F0003E000000
F0001F000000
F0000F01FFFE
F0000F81FFFE
F0000781FFFE
F0000780001E
F0000780003C
F00007C0007C
F00007C00078
F00007C000F0
F00007C001E0
F00007C001E0
F00007C003C0
F00007800780
F00007800F80
F00007800F00
F0000F801E00
F0000F003E00
F0001F003C00
F0003E007800
F0007E00F000
F001FC01F000
F03FF801E000
FFFFE003FFFF
FFFF8003FFFF
FFFC0003FFFF
ENDCHAR
STARTCHAR 01C6
ENCODING 454
SWIDTH 1080 0
DWIDTH 48 0
BBX 44 34 2 0
BITMAP
00003C0F00E0
00003C0783C0
00003C03C780
00003C01EF00
00003C00FF00
00003C007E00
00003C007C00
00003C000000
00003C000000
00003C000000
03FC3C0FFFF0
07FF3C0FFFF0
1FFFBC0FFFF0
1F03FC0000F0
3E01FC0001E0
3C00FC0003C0
7C007C0003C0
78007C000780
78007C000F00
78003C001F00
F8003C001E00
F0003C003C00
F0003C007C00
F8003C007800
78003C00F000
78007C01E000
78007C03E000
78007C03C000
7C007C078000
3E00FC0F8000
3F03FC0F0000
1FFFBC1FFFF0
0FFF3C1FFFF0
03FE3C1FFFF0
ENDCHAR
STARTCHAR 01C7
ENCODING 455
SWIDTH 787 0
DWIDTH 35 0
BBX 27 40 4 -8
BITMAP
F00001E0
F00001E0
F00001E0
F00001E0
F00001E0
F00001E0
F00001E0
F00001E0
F00001E0
F00001E0
F00001E0
F00001E0
F00001E0
F00001E0
F00001E0
F00001E0
F00001E0
F00001E0
F00001E0
F00001E0
F00001E0
F00001E0
F00001E0
F00001E0
F00001E0
F00001E0
F00001E0
F00001E0
FFFFC1E0
FFFFC1E0
FFFFC1E0
FFFFC1E0
000001E0
000001E0
000001E0
000003E0
000007C0
0000FFC0
0000FF80
0000FE00
ENDCHAR
STARTCHAR 01C8
ENCODING 456
SWIDTH 765 0
DWIDTH 34 0
BBX 27 44 4 -11
BITMAP
000000C0
F00001E0
F00001E0
F00001E0
F00001E0
F0000000
F0000000
F0000000
F0000000
F00001E0
F00001E0
F00001E0
F00001E0
F00001E0
F00001E0
F00001E0
F00001E0
F00001E0
F00001E0
F00001E0
F00001E0
F00001E0
F00001E0
F00001E0
F00001E0
F00001E0
F00001E0
F00001E0
F00001E0
FFFFC1E0
FFFFC1E0
FFFFC1E0
FFFFC1E0
000001E0
000001E0
000001E0
000001E0
000001E0
000001E0
000003E0
00007FC0
00007FC0
00007F80
00003800
ENDCHAR
STARTCHAR 01C9
ENCODING 457
SWIDTH 495 0
DWIDTH 22 0
BBX 16 45 4 -11
BITMAP
F000
F00C
F01E
F01F
F01E
F01E
F000
F000
F000
F000
F01E
F01E
F01E
F01E
F01E
F01E
F01E
F01E
F01E
F01E
F01E
F01E
F01E
F01E
F01E
F01E
F01E
F01E
F01E
F01E
F01E
F01E
F01E
F01E
001E
001E
001E
001E
001E
001E
003E
07FC
07FC
07F8
03C0
ENDCHAR
STARTCHAR 01CA
ENCODING 458
SWIDTH 1012 0
DWIDTH 45 0
BBX 38 40 4 -8
BITMAP
F80003803C
FC0003803C
FC0003803C
FE0003803C
FF0003803C
FF0003803C
FF8003803C
F7C003803C
F3C003803C
F3E003803C
F1F003803C
F0F003803C
F0F803803C
F07803803C
F03C03803C
F03E03803C
F01E03803C
F01F03803C
F00F83803C
F00783803C
F007C3803C
F003E3803C
F001E3803C
F001F3803C
F000FB803C
F0007B803C
F0007F803C
F0003F803C
F0001F803C
F0001F803C
F0000F803C
F0000F803C
000000003C
000000003C
000000007C
0000000078
00000000F8
0000003FF0
0000003FE0
0000003FC0
ENDCHAR
STARTCHAR 01CB
ENCODING 459
SWIDTH 1012 0
DWIDTH 45 0
BBX 38 44 4 -11
BITMAP
0000000038
F80003807C
FC0003807C
FC0003807C
FE00038038
FF00038000
FF00038000
FF80038000
F7C0038000
F3C0038038
F3E0038038
F1F0038038
F0F0038038
F0F8038038
F078038038
F03C038038
F03E038038
F01E038038
F01F038038
F00F838038
F007838038
F007C38038
F003E38038
F001E38038
F001F38038
F000FB8038
F0007B8038
F0007F8038
F0003F8038
F0001F8038
F0001F8038
F0000F8038
F0000F8038
0000000038
0000000038
0000000038
0000000038
0000000078
0000000078
0000000078
0000001FF8
0000001FF0
0000001FE0
0000000700
ENDCHAR
STARTCHAR 01CC
ENCODING 460
SWIDTH 855 0
DWIDTH 38 0
BBX 32 44 4 -11
BITMAP
0000000C
0000001E
0000001F
0000001E
0000001E
00000000
00000000
00000000
00000000
E1FF001E
E7FF801E
EFFFC01E
FF07E01E
FC01E01E
F801F01E
F800F01E
F000F01E
F000F01E
F000F01E
F000F01E
F000F01E
F000F01E
F000F01E
F000F01E
F000F01E
F000F01E
F000F01E
F000F01E
F000F01E
F000F01E
F000F01E
F000F01E
F000F01E
0000001E
0000001E
0000001E
0000001E
0000001E
0000001E
0000003E
000007FC
000007FC
000007F8
000003C0
ENDCHAR
STARTCHAR 01CD
ENCODING 461
SWIDTH 630 0
DWIDTH 28 0
BBX 28 42 0 0
BITMAP
01C03C00
01E07800
00F0F000
0079E000
003FC000
001F8000
000F0000
00000000
00000000
00000000
000F0000
000F8000
001F8000
001F8000
001FC000
003FC000
003DC000
0039E000
0079E000
0078F000
00F0F000
00F07000
00E07800
01E07800
01E03C00
03C03C00
03C03C00
03C01E00
07801E00
07FFFF00
0FFFFF00
0FFFFF00
0F000780
1E000780
1E000780
1E0003C0
3C0003C0
3C0003E0
780001E0
780001E0
780000F0
F00000F0
ENDCHAR
STARTCHAR 01CE
ENCODING 462
SWIDTH 540 0
DWIDTH 24 0
BBX 19 34 2 0
BITMAP
1C03C0
0F0780
078F00
03DE00
01FC00
01F800
00F800
000000
000000
000000
03FE00
1FFF80
1FFFC0
1E07E0
0001E0
0001E0
0001E0
0001E0
0000E0
0000E0
03FFE0
1FFFE0
3FF1E0
7E01E0
7801E0
F001E0
F001E0
F001E0
F003E0
F803E0
7C0FE0
7FFEE0
3FFCE0
1FF0E0
ENDCHAR
STARTCHAR 01CF
ENCODING 463
SWIDTH 337 0
DWIDTH 15 0
BBX 15 42 0 0
BITMAP
E00E
783C
3C78
1EF0
0FE0
0FE0
07C0
0000
0000
0000
3FF8
3FF8
3FF8
03C0
03C0
03C0
03C0
03C0
03C0
03C0
03C0
03C0
03C0
03C0
03C0
03C0
03C0
03C0
03C0
03C0
03C0
03C0
03C0
03C0
03C0
03C0
03C0
03C0
03C0
1FF8
3FF8
3FF8
ENDCHAR
STARTCHAR 01D0
ENCODING 464
SWIDTH 247 0
DWIDTH 11 0
BBX 15 34 -2 0
BITMAP
F00E
783C
3C78
1EF0
0FF0
07E0
07C0
0000
0000
0000
03C0
03C0
03C0
03C0
03C0
03C0
03C0
03C0
03C0
03C0
03C0
03C0
03C0
03C0
03C0
03C0
03C0
03C0
03C0
03C0
03C0
03C0
03C0
03C0
ENDCHAR
STARTCHAR 01D1
ENCODING 465
SWIDTH 765 0
DWIDTH 34 0
BBX 29 42 3 0
BITMAP
01C03C00
00E07800
0078F000
007DE000
003FC000
001F8000
000F8000
00000000
00000000
00000000
007FF000
01FFFC00
07FFFE00
0FF07F80
1F800F80
3F0007C0
3E0003E0
7C0001E0
780001F0
780000F0
F80000F0
F00000F8
F00000F8
F0000078
F0000078
F0000078
F0000078
F0000078
F0000078
F0000078
F00000F8
F80000F0
780000F0
780001F0
7C0001E0
3C0003E0
3E0007C0
1F800FC0
0FE03F80
07FFFF00
03FFFC00
00FFF000
ENDCHAR
STARTCHAR 01D2
ENCODING 466
SWIDTH 585 0
DWIDTH 26 0
BBX 22 34 2 0
BITMAP
0E01E0
0783C0
03C780
01EF00
00FE00
00FC00
007C00
000000
000000
000000
01FF00
07FFC0
0FFFE0
1F83F0
3E00F8
3C0078
7C007C
78003C
78003C
78003C
F8003C
F0003C
F0003C
F8003C
78003C
78003C
78003C
78007C
3C0078
3E00F8
1F01F0
0FFFE0
07FFC0
01FF00
ENDCHAR
STARTCHAR 01D3
ENCODING 467
SWIDTH 720 0
DWIDTH 32 0
BBX 24 42 4 0
BITMAP
0700F0
0381E0
03E3C0
01F780
00FF00
007E00
003E00
000000
000000
000000
F0000F
F0000F
F0000F
F0000F
F0000F
F0000F
F0000F
F0000F
F0000F
F0000F
F0000F
F0000F
F0000F
F0000F
F0000F
F0000F
F0000F
F0000F
F0000F
F0000F
F0000F
F0000F
F0000F
F0000F
F8000F
78001F
7C001E
3E003E
3F80FC
1FFFF8
07FFF0
03FFC0
ENDCHAR
STARTCHAR 01D4
ENCODING 468
SWIDTH 607 0
DWIDTH 27 0
BBX 20 34 4 0
BITMAP
3C0380
1E0F00
0F1E00
07BC00
03FC00
01F800
01F000
000000
000000
000000
E000F0
E000F0
E000F0
E000F0
E000F0
E000F0
E000F0
E000F0
E000F0
E000F0
E000F0
E000F0
E000F0
E000F0
E000F0
E000F0
E001F0
F001F0
F001F0
F803F0
FC0FF0
7FFEF0
3FFCF0
1FF8F0
ENDCHAR
STARTCHAR 01D5
ENCODING 469
SWIDTH 720 0
DWIDTH 32 0
BBX 24 45 4 0
BITMAP
03FFE0
03FFE0
03FFE0
000000
000000
000000
01C1C0
03C3C0
03C3C0
03C1C0
000000
000000
000000
F0000F
F0000F
F0000F
F0000F
F0000F
F0000F
F0000F
F0000F
F0000F
F0000F
F0000F
F0000F
F0000F
F0000F
F0000F
F0000F
F0000F
F0000F
F0000F
F0000F
F0000F
F0000F
F0000F
F0000F
F8000F
78001F
7C001E
3E003E
3F80FC
1FFFF8
07FFF0
03FFC0
ENDCHAR
STARTCHAR 01D6
ENCODING 470
SWIDTH 607 0
DWIDTH 27 0
BBX 20 37 4 0
BITMAP
1FFF00
1FFF00
1FFF00
000000
000000
000000
0E0E00
0F0F00
1F0F00
0E0F00
000000
000000
000000
E000F0
E000F0
E000F0
E000F0
E000F0
E000F0
E000F0
E000F0
E000F0
E000F0
E000F0
E000F0
E000F0
E000F0
E000F0
E000F0
E001F0
F001F0
F001F0
F803F0
FC0FF0
7FFEF0
3FFCF0
1FF8F0
ENDCHAR
STARTCHAR 01D7
ENCODING 471
SWIDTH 720 0
DWIDTH 32 0
BBX 24 47 4 0
BITMAP
0003E0
0003C0
000780
000F00
001E00
003C00
003800
000000
01C1C0
03C3C0
03C3C0
03C1C0
000000
000000
000000
F0000F
F0000F
F0000F
F0000F
F0000F
F0000F
F0000F
F0000F
F0000F
F0000F
F0000F
F0000F
F0000F
F0000F
F0000F
F0000F
F0000F
F0000F
F0000F
F0000F
F0000F
F0000F
F0000F
F0000F
F8000F
78001F
7C001E
3E003E
3F80FC
1FFFF8
07FFF0
03FFC0
ENDCHAR
STARTCHAR 01D8
ENCODING 472
SWIDTH 607 0
DWIDTH 27 0
BBX 20 39 4 0
BITMAP
001F00
001F00
003E00
003C00
007800
00F000
01C000
000000
0E0E00
0F0F00
1F0F00
0E0F00
000000
000000
000000
E000F0
E000F0
E000F0
E000F0
E000F0
E000F0
E000F0
E000F0
E000F0
E000F0
E000F0
E000F0
E000F0
E000F0
E000F0
E000F0
E001F0
F001F0
F001F0
F803F0
FC0FF0
7FFEF0
3FFCF0
1FF8F0
ENDCHAR
STARTCHAR 01D9
ENCODING 473
SWIDTH 720 0
DWIDTH 32 0
BBX 24 47 4 0
BITMAP
0700F0
03C1E0
01E7C0
00FF80
007F00
007E00
003C00
000000
01C1C0
03C3C0
03C3C0
03C1C0
000000
000000
000000
F0000F
F0000F
F0000F
F0000F
F0000F
F0000F
F0000F
F0000F
F0000F
F0000F
F0000F
F0000F
F0000F
F0000F
F0000F
F0000F
F0000F
F0000F
F0000F
F0000F
F0000F
F0000F
F0000F
F0000F
F8000F
78001F
7C001E
3E003E
3F80FC
1FFFF8
07FFF0
03FFC0
ENDCHAR
STARTCHAR 01DA
ENCODING 474
SWIDTH 607 0
DWIDTH 27 0
BBX 20 39 4 0
BITMAP
3C0780
1E0F00
0F9E00
07FC00
03F800
01F000
00F000
000000
0E0E00
0F0F00
1F0F00
0E0F00
000000
000000
000000
E000F0
E000F0
E000F0
E000F0
E000F0
E000F0
E000F0
E000F0
E000F0
E000F0
E000F0
E000F0
E000F0
E000F0
E000F0
E000F0
E001F0
F001F0
F001F0
F803F0
FC0FF0
7FFEF0
3FFCF0
1FF8F0
ENDCHAR
STARTCHAR 01DB
ENCODING 475
SWIDTH 720 0
DWIDTH 32 0
BBX 24 47 4 0
BITMAP
03C000
03E000
01F000
00F000
007800
003C00
000E00
000000
01C1C0
03C3C0
03C3C0
03C1C0
000000
000000
000000
F0000F
F0000F
F0000F
F0000F
F0000F
F0000F
F0000F
F0000F
F0000F
F0000F
F0000F
F0000F
F0000F
F0000F
F0000F
F0000F
F0000F
F0000F
F0000F
F0000F
F0000F
F0000F
F0000F
F0000F
F8000F
78001F
7C001E
3E003E
3F80FC
1FFFF8
07FFF0
03FFC0
ENDCHAR
STARTCHAR 01DC
ENCODING 476
SWIDTH 607 0
DWIDTH 27 0
BBX 20 39 4 0
BITMAP
1F0000
0F8000
078000
03C000
01E000
00F000
007000
000000
0E0E00
0F0F00
1F0F00
0E0F00
000000
000000
000000
E000F0
E000F0
E000F0
E000F0
E000F0
E000F0
E000F0
E000F0
E000F0
E000F0
E000F0
E000F0
E000F0
E000F0
E000F0
E000F0
E001F0
F001F0
F001F0
F803F0
FC0FF0
7FFEF0
3FFCF0
1FF8F0
ENDCHAR
STARTCHAR 01DD
ENCODING 477
SWIDTH 562 0
DWIDTH 25 0
BBX 21 24 2 0
BITMAP
0FFC00
7FFF00
7FFF80
780FC0
4003E0
0001E0
0001F0
0000F0
0000F0
0000F0
000078
FFFFF8
FFFFF8
FFFFF8
F000F0
F000F0
F800F0
7800F0
7801E0
3C03E0
3E07C0
1FFF80
0FFF00
03FE00
ENDCHAR
STARTCHAR 01DE
ENCODING 478
SWIDTH 630 0
DWIDTH 28 0
BBX 28 45 0 0
BITMAP
00FFF800
00FFF800
00FFF800
00000000
00000000
00000000
00E07000
00F0F000
00F0F000
00F0F000
00000000
00000000
00000000
000F0000
000F8000
001F8000
001F8000
001FC000
003FC000
003DC000
0039E000
0079E000
0078F000
00F0F000
00F07000
00E07800
01E07800
01E03C00
03C03C00
03C03C00
03C01E00
07801E00
07FFFF00
0FFFFF00
0FFFFF00
0F000780
1E000780
1E000780
1E0003C0
3C0003C0
3C0003E0
780001E0
780001E0
780000F0
F00000F0
ENDCHAR
STARTCHAR 01DF
ENCODING 479
SWIDTH 540 0
DWIDTH 24 0
BBX 19 37 2 0
BITMAP
0FFF80
0FFF80
0FFF80
000000
000000
000000
070700
0F0780
0F0780
070700
000000
000000
000000
03FE00
1FFF80
1FFFC0
1E07E0
0001E0
0001E0
0001E0
0001E0
0000E0
0000E0
03FFE0
1FFFE0
3FF1E0
7E01E0
7801E0
F001E0
F001E0
F001E0
F003E0
F803E0
7C0FE0
7FFEE0
3FFCE0
1FF0E0
ENDCHAR
STARTCHAR 01E0
ENCODING 480
SWIDTH 630 0
DWIDTH 28 0
BBX 28 44 0 0
BITMAP
00FFF800
00FFF800
00FFF800
00000000
00000000
000F0000
000F0000
000F0000
000F0000
00060000
00000000
00000000
000F0000
000F8000
001F8000
001F8000
001FC000
003FC000
003DC000
0039E000
0079E000
0078F000
00F0F000
00F07000
00E07800
01E07800
01E03C00
03C03C00
03C03C00
03C01E00
07801E00
07FFFF00
0FFFFF00
0FFFFF00
0F000780
1E000780
1E000780
1E0003C0
3C0003C0
3C0003E0
780001E0
780001E0
780000F0
F00000F0
ENDCHAR
STARTCHAR 01E1
ENCODING 481
SWIDTH 540 0
DWIDTH 24 0
BBX 19 37 2 0
BITMAP
0FFF80
0FFF80
0FFF80
000000
000000
007000
00F800
00F800
00F800
007000
000000
000000
000000
03FE00
1FFF80
1FFFC0
1E07E0
0001E0
0001E0
0001E0
0001E0
0000E0
0000E0
03FFE0
1FFFE0
3FF1E0
7E01E0
7801E0
F001E0
F001E0
F001E0
F003E0
F803E0
7C0FE0
7FFEE0
3FFCE0
1FF0E0
ENDCHAR
STARTCHAR 01E2
ENCODING 482
SWIDTH 877 0
DWIDTH 39 0
BBX 36 38 0 0
BITMAP
0001FFF000
0001FFF000
0001FFF000
0000000000
0000000000
0000000000
0001FFFFF0
0003FFFFF0
0003FFFFF0
0007FFFFF0
00078F0000
00078F0000
000F0F0000
000F0F0000
001E0F0000
001E0F0000
003C0F0000
003C0F0000
00780F0000
00780F0000
00F00FFFF0
00F00FFFF0
01E00FFFF0
01E00F0000
03C00F0000
03FFFF0000
07FFFF0000
07FFFF0000
0F800F0000
0F000F0000
1F000F0000
1E000F0000
1E000F0000
3C000F0000
3C000FFFF0
78000FFFF0
78000FFFF0
F0000FFFF0
ENDCHAR
STARTCHAR 01E3
ENCODING 483
SWIDTH 855 0
DWIDTH 38 0
BBX 34 30 2 0
BITMAP
001FFF0000
001FFF0000
001FFF0000
0000000000
0000000000
0000000000
07FC07F800
1FFF1FFC00
3FFFBFFE00
1C07BC1F00
1003F80F80
0003F00780
0001F003C0
0001E003C0
0001E003C0
0001E003C0
03FFFFFFC0
1FFFFFFFC0
3FE1FFFFC0
7C01E00000
7801E00000
F001E00000
F001E00000
F003F00000
F003F00000
F807F80000
780F7E0380
7FFE3FFF80
3FFC1FFF80
1FF007FF00
ENDCHAR
STARTCHAR 01E4
ENCODING 484
SWIDTH 720 0
DWIDTH 32 0
BBX 29 32 3 0
BITMAP
001FFC00
00FFFF80
03FFFF80
07FC3F80
0FC00300
1F000000
3E000000
3C000000
7C000000
78000000
F8000000
F0000000
F0000000
F0000000
F0000000
F001FFC0
F001FFC0
F001FFC0
F00003C0
F00003C0
F00003C0
F80003C0
F800FFF8
7800FFF8
7C00FFF8
3E0003C0
3F0003C0
1F8003C0
0FF007C0
07FFFFC0
01FFFFC0
007FFE00
ENDCHAR
STARTCHAR 01E5
ENCODING 485
SWIDTH 607 0
DWIDTH 27 0
BBX 24 35 2 -11
BITMAP
03FC3C
0FFF3C
1FFFBC
1F03FC
3E01FC
7C00FC
78007C
78007C
78007C
78003C
F8003C
F0003C
F0003C
78003C
78003C
78007C
78007C
7C007C
3E00FC
1F03FC
1FFFBC
0FFF3C
03FC3C
00003C
00003C
003FFF
003FFF
003FFF
003FFF
000078
3801F0
3FFFF0
3FFFE0
1FFF80
017800
ENDCHAR
STARTCHAR 01E6
ENCODING 486
SWIDTH 720 0
DWIDTH 32 0
BBX 26 42 3 0
BITMAP
01E01E00
00F03C00
00787800
003CF000
001FE000
000FC000
00078000
00000000
00000000
00000000
001FFC00
00FFFF80
03FFFF80
07FC3F80
0FC00300
1F000000
3E000000
3C000000
7C000000
78000000
F8000000
F0000000
F0000000
F0000000
F0000000
F001FFC0
F001FFC0
F001FFC0
F001FFC0
F00003C0
F00003C0
F80003C0
780003C0
780003C0
7C0003C0
3E0003C0
3F0003C0
1F8003C0
0FF007C0
07FFFFC0
01FFFFC0
007FFF00
ENDCHAR
STARTCHAR 01E7
ENCODING 487
SWIDTH 607 0
DWIDTH 27 0
BBX 22 45 2 -11
BITMAP
0E01E0
0703C0
07C780
03EF00
01FE00
00FC00
007800
000000
000000
000000
03FC3C
07FF3C
0FFFBC
1F03FC
3E01FC
3C00FC
7C007C
78007C
78007C
78003C
F8003C
F0003C
F0003C
F8003C
78003C
78003C
78007C
78007C
7C007C
3E00FC
1F01FC
1FFFBC
0FFF3C
03FE3C
00003C
00003C
000078
000078
000078
0000F8
3801F0
3FFFE0
3FFFC0
1FFF80
017C00
ENDCHAR
STARTCHAR 01E8
ENCODING 488
SWIDTH 607 0
DWIDTH 27 0
BBX 23 42 4 0
BITMAP
0E01E0
0F03C0
078780
03CF00
01FE00
00FC00
007800
000000
000000
000000
F0003E
F0007C
F000F8
F001F0
F001E0
F003C0
F00780
F00F00
F01F00
F03E00
F07C00
F0F800
F1F000
F3E000
F3E000
F7E000
FFF000
FEF800
FC7C00
F83C00
F03E00
F01F00
F00F80
F00F80
F007C0
F003E0
F001F0
F001F0
F000F8
F0007C
F0003C
F0003E
ENDCHAR
STARTCHAR 01E9
ENCODING 489
SWIDTH 517 0
DWIDTH 23 0
BBX 25 44 -2 0
BITMAP
F00E0000
783C0000
3C780000
1EF00000
0FF00000
07E00000
07C00000
00000000
00000000
00000000
03C00000
03C00000
03C00000
03C00000
03C00000
03C00000
03C00000
03C00000
03C00000
03C00000
03C00F00
03C01E00
03C03C00
03C07C00
03C0F800
03C1F000
03C3E000
03C7C000
03CF8000
03DF0000
03DE0000
03BF0000
03FF8000
03F78000
03E3C000
03C3E000
03C1F000
03C0F000
03C07800
03C07C00
03C03E00
03C01E00
03C00F00
03C00F80
ENDCHAR
STARTCHAR 01EA
ENCODING 490
SWIDTH 765 0
DWIDTH 34 0
BBX 29 42 3 -10
BITMAP
007FF000
01FFFC00
07FFFE00
0FF07F80
1F800F80
3F0007C0
3E0003E0
7C0001E0
780001F0
780000F0
F80000F0
F00000F8
F00000F8
F0000078
F0000078
F0000078
F0000078
F0000078
F0000078
F0000078
F00000F8
F80000F0
780000F0
780001F0
7C0001E0
3C0003E0
3E0007C0
1F800FC0
0FE03F80
07FFFF00
03FFFC00
00FFF000
00038000
00070000
000E0000
001E0000
001C0000
001C0000
001E0000
001FC000
000FC000
0007C000
ENDCHAR
STARTCHAR 01EB
ENCODING 491
SWIDTH 585 0
DWIDTH 26 0
BBX 22 34 2 -10
BITMAP
01FF00
07FFC0
0FFFE0
1F83F0
3E00F8
3C0078
7C007C
78003C
78003C
78003C
F8003C
F0003C
F0003C
F8003C
78003C
78003C
78003C
78007C
3C0078
3E00F8
1F01F0
0FFFE0
07FFC0
01FF00
001C00
003800
007000
007000
00E000
00E000
00F000
007F00
007F00
001E00
ENDCHAR
STARTCHAR 01EC
ENCODING 492
SWIDTH 765 0
DWIDTH 34 0
BBX 29 48 3 -10
BITMAP
00FFF800
00FFF800
00FFF800
00000000
00000000
00000000
007FF000
01FFFC00
07FFFE00
0FF07F80
1F800F80
3F0007C0
3E0003E0
7C0001E0
780001F0
780000F0
F80000F0
F00000F8
F00000F8
F0000078
F0000078
F0000078
F0000078
F0000078
F0000078
F0000078
F00000F8
F80000F0
780000F0
780001F0
7C0001E0
3C0003E0
3E0007C0
1F800FC0
0FE03F80
07FFFF00
03FFFC00
00FFF000
00038000
00070000
00070000
000E0000
000E0000
000E0000
000E0000
000FE000
0007E000
0003C000
ENDCHAR
STARTCHAR 01ED
ENCODING 493
SWIDTH 585 0
DWIDTH 26 0
BBX 22 40 2 -10
BITMAP
07FFC0
07FFC0
07FFC0
000000
000000
000000
01FF00
07FFC0
0FFFE0
1F83F0
3E00F8
3C0078
7C007C
78003C
78003C
78003C
F8003C
F0003C
F0003C
F8003C
78003C
78003C
78003C
78007C
3C0078
3E00F8
1F01F0
0FFFE0
07FFC0
01FF00
001C00
003800
007000
007000
00E000
00E000
00F000
007F00
007F00
001E00
ENDCHAR
STARTCHAR 01EE
ENCODING 494
SWIDTH 562 0
DWIDTH 25 0
BBX 21 42 2 0
BITMAP
1C03C0
0E0780
0F0F00
07DE00
03FC00
01F800
00F800
000000
000000
000000
FFFFF0
FFFFF0
FFFFF0
FFFFF0
0003E0
0007C0
000F80
001F00
003E00
007C00
00F800
01F000
03E000
07C000
07FC00
07FF80
07FFE0
000FF0
0001F0
0000F8
000078
000078
000078
000078
000078
000078
0000F8
8001F0
F007F0
FFFFE0
FFFF80
7FFE00
ENDCHAR
STARTCHAR 01EF
ENCODING 495
SWIDTH 495 0
DWIDTH 22 0
BBX 20 45 1 -11
BITMAP
380780
1E0F00
0F1E00
07BC00
07F800
03F000
01F000
000000
000000
000000
FFFFC0
FFFFC0
FFFFC0
0003C0
000780
000F00
001E00
003C00
007C00
00F800
01F000
01E000
03C000
078000
0FF000
0FFE00
0FFF00
001F80
0007C0
0003E0
0001E0
0001E0
0000F0
0000F0
0000F0
0000F0
0001E0
0001E0
0003E0
0007C0
C00FC0
FFFF80
FFFE00
FFFC00
0BC000
ENDCHAR
STARTCHAR 01F0
ENCODING 496
SWIDTH 247 0
DWIDTH 11 0
BBX 15 45 -2 -11
BITMAP
F00E
783C
3C78
1EF0
0FF0
07E0
07C0
0000
0000
0000
03C0
03C0
03C0
03C0
03C0
03C0
03C0
03C0
03C0
03C0
03C0
03C0
03C0
03C0
03C0
03C0
03C0
03C0
03C0
03C0
03C0
03C0
03C0
03C0
03C0
03C0
03C0
03C0
03C0
03C0
0780
FF80
FF00
FE00
7000
ENDCHAR
STARTCHAR 01F1
ENCODING 497
SWIDTH 1282 0
DWIDTH 57 0
BBX 52 32 4 0
BITMAP
FFF00003FFFFE0
FFFF8003FFFFE0
FFFFE003FFFFE0
FFFFF803FFFFE0
F001FC000003C0
F0007E000007C0
F0003E00000780
F0001F00000F00
F0000F00001F00
F0000F80001E00
F0000780003C00
F0000780007C00
F0000780007800
F00007C000F000
F00007C001F000
F00007C001E000
F00007C003C000
F00007C007C000
F00007C0078000
F00007800F0000
F00007801F0000
F00007801E0000
F0000F803C0000
F0000F007C0000
F0001F00780000
F0003E00F00000
F0007E01F00000
F001FC01E00000
F03FF803FFFFF0
FFFFE003FFFFF0
FFFF8003FFFFF0
FFFC0003FFFFF0
ENDCHAR
STARTCHAR 01F2
ENCODING 498
SWIDTH 1192 0
DWIDTH 53 0
BBX 48 32 4 0
BITMAP
FFF000000000
FFFF80000000
FFFFE0000000
FFFFF8000000
F001FC000000
F0007E000000
F0003E000000
F0001F000000
F0000F01FFFE
F0000F81FFFE
F0000781FFFE
F0000780001E
F0000780003C
F00007C0007C
F00007C00078
F00007C000F0
F00007C001E0
F00007C001E0
F00007C003C0
F00007800780
F00007800F80
F00007800F00
F0000F801E00
F0000F003E00
F0001F003C00
F0003E007800
F0007E00F000
F001FC01F000
F03FF801E000
FFFFE003FFFF
FFFF8003FFFF
FFFC0003FFFF
ENDCHAR
STARTCHAR 01F3
ENCODING 499
SWIDTH 1080 0
DWIDTH 48 0
BBX 44 34 2 0
BITMAP
00003C000000
00003C000000
00003C000000
00003C000000
00003C000000
00003C000000
00003C000000
00003C000000
00003C000000
00003C000000
03FC3C0FFFF0
07FF3C0FFFF0
1FFFBC0FFFF0
1F03FC0000F0
3E01FC0001E0
3C00FC0003C0
7C007C0003C0
78007C000780
78007C000F00
78003C001F00
F8003C001E00
F0003C003C00
F0003C007C00
F8003C007800
78003C00F000
78007C01E000
78007C03E000
78007C03C000
7C007C078000
3E00FC0F8000
3F03FC0F0000
1FFFBC1FFFF0
0FFF3C1FFFF0
03FE3C1FFFF0
ENDCHAR
STARTCHAR 01F4
ENCODING 500
SWIDTH 720 0
DWIDTH 32 0
BBX 26 42 3 0
BITMAP
00007C00
0000F800
0001F000
0001E000
0003C000
00078000
00070000
00000000
00000000
00000000
001FFC00
00FFFF80
03FFFF80
07FC3F80
0FC00300
1F000000
3E000000
3C000000
7C000000
78000000
F8000000
F0000000
F0000000
F0000000
F0000000
F001FFC0
F001FFC0
F001FFC0
F001FFC0
F00003C0
F00003C0
F80003C0
780003C0
780003C0
7C0003C0
3E0003C0
3F0003C0
1F8003C0
0FF007C0
07FFFFC0
01FFFFC0
007FFF00
ENDCHAR
STARTCHAR 01F5
ENCODING 501
SWIDTH 607 0
DWIDTH 27 0
BBX 22 45 2 -11
BITMAP
0007C0
000F80
000F00
001E00
003C00
003800
007000
000000
000000
000000
03FC3C
07FF3C
0FFFBC
1F03FC
3E01FC
3C00FC
7C007C
78007C
78007C
78003C
F8003C
F0003C
F0003C
F8003C
78003C
78003C
78007C
78007C
7C007C
3E00FC
1F01FC
1FFFBC
0FFF3C
03FE3C
00003C
00003C
000078
000078
000078
0000F8
3801F0
3FFFE0
3FFFC0
1FFF80
017C00
ENDCHAR
STARTCHAR 01F6
ENCODING 502
SWIDTH 922 0
DWIDTH 41 0
BBX 34 32 4 0
BITMAP
F000780000
F000780000
F000780000
F000780000
F000780000
F000780000
F000780000
F000780000
F0007803C0
F0007803C0
F0007803C0
F0007803C0
F0007803C0
F0007803C0
FFFFF803C0
FFFFF803C0
FFFFF803C0
F0007803C0
F0007803C0
F0007803C0
F0007803C0
F0007803C0
F0007803C0
F0007803C0
F0007803C0
F0007C03C0
F0003C07C0
F0003C0780
F0003E0F80
F0001FFF00
F0000FFE00
F00007FC00
ENDCHAR
STARTCHAR 01F7
ENCODING 503
SWIDTH 652 0
DWIDTH 29 0
BBX 23 43 4 -11
BITMAP
F07F80
F1FFE0
F3FFF0
F7C3F8
FF007C
FE003C
FC003C
F8001E
F8001E
F8001E
F8001E
F0001E
F0001E
F0001E
F0003E
F0003C
F0003C
F0007C
F00078
F000F8
F000F0
F001F0
F003E0
F007C0
F00F80
F03F00
F07E00
F1FC00
F7F000
FFC000
FF8000
FC0000
F00000
F00000
F00000
F00000
F00000
F00000
F00000
F00000
F00000
F00000
F00000
ENDCHAR
STARTCHAR 01F8
ENCODING 504
SWIDTH 742 0
DWIDTH 33 0
BBX 25 42 4 0
BITMAP
01F00000
00F80000
00780000
003C0000
003C0000
001E0000
00070000
00000000
00000000
00000000
F8000380
FC000380
FC000380
FE000380
FF000380
FF000380
FF800380
F7C00380
F3C00380
F3E00380
F1F00380
F0F00380
F0F80380
F0780380
F03C0380
F03E0380
F01E0380
F01F0380
F00F8380
F0078380
F007C380
F003E380
F001E380
F001F380
F000FB80
F0007B80
F0007F80
F0003F80
F0001F80
F0001F80
F0000F80
F0000F80
ENDCHAR
STARTCHAR 01F9
ENCODING 505
SWIDTH 607 0
DWIDTH 27 0
BBX 20 34 4 0
BITMAP
0F8000
078000
03C000
03E000
01E000
00F000
003800
000000
000000
000000
E1FF00
E7FF80
EFFFC0
FF07E0
FC01E0
F801F0
F800F0
F000F0
F000F0
F000F0
F000F0
F000F0
F000F0
F000F0
F000F0
F000F0
F000F0
F000F0
F000F0
F000F0
F000F0
F000F0
F000F0
F000F0
ENDCHAR
STARTCHAR 01FA
ENCODING 506
SWIDTH 630 0
DWIDTH 28 0
BBX 28 43 0 0
BITMAP
0000F800
0001F000
0003E000
0003C000
00078000
000F0000
00000000
000F0000
001FC000
003FC000
0070E000
00706000
00706000
0070E000
003FC000
001FC000
001F8000
001FC000
003DC000
0039C000
0039E000
0078E000
0070F000
00F0F000
00F07800
01E07800
01E03800
01C03C00
03C01C00
03C01E00
07801E00
07FFFF00
0FFFFF00
0FFFFF00
0F000780
1E000780
1E0003C0
3C0003C0
3C0003E0
7C0001E0
780001E0
780000F0
F00000F0
ENDCHAR
STARTCHAR 01FB
ENCODING 507
SWIDTH 540 0
DWIDTH 24 0
BBX 19 43 2 0
BITMAP
000FC0
001F80
003E00
007C00
00F000
000000
000000
00FC00
01FE00
038E00
030700
030700
030600
038E00
01FE00
00F800
000000
000000
000000
03FE00
1FFF80
1FFFC0
1E07E0
0001E0
0001E0
0001E0
0001E0
0000E0
0000E0
03FFE0
1FFFE0
3FF1E0
7E01E0
7801E0
F001E0
F001E0
F001E0
F003E0
F803E0
7C0FE0
7FFEE0
3FFCE0
1FF0E0
ENDCHAR
STARTCHAR 01FC
ENCODING 508
SWIDTH 877 0
DWIDTH 39 0
BBX 36 42 0 0
BITMAP
000000F000
000001F000
000003E000
000003C000
0000078000
00000F0000
00000E0000
0000000000
0000000000
0000000000
0001FFFFF0
0003FFFFF0
0003FFFFF0
0007FFFFF0
00078F0000
00078F0000
000F0F0000
000F0F0000
001E0F0000
001E0F0000
003C0F0000
003C0F0000
00780F0000
00780F0000
00F00FFFF0
00F00FFFF0
01E00FFFF0
01E00F0000
03C00F0000
03FFFF0000
07FFFF0000
07FFFF0000
0F800F0000
0F000F0000
1F000F0000
1E000F0000
1E000F0000
3C000F0000
3C000FFFF0
78000FFFF0
78000FFFF0
F0000FFFF0
ENDCHAR
STARTCHAR 01FD
ENCODING 509
SWIDTH 855 0
DWIDTH 38 0
BBX 34 34 2 0
BITMAP
00001F0000
00001E0000
00003C0000
0000780000
0000780000
0000F00000
0001C00000
0000000000
0000000000
0000000000
07FC07F800
1FFF1FFC00
3FFFBFFE00
1C07BC1F00
1003F80F80
0003F00780
0001F003C0
0001E003C0
0001E003C0
0001E003C0
03FFFFFFC0
1FFFFFFFC0
3FE1FFFFC0
7C01E00000
7801E00000
F001E00000
F001E00000
F003F00000
F003F00000
F807F80000
780F7E0380
7FFE3FFF80
3FFC1FFF80
1FF007FF00
ENDCHAR
STARTCHAR 01FE
ENCODING 510
SWIDTH 765 0
DWIDTH 34 0
BBX 29 43 3 -1
BITMAP
0000F800
0001F000
0001E000
0003C000
0003C000
00078000
000F0000
00000000
00000000
00000080
007FE1E0
01FFFDC0
07FFFFC0
0FF0FF80
1F800F80
3F000FC0
3E001FE0
7C003DE0
78003DF0
780078F0
F800F0F0
F001E0F8
F001E0F8
F003C078
F0078078
F0078078
F00F0078
F01E0078
F01C0078
F03C0078
F07800F8
F8F000F0
78F000F0
79E001F0
7FC001E0
3FC003E0
3F8007C0
1F800FC0
1FE03F80
1FFFFF00
3FFFFC00
78FFF000
18000000
ENDCHAR
STARTCHAR 01FF
ENCODING 511
SWIDTH 585 0
DWIDTH 26 0
BBX 22 35 2 -1
BITMAP
0007C0
000F80
000F00
001E00
001C00
003800
007000
000000
000000
000010
01FF3C
07FFF8
0FFFF0
1F83F0
3E01F8
3C03F8
7C03FC
7807BC
780F3C
781E3C
F81E3C
F03C3C
F0783C
F8703C
78F03C
79E03C
7BC03C
7BC07C
3F8078
3F00F8
1F01F0
1FFFE0
3FFFC0
79FF00
380000
ENDCHAR
STARTCHAR 0200
ENCODING 512
SWIDTH 630 0
DWIDTH 28 0
BBX 28 42 0 0
BITMAP
0F8F8000
07878000
03C7C000
03C3C000
01E1E000
00F0E000
00707000
00000000
00000000
00000000
000F0000
000F8000
001F8000
001F8000
001FC000
003FC000
003DC000
0039E000
0079E000
0078F000
00F0F000
00F07000
00E07800
01E07800
01E03C00
03C03C00
03C03C00
03C01E00
07801E00
07FFFF00
0FFFFF00
0FFFFF00
0F000780
1E000780
1E000780
1E0003C0
3C0003C0
3C0003E0
780001E0
780001E0
780000F0
F00000F0
ENDCHAR
STARTCHAR 0201
ENCODING 513
SWIDTH 540 0
DWIDTH 24 0
BBX 19 34 2 0
BITMAP
78F800
7C7800
3C3C00
1E1E00
0E0E00
070700
038300
000000
000000
000000
03FE00
1FFF80
1FFFC0
1E07E0
0001E0
0001E0
0001E0
0001E0
0000E0
0000E0
03FFE0
1FFFE0
3FF1E0
7E01E0
7801E0
F001E0
F001E0
F001E0
F003E0
F803E0
7C0FE0
7FFEE0
3FFCE0
1FF0E0
ENDCHAR
STARTCHAR 0202
ENCODING 514
SWIDTH 630 0
DWIDTH 28 0
BBX 28 41 0 0
BITMAP
000F0000
003FE000
007FF000
00F8F000
01C03800
01C03800
00000000
00000000
00000000
000F0000
000F8000
001F8000
001F8000
001FC000
003FC000
003DC000
0039E000
0079E000
0078F000
00F0F000
00F07000
00E07800
01E07800
01E03C00
03C03C00
03C03C00
03C01E00
07801E00
07FFFF00
0FFFFF00
0FFFFF00
0F000780
1E000780
1E000780
1E0003C0
3C0003C0
3C0003E0
780001E0
780001E0
780000F0
F00000F0
ENDCHAR
STARTCHAR 0203
ENCODING 515
SWIDTH 540 0
DWIDTH 24 0
BBX 19 33 2 0
BITMAP
00F800
03FE00
07FF00
0F8780
0E0380
0C0180
000000
000000
000000
03FE00
1FFF80
1FFFC0
1E07E0
0001E0
0001E0
0001E0
0001E0
0000E0
0000E0
03FFE0
1FFFE0
3FF1E0
7E01E0
7801E0
F001E0
F001E0
F001E0
F003E0
F803E0
7C0FE0
7FFEE0
3FFCE0
1FF0E0
ENDCHAR
STARTCHAR 0204
ENCODING 516
SWIDTH 540 0
DWIDTH 24 0
BBX 18 42 4 0
BITMAP
F1F000
F8F000
787800
3C3C00
1C1C00
0E0E00
070600
000000
000000
000000
FFFFC0
FFFFC0
FFFFC0
FFFFC0
F00000
F00000
F00000
F00000
F00000
F00000
F00000
F00000
F00000
F00000
FFFF80
FFFF80
FFFF80
F00000
F00000
F00000
F00000
F00000
F00000
F00000
F00000
F00000
F00000
F00000
FFFFC0
FFFFC0
FFFFC0
FFFFC0
ENDCHAR
STARTCHAR 0205
ENCODING 517
SWIDTH 562 0
DWIDTH 25 0
BBX 21 34 2 0
BITMAP
787800
7C7C00
3C3C00
1E1E00
0F0E00
070700
038380
000000
000000
000000
01FE00
07FF80
0FFFC0
1F03E0
3E01E0
3C00F0
7800F0
7800F8
780078
780078
FFFFF8
FFFFF8
FFFFF8
F80000
780000
780000
780000
7C0000
3C0000
3E0000
1F8070
0FFFF0
07FFF0
01FFC0
ENDCHAR
STARTCHAR 0206
ENCODING 518
SWIDTH 540 0
DWIDTH 24 0
BBX 18 41 4 0
BITMAP
00F000
07FC00
0FFE00
1F1F00
1C0700
180300
000000
000000
000000
FFFFC0
FFFFC0
FFFFC0
FFFFC0
F00000
F00000
F00000
F00000
F00000
F00000
F00000
F00000
F00000
F00000
FFFF80
FFFF80
FFFF80
F00000
F00000
F00000
F00000
F00000
F00000
F00000
F00000
F00000
F00000
F00000
FFFFC0
FFFFC0
FFFFC0
FFFFC0
ENDCHAR
STARTCHAR 0207
ENCODING 519
SWIDTH 562 0
DWIDTH 25 0
BBX 21 33 2 0
BITMAP
00FC00
03FE00
07FF00
0F8780
0E0180
0C0180
000000
000000
000000
01FE00
07FF80
0FFFC0
1F03E0
3E01E0
3C00F0
7800F0
7800F8
780078
780078
FFFFF8
FFFFF8
FFFFF8
F80000
780000
780000
780000
7C0000
3C0000
3E0000
1F8070
0FFFF0
07FFF0
01FFC0
ENDCHAR
STARTCHAR 0208
ENCODING 520
SWIDTH 337 0
DWIDTH 15 0
BBX 15 42 -2 0
BITMAP
F1F0
F8F0
7878
3C3C
1C1C
0E0E
0706
0000
0000
0000
0FFE
0FFE
0FFE
00F0
00F0
00F0
00F0
00F0
00F0
00F0
00F0
00F0
00F0
00F0
00F0
00F0
00F0
00F0
00F0
00F0
00F0
00F0
00F0
00F0
00F0
00F0
00F0
00F0
00F0
07FE
0FFE
0FFE
ENDCHAR
STARTCHAR 0209
ENCODING 521
SWIDTH 247 0
DWIDTH 11 0
BBX 16 34 -4 0
BITMAP
F0F0
78F8
7878
3C3C
1E1C
0E0E
0707
0000
0000
0000
00F0
00F0
00F0
00F0
00F0
00F0
00F0
00F0
00F0
00F0
00F0
00F0
00F0
00F0
00F0
00F0
00F0
00F0
00F0
00F0
00F0
00F0
00F0
00F0
ENDCHAR
STARTCHAR 020A
ENCODING 522
SWIDTH 337 0
DWIDTH 15 0
BBX 13 41 1 0
BITMAP
0780
3FE0
7FF0
F8F8
E038
C018
0000
0000
0000
7FF0
7FF0
7FF0
0780
0780
0780
0780
0780
0780
0780
0780
0780
0780
0780
0780
0780
0780
0780
0780
0780
0780
0780
0780
0780
0780
0780
0780
0780
0780
3FF0
7FF0
7FF0
ENDCHAR
STARTCHAR 020B
ENCODING 523
SWIDTH 247 0
DWIDTH 11 0
BBX 14 33 -1 0
BITMAP
0FC0
3FF0
7FF0
F878
E018
C01C
0000
0000
0000
0780
0780
0780
0780
0780
0780
0780
0780
0780
0780
0780
0780
0780
0780
0780
0780
0780
0780
0780
0780
0780
0780
0780
0780
ENDCHAR
STARTCHAR 020C
ENCODING 524
SWIDTH 765 0
DWIDTH 34 0
BBX 29 42 3 0
BITMAP
0F8F8000
07878000
03C3C000
01E1C000
00E1E000
0070F000
00307000
00000000
00000000
00000000
007FF000
01FFFC00
07FFFE00
0FF07F80
1F800F80
3F0007C0
3E0003E0
7C0001E0
780001F0
780000F0
F80000F0
F00000F8
F00000F8
F0000078
F0000078
F0000078
F0000078
F0000078
F0000078
F0000078
F00000F8
F80000F0
780000F0
780001F0
7C0001E0
3C0003E0
3E0007C0
1F800FC0
0FE03F80
07FFFF00
03FFFC00
00FFF000
ENDCHAR
STARTCHAR 020D
ENCODING 525
SWIDTH 585 0
DWIDTH 26 0
BBX 22 34 2 0
BITMAP
3C7C00
3E3C00
1E1E00
0F0F00
070700
038380
01C180
000000
000000
000000
01FF00
07FFC0
0FFFE0
1F83F0
3E00F8
3C0078
7C007C
78003C
78003C
78003C
F8003C
F0003C
F0003C
F8003C
78003C
78003C
78003C
78007C
3C0078
3E00F8
1F01F0
0FFFE0
07FFC0
01FF00
ENDCHAR
STARTCHAR 020E
ENCODING 526
SWIDTH 765 0
DWIDTH 34 0
BBX 29 41 3 0
BITMAP
000F8000
003FE000
007FF000
00F8F800
00E03800
01C01800
00000000
00000000
00000000
007FF000
01FFFC00
07FFFE00
0FF07F80
1F800F80
3F0007C0
3E0003E0
7C0001E0
780001F0
780000F0
F80000F0
F00000F8
F00000F8
F0000078
F0000078
F0000078
F0000078
F0000078
F0000078
F0000078
F00000F8
F80000F0
780000F0
780001F0
7C0001E0
3C0003E0
3E0007C0
1F800FC0
0FE03F80
07FFFF00
03FFFC00
00FFF000
ENDCHAR
STARTCHAR 020F
ENCODING 527
SWIDTH 585 0
DWIDTH 26 0
BBX 22 33 2 0
BITMAP
007C00
01FF00
03FF80
07C3C0
0701C0
0600C0
000000
000000
000000
01FF00
07FFC0
0FFFE0
1F83F0
3E00F8
3C0078
7C007C
78003C
78003C
78003C
F8003C
F0003C
F0003C
F8003C
78003C
78003C
78003C
78007C
3C0078
3E00F8
1F01F0
0FFFE0
07FFC0
01FF00
ENDCHAR
STARTCHAR 0210
ENCODING 528
SWIDTH 607 0
DWIDTH 27 0
BBX 23 42 4 0
BITMAP
F0F000
78F800
787800
3C3C00
1E1C00
0E0E00
070700
000000
000000
000000
FFF800
FFFF00
FFFFC0
FFFFE0
F003E0
F001F0
F000F0
F000F0
F000F8
F000F8
F000F8
F000F0
F000F0
F001F0
F003E0
F07FC0
FFFF80
FFFE00
FFFE00
F01E00
F00F00
F00F80
F00780
F007C0
F003C0
F003E0
F001F0
F000F0
F000F8
F00078
F0007C
F0003E
ENDCHAR
STARTCHAR 0211
ENCODING 529
SWIDTH 405 0
DWIDTH 18 0
BBX 17 34 1 0
BITMAP
F0F000
F8F800
787800
3C3C00
1E1C00
0E0E00
070700
000000
000000
000000
1C1F80
1C7F80
1CFF00
1DF000
1DC000
1F8000
1F0000
1E0000
1E0000
1E0000
1E0000
1E0000
1E0000
1E0000
1E0000
1E0000
1E0000
1E0000
1E0000
1E0000
1E0000
1E0000
1E0000
1E0000
ENDCHAR
STARTCHAR 0212
ENCODING 530
SWIDTH 607 0
DWIDTH 27 0
BBX 23 41 4 0
BITMAP
00F000
07FC00
0FFE00
0F0F00
1C0300
180380
000000
000000
000000
FFF800
FFFF00
FFFFC0
FFFFE0
F003E0
F001F0
F000F0
F000F0
F000F8
F000F8
F000F8
F000F0
F000F0
F001F0
F003E0
F07FC0
FFFF80
FFFE00
FFFE00
F01E00
F00F00
F00F80
F00780
F007C0
F003C0
F003E0
F001F0
F000F0
F000F8
F00078
F0007C
F0003E
ENDCHAR
STARTCHAR 0213
ENCODING 531
SWIDTH 405 0
DWIDTH 18 0
BBX 14 33 4 0
BITMAP
0FC0
3FE0
7FF0
F878
E018
C018
0000
0000
0000
E0FC
E3FC
E7F8
EF80
EE00
FC00
F800
F000
F000
F000
F000
F000
F000
F000
F000
F000
F000
F000
F000
F000
F000
F000
F000
F000
ENDCHAR
STARTCHAR 0214
ENCODING 532
SWIDTH 720 0
DWIDTH 32 0
BBX 24 42 4 0
BITMAP
3E3E00
1E1E00
0F0F00
070F00
078780
03C380
01C1C0
000000
000000
000000
F0000F
F0000F
F0000F
F0000F
F0000F
F0000F
F0000F
F0000F
F0000F
F0000F
F0000F
F0000F
F0000F
F0000F
F0000F
F0000F
F0000F
F0000F
F0000F
F0000F
F0000F
F0000F
F0000F
F0000F
F8000F
78001F
7C001E
3E003E
3F80FC
1FFFF8
07FFF0
03FFC0
ENDCHAR
STARTCHAR 0215
ENCODING 533
SWIDTH 607 0
DWIDTH 27 0
BBX 20 34 4 0
BITMAP
F0F000
78F800
787800
3C3C00
1E1C00
0E0E00
070700
000000
000000
000000
E000F0
E000F0
E000F0
E000F0
E000F0
E000F0
E000F0
E000F0
E000F0
E000F0
E000F0
E000F0
E000F0
E000F0
E000F0
E000F0
E001F0
F001F0
F001F0
F803F0
FC0FF0
7FFEF0
3FFCF0
1FF8F0
ENDCHAR
STARTCHAR 0216
ENCODING 534
SWIDTH 720 0
DWIDTH 32 0
BBX 24 41 4 0
BITMAP
003E00
00FF80
01FFC0
03E3E0
0300E0
070060
000000
000000
000000
F0000F
F0000F
F0000F
F0000F
F0000F
F0000F
F0000F
F0000F
F0000F
F0000F
F0000F
F0000F
F0000F
F0000F
F0000F
F0000F
F0000F
F0000F
F0000F
F0000F
F0000F
F0000F
F0000F
F0000F
F8000F
78001F
7C001E
3E003E
3F80FC
1FFFF8
07FFF0
03FFC0
ENDCHAR
STARTCHAR 0217
ENCODING 535
SWIDTH 607 0
DWIDTH 27 0
BBX 20 33 4 0
BITMAP
01F800
07FE00
0FFE00
1F0F00
1C0300
180380
000000
000000
000000
E000F0
E000F0
E000F0
E000F0
E000F0
E000F0
E000F0
E000F0
E000F0
E000F0
E000F0
E000F0
E000F0
E000F0
E000F0
E000F0
E001F0
F001F0
F001F0
F803F0
FC0FF0
7FFEF0
3FFCF0
1FF8F0
ENDCHAR
STARTCHAR 0218
ENCODING 536
SWIDTH 540 0
DWIDTH 24 0
BBX 20 42 2 -10
BITMAP
03FF00
0FFFE0
1FFFE0
3F8FE0
7C0060
780000
780000
780000
780000
780000
780000
7C0000
3F0000
3FC000
0FF000
07FC00
01FF00
007FC0
000FE0
0003E0
0001F0
0000F0
0000F0
0000F0
0000F0
0000F0
0000F0
8001E0
F807E0
FFFFC0
FFFF80
3FFE00
000000
000000
000000
00F000
00F000
00E000
00E000
01C000
01C000
018000
ENDCHAR
STARTCHAR 0219
ENCODING 537
SWIDTH 472 0
DWIDTH 21 0
BBX 17 34 2 -10
BITMAP
0FFE00
1FFF80
7FFF00
7C0700
F00000
F00000
F00000
F80000
7C0000
7F0000
3FE000
0FF800
03FE00
00FF00
001F80
000F80
000780
000780
000780
800780
E00F80
FFFF00
FFFE00
3FF800
000000
000000
000000
00E000
01E000
01E000
01C000
01C000
038000
030000
ENDCHAR
STARTCHAR 021A
ENCODING 538
SWIDTH 540 0
DWIDTH 24 0
BBX 24 42 0 -10
BITMAP
FFFFFF
FFFFFF
FFFFFF
FFFFFF
003C00
003C00
003C00
003C00
003C00
003C00
003C00
003C00
003C00
003C00
003C00
003C00
003C00
003C00
003C00
003C00
003C00
003C00
003C00
003C00
003C00
003C00
003C00
003C00
003C00
003C00
003C00
003C00
000000
000000
000000
001E00
001E00
001C00
003C00
003800
003800
003000
ENDCHAR
STARTCHAR 021B
ENCODING 539
SWIDTH 360 0
DWIDTH 16 0
BBX 14 39 1 -10
BITMAP
0E00
0E00
0E00
0E00
1E00
3FFC
FFFC
FFFC
1E00
1E00
1E00
1E00
1E00
1E00
1E00
1E00
1E00
1E00
1E00
1E00
1E00
1E00
1E00
1E00
1F00
0F00
0FFC
07FC
03FC
0000
0000
0000
01E0
01E0
01C0
01C0
0380
0380
0300
ENDCHAR
STARTCHAR 021C
ENCODING 540
SWIDTH 562 0
DWIDTH 25 0
BBX 21 40 2 -8
BITMAP
07FE00
3FFF80
7FFFC0
FE07E0
7001F0
4000F0
0000F0
0000F0
0000F0
0000F0
0000F0
0001F0
0003E0
000FC0
007F80
03FF00
07FF80
07C7E0
0603E0
0001F0
0000F8
000078
000078
000078
000078
000078
000078
0000F8
0000F0
0001F0
0003E0
000FC0
003FC0
00FF00
07FE00
3FF800
FFE000
FF0000
F80000
C00000
ENDCHAR
STARTCHAR 021D
ENCODING 541
SWIDTH 495 0
DWIDTH 22 0
BBX 19 35 1 -11
BITMAP
0FFC00
3FFF00
7FFF80
380F80
2007C0
0003C0
0003C0
0003C0
0003C0
0007C0
000780
001F80
007F00
01FC00
0FFF00
07DF80
0607C0
0003C0
0003E0
0001E0
0001E0
0001E0
0001E0
0003E0
0003C0
0007C0
000F80
001F80
007F00
03FC00
1FF800
FFE000
FF0000
F80000
800000
ENDCHAR
STARTCHAR 021E
ENCODING 542
SWIDTH 720 0
DWIDTH 32 0
BBX 25 42 4 0
BITMAP
07007000
03C1E000
01E3C000
00F78000
00FF0000
007F0000
003E0000
00000000
00000000
00000000
F0000780
F0000780
F0000780
F0000780
F0000780
F0000780
F0000780
F0000780
F0000780
F0000780
F0000780
F0000780
F0000780
F0000780
FFFFFF80
FFFFFF80
FFFFFF80
F0000780
F0000780
F0000780
F0000780
F0000780
F0000780
F0000780
F0000780
F0000780
F0000780
F0000780
F0000780
F0000780
F0000780
F0000780
ENDCHAR
STARTCHAR 021F
ENCODING 543
SWIDTH 607 0
DWIDTH 27 0
BBX 26 44 -2 0
BITMAP
F00E0000
781C0000
3C780000
1EF00000
0FF00000
07E00000
07C00000
00000000
00000000
00000000
03C00000
03C00000
03C00000
03C00000
03C00000
03C00000
03C00000
03C00000
03C00000
03C00000
03C7FC00
03CFFE00
03FFFF00
03FC1F80
03F00780
03E007C0
03E003C0
03C003C0
03C003C0
03C003C0
03C003C0
03C003C0
03C003C0
03C003C0
03C003C0
03C003C0
03C003C0
03C003C0
03C003C0
03C003C0
03C003C0
03C003C0
03C003C0
03C003C0
ENDCHAR
STARTCHAR 0220
ENCODING 544
SWIDTH 720 0
DWIDTH 32 0
BBX 25 43 4 -11
BITMAP
F03FE000
F0FFF800
F3FFFC00
F7E0FE00
FF003E00
FE001F00
FC000F00
F8000F80
F8000780
F8000780
F8000780
F0000780
F0000780
F0000780
F0000780
F0000780
F0000780
F0000780
F0000780
F0000780
F0000780
F0000780
F0000780
F0000780
F0000780
F0000780
F0000780
F0000780
F0000780
F0000780
F0000780
F0000780
00000780
00000780
00000780
00000780
00000780
00000780
00000780
00000780
00000780
00000780
00000780
ENDCHAR
STARTCHAR 0221
ENCODING 545
SWIDTH 855 0
DWIDTH 38 0
BBX 36 39 2 -5
BITMAP
00003C0000
00003C0000
00003C0000
00003C0000
00003C0000
00003C0000
00003C0000
00003C0000
00003C0000
00003C0000
03FC3C0000
07FF3C0000
1FFFBC0000
1F03FC0000
3E01FC0000
3C00FC0000
7C007C0000
78007C0000
78007C0000
78003C0000
F8003C0000
F0003C0000
F0003C0000
F8003C0000
78003C3FC0
78007C7FE0
78007CFFE0
78007DE0F0
7C007FC0F0
3E00FF80F0
3F03DF81E0
1FFFCFFFE0
0FFF87FFC0
03FE0FFF00
00000F0000
00000E0000
00000E0000
00000E0000
00000E0000
ENDCHAR
STARTCHAR 0222
ENCODING 546
SWIDTH 652 0
DWIDTH 29 0
BBX 24 32 3 0
BITMAP
78001E
78001E
78001E
78001E
78001E
78001E
78003C
3C003C
3C007C
3E0078
1F81F8
0FFFF0
03FFC0
0FFFE0
1FFFF8
3E007C
7C003E
F8001E
F0001F
F0000F
F0000F
F0000F
F0000F
F0000F
F0000F
F8001F
78001E
7C003E
3F00FC
1FFFF8
0FFFF0
03FFC0
ENDCHAR
STARTCHAR 0223
ENCODING 547
SWIDTH 585 0
DWIDTH 26 0
BBX 22 34 2 0
BITMAP
3C0078
3C0078
3C0078
3C0078
3C0078
3C0078
3C0078
3C0078
3C0078
3C00F0
3E00F0
1F01F0
0FFFE0
07FFC0
07FF80
1FFFE0
3E01F0
3C00F8
780078
78003C
F8003C
F0003C
F0003C
F0003C
F0003C
F0003C
78003C
78007C
780078
3C00F8
3F01F0
1FFFE0
0FFFC0
03FF00
ENDCHAR
STARTCHAR 0224
ENCODING 548
SWIDTH 562 0
DWIDTH 25 0
BBX 22 41 2 -9
BITMAP
FFFFF8
FFFFF8
FFFFF8
FFFFF8
0000F0
0001F0
0001E0
0003C0
0007C0
000780
000F00
001F00
001E00
003C00
007C00
007800
00F000
01F000
01E000
03C000
07C000
078000
0F0000
1F0000
1E0000
3C0000
7C0000
780000
FFFFFC
FFFFFC
FFFFFC
FFFFFC
00003C
00003C
00003C
00003C
00003C
0003F8
0003F8
0003F0
0003C0
ENDCHAR
STARTCHAR 0225
ENCODING 549
SWIDTH 450 0
DWIDTH 20 0
BBX 17 33 2 -9
BITMAP
FFFF80
FFFF80
FFFF80
000F80
000F00
001E00
003C00
007C00
007800
00F000
01F000
01E000
03C000
07C000
078000
0F0000
1E0000
3E0000
3C0000
780000
F80000
FFFF80
FFFF80
FFFF80
000380
000380
000380
000380
000780
007F80
007F00
007F00
003C00
ENDCHAR
STARTCHAR 0226
ENCODING 550
SWIDTH 630 0
DWIDTH 28 0
BBX 28 41 0 0
BITMAP
00060000
000F0000
000F0000
000F0000
000F0000
00000000
00000000
00000000
00000000
000F0000
000F8000
001F8000
001F8000
001FC000
003FC000
003DC000
0039E000
0079E000
0078F000
00F0F000
00F07000
00E07800
01E07800
01E03C00
03C03C00
03C03C00
03C01E00
07801E00
07FFFF00
0FFFFF00
0FFFFF00
0F000780
1E000780
1E000780
1E0003C0
3C0003C0
3C0003E0
780001E0
780001E0
780000F0
F00000F0
ENDCHAR
STARTCHAR 0227
ENCODING 551
SWIDTH 540 0
DWIDTH 24 0
BBX 19 33 2 0
BITMAP
007000
00F800
00F800
00F800
007000
000000
000000
000000
000000
03FE00
1FFF80
1FFFC0
1E07E0
0001E0
0001E0
0001E0
0001E0
0000E0
0000E0
03FFE0
1FFFE0
3FF1E0
7E01E0
7801E0
F001E0
F001E0
F001E0
F003E0
F803E0
7C0FE0
7FFEE0
3FFCE0
1FF0E0
ENDCHAR
STARTCHAR 0228
ENCODING 552
SWIDTH 540 0
DWIDTH 24 0
BBX 18 43 4 -11
BITMAP
FFFFC0
FFFFC0
FFFFC0
FFFFC0
F00000
F00000
F00000
F00000
F00000
F00000
F00000
F00000
F00000
F00000
FFFF80
FFFF80
FFFF80
F00000
F00000
F00000
F00000
F00000
F00000
F00000
F00000
F00000
F00000
F00000
FFFFC0
FFFFC0
FFFFC0
FFFFC0
00E000
00C000
01C000
01F800
007800
003C00
001C00
003C00
07F800
07F000
038000
ENDCHAR
STARTCHAR 0229
ENCODING 553
SWIDTH 562 0
DWIDTH 25 0
BBX 21 35 2 -11
BITMAP
01FE00
07FF80
0FFFC0
1F03E0
3E01E0
3C00F0
7800F0
7800F8
780078
780078
FFFFF8
FFFFF8
FFFFF8
F80000
780000
780000
780000
7C0000
3C0000
3E0000
1F8070
0FFFF0
07FFF0
01FFC0
003800
003000
007800
007E00
001E00
000700
000700
000F00
01FE00
01FC00
00E000
ENDCHAR
STARTCHAR 022A
ENCODING 554
SWIDTH 765 0
DWIDTH 34 0
BBX 29 45 3 0
BITMAP
00FFF800
00FFF800
00FFF800
00000000
00000000
00000000
00707000
00F0F800
00F0F800
00F07000
00000000
00000000
00000000
007FF000
01FFFC00
07FFFE00
0FF07F80
1F800F80
3F0007C0
3E0003E0
7C0001E0
780001F0
780000F0
F80000F0
F00000F8
F00000F8
F0000078
F0000078
F0000078
F0000078
F0000078
F0000078
F0000078
F00000F8
F80000F0
780000F0
780001F0
7C0001E0
3C0003E0
3E0007C0
1F800FC0
0FE03F80
07FFFF00
03FFFC00
00FFF000
ENDCHAR
STARTCHAR 022B
ENCODING 555
SWIDTH 585 0
DWIDTH 26 0
BBX 22 37 2 0
BITMAP
07FFC0
07FFC0
07FFC0
000000
000000
000000
038380
0783C0
0783C0
038380
000000
000000
000000
01FF00
07FFC0
0FFFE0
1F83F0
3E00F8
3C0078
7C007C
78003C
78003C
78003C
F8003C
F0003C
F0003C
F8003C
78003C
78003C
78003C
78007C
3C0078
3E00F8
1F01F0
0FFFE0
07FFC0
01FF00
ENDCHAR
STARTCHAR 022C
ENCODING 556
SWIDTH 765 0
DWIDTH 34 0
BBX 29 45 3 0
BITMAP
00FFF800
00FFF800
00FFF800
00000000
00000000
00781C00
00FE1C00
00FFF800
01C7F800
0181F000
00000000
00000000
00000000
007FF000
01FFFC00
07FFFE00
0FF07F80
1F800F80
3F0007C0
3E0003E0
7C0001E0
780001F0
780000F0
F80000F0
F00000F8
F00000F8
F0000078
F0000078
F0000078
F0000078
F0000078
F0000078
F0000078
F00000F8
F80000F0
780000F0
780001F0
7C0001E0
3C0003E0
3E0007C0
1F800FC0
0FE03F80
07FFFF00
03FFFC00
00FFF000
ENDCHAR
STARTCHAR 022D
ENCODING 557
SWIDTH 585 0
DWIDTH 26 0
BBX 22 37 2 0
BITMAP
07FFC0
07FFC0
07FFC0
000000
000000
03C060
07F8E0
07FFC0
0E3FC0
0C0F80
000000
000000
000000
01FF00
07FFC0
0FFFE0
1F83F0
3E00F8
3C0078
7C007C
78003C
78003C
78003C
F8003C
F0003C
F0003C
F8003C
78003C
78003C
78003C
78007C
3C0078
3E00F8
1F01F0
0FFFE0
07FFC0
01FF00
ENDCHAR
STARTCHAR 022E
ENCODING 558
SWIDTH 765 0
DWIDTH 34 0
BBX 29 41 3 0
BITMAP
00020000
000F0000
000F8000
000F8000
00070000
00000000
00000000
00000000
00000000
007FF000
01FFFC00
07FFFE00
0FF07F80
1F800F80
3F0007C0
3E0003E0
7C0001E0
780001F0
780000F0
F80000F0
F00000F8
F00000F8
F0000078
F0000078
F0000078
F0000078
F0000078
F0000078
F0000078
F00000F8
F80000F0
780000F0
780001F0
7C0001E0
3C0003E0
3E0007C0
1F800FC0
0FE03F80
07FFFF00
03FFFC00
00FFF000
ENDCHAR
STARTCHAR 022F
ENCODING 559
SWIDTH 585 0
DWIDTH 26 0
BBX 22 33 2 0
BITMAP
003800
007C00
007C00
007C00
003800
000000
000000
000000
000000
01FF00
07FFC0
0FFFE0
1F83F0
3E00F8
3C0078
7C007C
78003C
78003C
78003C
F8003C
F0003C
F0003C
F8003C
78003C
78003C
78003C
78007C
3C0078
3E00F8
1F01F0
0FFFE0
07FFC0
01FF00
ENDCHAR
STARTCHAR 0230
ENCODING 560
SWIDTH 765 0
DWIDTH 34 0
BBX 29 44 3 0
BITMAP
00FFF800
00FFF800
00FFF800
00000000
00000000
00070000
000F8000
000F8000
000F0000
00070000
00000000
00000000
007FF000
01FFFC00
07FFFE00
0FF07F80
1F800F80
3F0007C0
3E0003E0
7C0001E0
780001F0
780000F0
F80000F0
F00000F8
F00000F8
F0000078
F0000078
F0000078
F0000078
F0000078
F0000078
F0000078
F00000F8
F80000F0
780000F0
780001F0
7C0001E0
3C0003E0
3E0007C0
1F800FC0
0FE03F80
07FFFF00
03FFFC00
00FFF000
ENDCHAR
STARTCHAR 0231
ENCODING 561
SWIDTH 585 0
DWIDTH 26 0
BBX 22 37 2 0
BITMAP
07FFC0
07FFC0
07FFC0
000000
000000
003800
007C00
007C00
007C00
003800
000000
000000
000000
01FF00
07FFC0
0FFFE0
1F83F0
3E00F8
3C0078
7C007C
78003C
78003C
78003C
F8003C
F0003C
F0003C
F8003C
78003C
78003C
78003C
78007C
3C0078
3E00F8
1F01F0
0FFFE0
07FFC0
01FF00
ENDCHAR
STARTCHAR 0232
ENCODING 562
SWIDTH 562 0
DWIDTH 25 0
BBX 25 38 0 0
BITMAP
03FFE000
03FFE000
03FFE000
00000000
00000000
00000000
F0000780
78000F80
7C000F00
3C001E00
3E001E00
1E003C00
1F003C00
0F007800
0F80F800
0780F000
03C1F000
03C1E000
01E3E000
01E3C000
00F78000
00F78000
007F0000
007F0000
003E0000
003E0000
001E0000
001E0000
001E0000
001E0000
001E0000
001E0000
001E0000
001E0000
001E0000
001E0000
001E0000
001E0000
ENDCHAR
STARTCHAR 0233
ENCODING 563
SWIDTH 495 0
DWIDTH 22 0
BBX 23 41 0 -11
BITMAP
07FFC0
07FFC0
07FFC0
000000
000000
000000
F0003E
78003C
78003C
780078
3C0078
3C0078
1E00F0
1E00F0
1E01F0
0F01E0
0F01E0
0783C0
0783C0
0783C0
03C780
03C780
01C700
01EF00
01EF00
00EE00
00FE00
007E00
007C00
007C00
007800
007800
007800
00F000
00F000
01E000
03E000
FFC000
FF8000
FF0000
3C0000
ENDCHAR
STARTCHAR 0234
ENCODING 564
SWIDTH 360 0
DWIDTH 16 0
BBX 16 35 0 -1
BITMAP
0F00
0F00
0F00
0F00
0F00
0F00
0F00
0F00
0F00
0F00
0F00
0F00
0F00
0F00
0F00
0F00
0F00
0F00
0F00
0F00
0F00
0F00
0F00
0F00
0FFC
0FFE
0FFF
0F0F
1F07
3F07
3F07
7FFF
73FE
F1FC
7000
ENDCHAR
STARTCHAR 0235
ENCODING 565
SWIDTH 742 0
DWIDTH 33 0
BBX 29 25 4 -1
BITMAP
E1FF0000
E7FF8000
EFFFC000
FF07E000
FC01E000
F801F000
F800F000
F000F000
F000F000
F000F000
F000F000
F000F000
F000F000
F000F000
F000FFC0
F000FFE0
F000FFF0
F000F070
F001F078
F001F078
F003F878
F003FFF0
F007BFF0
F0071FE0
00030000
ENDCHAR
STARTCHAR 0236
ENCODING 566
SWIDTH 382 0
DWIDTH 17 0
BBX 16 30 1 -1
BITMAP
0E00
0E00
0E00
0E00
1E00
3FFC
FFFC
FFFC
1E00
1E00
1E00
1E00
1E00
1E00
1E00
1E00
1E00
1E00
1E00
1FF8
1FFC
1FFE
1F0F
3E0F
3E0F
7F0F
7FFE
F7FE
E3FC
6000
ENDCHAR
STARTCHAR 0237
ENCODING 567
SWIDTH 247 0
DWIDTH 11 0
BBX 10 35 -2 -11
BITMAP
03C0
03C0
03C0
03C0
03C0
03C0
03C0
03C0
03C0
03C0
03C0
03C0
03C0
03C0
03C0
03C0
03C0
03C0
03C0
03C0
03C0
03C0
03C0
03C0
03C0
03C0
03C0
03C0
03C0
03C0
0780
FF80
FF00
FE00
7000
ENDCHAR
STARTCHAR 0238
ENCODING 568
SWIDTH 967 0
DWIDTH 43 0
BBX 39 34 2 0
BITMAP
00003C0000
00003C0000
00003C0000
00003C0000
00003C0000
00003C0000
00003C0000
00003C0000
00003C0000
00003C0000
03FC3C7F80
07FF39FFE0
1FFFBBFFF0
1F03FF81F8
3E00FF00F8
3C00FE007C
7C007C003C
78007C003C
78007C003C
78003C001E
F8003C001E
F0003C001E
F0003C001E
F8003C001E
78007C001E
78007C003C
78007C003C
78007C003C
7C00FE007C
3E01EF0078
1F03EF81F8
1FFFC7FFF0
0FFF83FFE0
03FE00FF80
ENDCHAR
STARTCHAR 0239
ENCODING 569
SWIDTH 967 0
DWIDTH 43 0
BBX 39 35 2 -11
BITMAP
01FE00FF80
07FF81FFC0
0FFFC7FFF0
1F03E7C1F8
3E01EF00F8
3C00FE007C
78007E003C
78007C003C
78007C003C
78007C001E
F8003C001E
F0003C001E
F0003C001E
F8003C001E
78003C001E
78007C003C
78007C003C
78007C003C
7C00FE007C
3E00FE00F8
3F03FF81F8
1FFFBBFFF0
0FFF39FFE0
03FE387F80
00003C0000
00003C0000
00003C0000
00003C0000
00003C0000
00003C0000
00003C0000
00003C0000
00003C0000
00003C0000
00003C0000
ENDCHAR
STARTCHAR 023A
ENCODING 570
SWIDTH 630 0
DWIDTH 28 0
BBX 28 37 0 -3
BITMAP
00001C00
00001C00
000F3800
000FB800
001FB800
001FF000
001FF000
003FF000
003DE000
0039E000
0079E000
0079F000
00F1F000
00F1F000
00E3F800
01E3F800
01E3BC00
03C73C00
03C73C00
03C71E00
078E1E00
07FFFF00
0FFFFF00
0FFFFF00
0F1C0780
1E380780
1E380780
1E3803C0
3C7003C0
3C7003E0
787001E0
78E001E0
78E000F0
F0E000F0
01C00000
01C00000
01C00000
ENDCHAR
STARTCHAR 023B
ENCODING 571
SWIDTH 630 0
DWIDTH 28 0
BBX 23 37 3 -3
BITMAP
00001C
000038
003FF8
01FFFE
03FFFE
0FF87E
1FC074
1F00E0
3E00E0
3C00E0
7C01C0
7801C0
F801C0
F00380
F00380
F00380
F00700
F00700
F00700
F00E00
F00E00
F01C00
F01C00
F81C00
F83800
783800
7C3800
3E7000
3F7000
1FF000
0FE01C
07FFFC
03FFFC
01FFFC
01C000
01C000
038000
ENDCHAR
STARTCHAR 023C
ENCODING 572
SWIDTH 472 0
DWIDTH 21 0
BBX 19 43 2 -9
BITMAP
0000E0
0000E0
0001C0
0001C0
0001C0
000380
000380
000380
000700
000700
01FF80
07FFC0
0FFF80
1F8F80
3E1C00
3C1C00
7C3C00
783800
783800
787000
F87000
F07000
F0E000
F8E000
78E000
79C000
79C000
79C000
3F8000
3F8000
1F8180
1FFF80
07FF80
0FFF80
0E0000
0E0000
1C0000
1C0000
1C0000
380000
380000
380000
700000
ENDCHAR
STARTCHAR 023D
ENCODING 573
SWIDTH 517 0
DWIDTH 23 0
BBX 22 32 0 0
BITMAP
0F0000
0F0000
0F0000
0F0000
0F0000
0F0000
0F0000
0F0000
0F0000
0F0000
0F0000
0F0000
0F0000
0F0000
FFFF00
FFFF00
FFFF00
0F0000
0F0000
0F0000
0F0000
0F0000
0F0000
0F0000
0F0000
0F0000
0F0000
0F0000
0FFFFC
0FFFFC
0FFFFC
0FFFFC
ENDCHAR
STARTCHAR 023E
ENCODING 574
SWIDTH 540 0
DWIDTH 24 0
BBX 24 37 0 -3
BITMAP
00000E
00001E
FFFFFF
FFFFFF
FFFFFF
FFFFFF
003C70
003C70
003CE0
003CE0
003DC0
003DC0
003F80
003F80
003F80
003F00
003F00
003E00
003E00
003C00
003C00
003C00
003C00
007C00
007C00
00FC00
00FC00
01FC00
01FC00
03FC00
03BC00
07BC00
073C00
073C00
0E0000
0E0000
1C0000
ENDCHAR
STARTCHAR 023F
ENCODING 575
SWIDTH 472 0
DWIDTH 21 0
BBX 18 35 2 -11
BITMAP
0FFE00
1FFF80
7FFF00
7C0700
F00000
F00000
F00000
F80000
7C0000
7F0000
3FE000
0FF800
03FE00
00FF00
001F80
000F80
000780
000780
000780
800780
E00F80
FFFF00
FFFE00
7FF800
0F0000
078000
038000
03C000
03C000
03E000
01E000
01FFC0
00FFC0
007FC0
000700
ENDCHAR
STARTCHAR 0240
ENCODING 576
SWIDTH 450 0
DWIDTH 20 0
BBX 18 35 2 -11
BITMAP
FFFF80
FFFF80
FFFF80
000F80
000F00
001E00
003C00
007C00
007800
00F000
01F000
01E000
03C000
07C000
078000
0F0000
1E0000
3E0000
3C0000
780000
F80000
FC0000
FF0000
FF8000
0F8000
07C000
03C000
03C000
01E000
01E000
00F000
00FFC0
007FC0
003FC0
000780
ENDCHAR
STARTCHAR 0241
ENCODING 577
SWIDTH 427 0
DWIDTH 19 0
BBX 18 32 0 0
BITMAP
0FF800
7FFE00
FFFF00
7E7F80
600FC0
0007C0
0003C0
0003C0
0003C0
0003C0
0003C0
0007C0
000780
000F80
001F00
003F00
00FE00
03FC00
03F000
03C000
03C000
03C000
03C000
03C000
03C000
03C000
03C000
03C000
03C000
03C000
03C000
03C000
ENDCHAR
STARTCHAR 0242
ENCODING 578
SWIDTH 427 0
DWIDTH 19 0
BBX 17 24 1 0
BITMAP
1FF000
7FFC00
FFFE00
F03F00
400F00
000F00
000780
000780
000780
000780
000F80
000F00
000F00
001E00
003E00
007C00
01F800
07F000
07E000
078000
070000
070000
070000
070000
ENDCHAR
STARTCHAR 0243
ENCODING 579
SWIDTH 630 0
DWIDTH 28 0
BBX 25 32 1 0
BITMAP
1FFE0000
1FFFF000
1FFFFC00
1FFFFE00
1E003F00
1E001F00
1E000F00
1E000F00
1E000F00
1E000F00
1E000F00
1E000F00
1E001E00
1E00FC00
1FFFF800
1FFFE000
1FFFFC00
1E007E00
1E001F00
1E000F80
1E000780
FFFC0780
FFFC0780
FFFC0780
1E000780
1E000780
1E000F80
1E001F00
1E01FF00
1FFFFE00
1FFFF800
1FFFE000
ENDCHAR
STARTCHAR 0244
ENCODING 580
SWIDTH 720 0
DWIDTH 32 0
BBX 32 32 0 0
BITMAP
0F0000F0
0F0000F0
0F0000F0
0F0000F0
0F0000F0
0F0000F0
0F0000F0
0F0000F0
0F0000F0
0F0000F0
0F0000F0
0F0000F0
0F0000F0
FFFFFFFF
FFFFFFFF
FFFFFFFF
0F0000F0
0F0000F0
0F0000F0
0F0000F0
0F0000F0
0F0000F0
0F0000F0
0F0000F0
0F8000F0
078001F0
07C001E0
03E003E0
03F80FC0
01FFFF80
007FFF00
003FFC00
ENDCHAR
STARTCHAR 0245
ENCODING 581
SWIDTH 607 0
DWIDTH 27 0
BBX 27 32 0 0
BITMAP
000E0000
001F0000
001F0000
003F8000
003B8000
003B8000
007BC000
007BC000
0071C000
00F1E000
00F1E000
00E0F000
01E0F000
01E07000
03C07800
03C07800
03803800
07803C00
07803C00
07001C00
0F001E00
0F001E00
1E000F00
1E000F00
1E000F00
3C000780
3C000780
3C000780
780003C0
780003C0
780003C0
F00001E0
ENDCHAR
STARTCHAR 0246
ENCODING 582
SWIDTH 540 0
DWIDTH 24 0
BBX 18 37 4 -3
BITMAP
000700
000700
FFFFC0
FFFFC0
FFFFC0
FFFFC0
F00E00
F00E00
F01C00
F01C00
F01C00
F01C00
F03800
F03800
F03800
F03800
FFFF80
FFFF80
FFFF80
F07000
F0E000
F0E000
F0E000
F0C000
F1C000
F1C000
F1C000
F18000
F38000
F38000
FFFFC0
FFFFC0
FFFFC0
FFFFC0
070000
060000
0E0000
ENDCHAR
STARTCHAR 0247
ENCODING 583
SWIDTH 562 0
DWIDTH 25 0
BBX 21 43 2 -9
BITMAP
0000E0
0000E0
0000E0
0001C0
0001C0
000380
000380
000380
000700
000700
01FF00
07FF80
0FFFC0
1F0FE0
3E1DE0
3C1CF0
781CF0
7838F0
783878
783878
FFFFF8
FFFFF8
FFFFF8
F0E000
78E000
78E000
79C000
7DC000
3DC000
3F8000
1F8070
0FFFF0
07FFF0
07FFC0
0E0000
0E0000
0E0000
1C0000
1C0000
1C0000
380000
380000
380000
ENDCHAR
STARTCHAR 0248
ENCODING 584
SWIDTH 270 0
DWIDTH 12 0
BBX 15 40 -3 -8
BITMAP
01E0
01E0
01E0
01E0
01E0
01E0
01E0
01E0
01E0
01E0
01E0
01E0
01E0
01E0
01E0
1FFE
1FFE
1FFE
01E0
01E0
01E0
01E0
01E0
01E0
01E0
01E0
01E0
01E0
01E0
01E0
01E0
01E0
01E0
01E0
01E0
03E0
07C0
FF80
FF80
FE00
ENDCHAR
STARTCHAR 0249
ENCODING 585
SWIDTH 247 0
DWIDTH 11 0
BBX 13 44 -2 -11
BITMAP
0180
03C0
07C0
03C0
0380
0000
0000
0000
0000
03C0
03C0
03C0
03C0
03C0
03C0
03C0
03C0
03C0
03C0
3FF8
3FF8
3FF8
03C0
03C0
03C0
03C0
03C0
03C0
03C0
03C0
03C0
03C0
03C0
03C0
03C0
03C0
03C0
03C0
03C0
0780
FF80
FF00
FE00
7000
ENDCHAR
STARTCHAR 024A
ENCODING 586
SWIDTH 765 0
DWIDTH 34 0
BBX 32 43 3 -11
BITMAP
007FC0E0
03FFF1E0
07FFF9E0
0FE1FDE0
1F801FE0
3E000FE0
3C0007E0
7C0003E0
780003E0
780003E0
F80001E0
F00001E0
F00001E0
F00001E0
F00001E0
F00001E0
F00001E0
F00001E0
F00001E0
F00001E0
F00001E0
F00001E0
F80003E0
780003E0
7C0003E0
3C0007E0
3E0007E0
1F000FE0
0FC07DE0
07FFF9E0
03FFF1E0
00FFC1E0
000001E0
000001E0
000001E0
000001E0
000001E0
000001E0
000001F0
000001FF
000000FF
0000007F
0000000E
ENDCHAR
STARTCHAR 024B
ENCODING 587
SWIDTH 607 0
DWIDTH 27 0
BBX 26 35 2 -11
BITMAP
03FC3C00
07FF3C00
1FFFBC00
1F03FC00
3E01FC00
3C00FC00
78007C00
78007C00
78007C00
78003C00
F8003C00
F0003C00
F0003C00
F8003C00
78003C00
78007C00
78007C00
78007C00
7C007C00
3E00FC00
3F03FC00
1FFFBC00
0FFF3C00
03FE3C00
00003C00
00003C00
00003C00
00003C00
00003C00
00003C00
00003C00
00003FC0
00001FC0
00001FC0
00000700
ENDCHAR
STARTCHAR 024C
ENCODING 588
SWIDTH 607 0
DWIDTH 27 0
BBX 27 32 0 0
BITMAP
0FFF8000
0FFFF000
0FFFFC00
0FFFFE00
0F003E00
0F001F00
0F000F00
0F000F00
0F000F80
0F000F80
0F000F80
0F000F00
0F000F00
0F001F00
0F003E00
0F07FC00
FFFFF800
FFFFE000
FFFFE000
0F01E000
0F00F000
0F00F800
0F007800
0F007C00
0F003C00
0F003E00
0F001F00
0F000F00
0F000F80
0F000780
0F0007C0
0F0003E0
ENDCHAR
STARTCHAR 024D
ENCODING 589
SWIDTH 405 0
DWIDTH 18 0
BBX 18 24 0 0
BITMAP
0E0FC0
0E3FC0
0E7F80
0EFC00
0EE000
0FC000
0F8000
0F0000
0F0000
0F0000
FFF800
FFF800
FFF800
0F0000
0F0000
0F0000
0F0000
0F0000
0F0000
0F0000
0F0000
0F0000
0F0000
0F0000
ENDCHAR
STARTCHAR 024E
ENCODING 590
SWIDTH 562 0
DWIDTH 25 0
BBX 25 32 0 0
BITMAP
F0000780
78000F80
7C000F00
3C001E00
3E001E00
1E003C00
FFFFFF80
FFFFFF80
FFFFFF80
0780F000
03C1F000
03C1E000
01E3E000
01E3C000
00F78000
00F78000
007F0000
007F0000
003E0000
003E0000
001E0000
001E0000
001E0000
001E0000
001E0000
001E0000
001E0000
001E0000
001E0000
001E0000
001E0000
001E0000
ENDCHAR
STARTCHAR 024F
ENCODING 591
SWIDTH 495 0
DWIDTH 22 0
BBX 23 35 0 -11
BITMAP
F0003E
78003C
78003C
780078
3C0078
3C0078
1E00F0
1E00F0
FFFFFC
FFFFFC
FFFFFC
0783C0
0783C0
0783C0
03C780
03C780
01C700
01EF00
01EF00
00EE00
00FE00
007E00
007C00
007C00
007800
007800
007800
00F000
00F000
01E000
03E000
FFC000
FF8000
FF0000
3C0000
ENDCHAR
STARTCHAR 0250
ENCODING 592
SWIDTH 540 0
DWIDTH 24 0
BBX 19 24 4 0
BITMAP
E1FE00
E7FF80
EFFFC0
FE07C0
FC03E0
F801E0
F001E0
F001E0
F001E0
E003C0
E007C0
E07F80
FFFF00
FFFC00
F00000
E00000
E00000
F00000
F00000
F00000
F80F00
7FFF00
3FFF00
1FFC00
ENDCHAR
STARTCHAR 0251
ENCODING 593
SWIDTH 607 0
DWIDTH 27 0
BBX 25 24 2 0
BITMAP
03FC3C00
07FF3C00
1FFFBC00
1F03FC00
3E01FC00
3C00FC00
7C007C00
78007C00
78007C00
78003C00
F8003C00
F0003C00
F0003C00
F8003C00
78003C00
78007C00
78007C00
78007C00
7C007C00
3E00FC00
3F03FC00
1FFFBF80
0FFF3F80
03FE1F80
ENDCHAR
STARTCHAR 0252
ENCODING 594
SWIDTH 607 0
DWIDTH 27 0
BBX 24 24 1 0
BITMAP
F83FC0
FCFFF0
FDFFF8
3FC0FC
1F803C
1F003E
1E001E
1E001E
1E001F
1E000F
1E000F
1E000F
1E000F
1E000F
1E000F
1E001F
1E001E
1E001E
1F003E
1F803C
1FC0FC
1DFFF8
1CFFF0
1C3FC0
ENDCHAR
STARTCHAR 0253
ENCODING 595
SWIDTH 607 0
DWIDTH 27 0
BBX 21 34 4 0
BITMAP
1F0000
7F0000
FF0000
F90000
F00000
F00000
F00000
F00000
F00000
F00000
F1FE00
F7FF80
FFFFC0
FE07E0
FC03E0
F801F0
F800F0
F000F0
F00078
F00078
F00078
F00078
F00078
F00078
F00078
F00078
F000F0
F000F0
F801F0
FC01E0
FE07E0
EFFFC0
E7FF80
E1FE00
ENDCHAR
STARTCHAR 0254
ENCODING 596
SWIDTH 472 0
DWIDTH 21 0
BBX 17 24 2 0
BITMAP
7FE000
FFF800
FFFC00
E0FE00
003E00
001F00
000F00
000F00
000780
000780
000780
000780
000780
000780
000780
000F80
000F00
000F00
001F00
003E00
C07C00
FFFC00
FFF000
FFE000
ENDCHAR
STARTCHAR 0255
ENCODING 597
SWIDTH 517 0
DWIDTH 23 0
BBX 20 26 2 -2
BITMAP
01FF80
07FFC0
0FFFC0
1F8380
3E0000
3C0000
3C0000
780000
780000
780000
780000
780000
780000
787F80
79FFC0
7BFFE0
7FC1E0
7F00F0
3E00F0
3E00F0
3F81E0
7FFFE0
7FFFC0
71FF00
F00000
200000
ENDCHAR
STARTCHAR 0256
ENCODING 598
SWIDTH 607 0
DWIDTH 27 0
BBX 27 45 2 -11
BITMAP
00003C00
00003C00
00003C00
00003C00
00003C00
00003C00
00003C00
00003C00
00003C00
00003C00
03FC3C00
07FF3C00
1FFFBC00
1F03FC00
3E01FC00
3C00FC00
7C007C00
78007C00
78007C00
78003C00
F8003C00
F0003C00
F0003C00
F8003C00
78003C00
78007C00
78007C00
78007C00
7C007C00
3E00FC00
3F03FC00
1FFFBC00
0FFF3C00
03FE3C00
00003C00
00003C00
00003C00
00003C00
00003C00
00003C00
00003C00
00003FE0
00001FE0
00000FE0
00000380
ENDCHAR
STARTCHAR 0257
ENCODING 599
SWIDTH 607 0
DWIDTH 27 0
BBX 26 34 2 0
BITMAP
00000FC0
00001FC0
00003FC0
00003E40
00003C00
00003C00
00003C00
00003C00
00003C00
00003C00
03FC3C00
07FF3C00
1FFFBC00
1F03FC00
3E01FC00
3C00FC00
7C007C00
78007C00
78007C00
78003C00
F8003C00
F0003C00
F0003C00
F8003C00
78003C00
78007C00
78007C00
78007C00
7C007C00
3E00FC00
3F03FC00
1FFFBC00
0FFF3C00
03FE3C00
ENDCHAR
STARTCHAR 0258
ENCODING 600
SWIDTH 562 0
DWIDTH 25 0
BBX 21 24 2 0
BITMAP
03FC00
0FFF00
1FFF80
3E07C0
3C03E0
7801E0
7800F0
7800F0
F000F0
F000F0
FFFFF8
FFFFF8
FFFFF8
000078
0000F0
0000F0
0000F0
0000F0
0001E0
0003E0
700FC0
7FFF80
7FFF00
1FFC00
ENDCHAR
STARTCHAR 0259
ENCODING 601
SWIDTH 562 0
DWIDTH 25 0
BBX 21 24 2 0
BITMAP
0FFC00
7FFF00
7FFF80
780FC0
4003E0
0001E0
0001F0
0000F0
0000F0
0000F0
000078
FFFFF8
FFFFF8
FFFFF8
F000F0
F000F0
F800F0
7800F0
7801E0
3C03E0
3E07C0
1FFF80
0FFF00
03FE00
ENDCHAR
STARTCHAR 025A
ENCODING 602
SWIDTH 765 0
DWIDTH 34 0
BBX 33 24 2 0
BITMAP
0FFC000000
7FFF000000
7FFF800000
780FC00000
4003E00000
0001E00000
0001F00000
0000F38000
0000FF8000
0003FFC000
001FFFC000
01FFFBC000
1FFE79E300
FFE071FF80
FF00F0FF80
F000F07E00
7800F00000
7800F00000
7801E00000
3C01E00000
3E07C00000
1FFF800000
0FFF000000
07FE000000
ENDCHAR
STARTCHAR 025B
ENCODING 603
SWIDTH 472 0
DWIDTH 21 0
BBX 18 24 2 0
BITMAP
07FE00
1FFFC0
3FFF80
7E0380
780080
780000
700000
780000
780000
3E0000
1FFC00
07FC00
1FFC00
3E0000
780000
F00000
F00000
F00000
F00000
F80000
7C01C0
7FFFC0
3FFFC0
0FFF00
ENDCHAR
STARTCHAR 025C
ENCODING 604
SWIDTH 472 0
DWIDTH 21 0
BBX 19 24 1 0
BITMAP
1FFC00
7FFF00
7FFF80
380F80
0003C0
0003C0
0003C0
0003C0
000780
000F80
07FE00
07FC00
07FF00
001F80
0003C0
0003E0
0001E0
0001E0
0001E0
8003C0
E007C0
FFFF80
FFFF00
3FFE00
ENDCHAR
STARTCHAR 025D
ENCODING 605
SWIDTH 697 0
DWIDTH 31 0
BBX 30 24 1 0
BITMAP
1FFC0000
7FFF0000
7FFF8000
380F8C00
0003FE00
0003FE00
0003FE00
0003CF00
00078F0C
000F87FC
07FE07FC
07FC03F8
07FF0000
001F8000
0003C000
0003E000
0001E000
0001E000
0001E000
8003C000
E007C000
FFFF8000
FFFF0000
3FFE0000
ENDCHAR
STARTCHAR 025E
ENCODING 606
SWIDTH 585 0
DWIDTH 26 0
BBX 23 24 2 0
BITMAP
00FFC0
07FFE0
0FFFF8
1F80F8
3E007C
3C003C
7C003C
78003C
780038
7800F8
F83FF0
F83F80
F03FF0
F803F8
78003C
78003C
78001E
7C001E
3C001E
3E003C
1F80FC
0FFFF8
07FFF0
01FFC0
ENDCHAR
STARTCHAR 025F
ENCODING 607
SWIDTH 247 0
DWIDTH 11 0
BBX 13 35 -2 -11
BITMAP
03C0
03C0
03C0
03C0
03C0
03C0
03C0
03C0
03C0
03C0
3FF8
3FF8
3FF8
03C0
03C0
03C0
03C0
03C0
03C0
03C0
03C0
03C0
03C0
03C0
03C0
03C0
03C0
03C0
03C0
03C0
0780
FF80
FF00
FE00
7000
ENDCHAR
STARTCHAR 0260
ENCODING 608
SWIDTH 607 0
DWIDTH 27 0
BBX 26 45 2 -11
BITMAP
00000FC0
00001FC0
00003FC0
00003E40
00003C00
00003C00
00003C00
00003C00
00003C00
00003C00
03FC3C00
07FF3C00
1FFFBC00
1F03FC00
3E01FC00
3C00FC00
78007C00
78007C00
78007C00
78003C00
F8003C00
F0003C00
F0003C00
F0003C00
78003C00
78007C00
78007C00
78007C00
7C007C00
3E00FC00
3F01FC00
1FFFBC00
0FFF3C00
03FE3C00
00003C00
00003800
00007800
00007800
00007800
0000F800
3801F000
3FFFE000
3FFFC000
1FFF8000
007C0000
ENDCHAR
STARTCHAR 0261
ENCODING 609
SWIDTH 607 0
DWIDTH 27 0
BBX 22 35 2 -11
BITMAP
03FC3C
07FF3C
0FFFBC
1F03FC
3E01FC
3C00FC
7C007C
78007C
78007C
78003C
F8003C
F0003C
F0003C
F8003C
78003C
78003C
78007C
78007C
7C007C
3E00FC
1F01FC
1FFFBC
0FFF3C
03FE3C
00003C
00003C
000078
000078
000078
0000F8
3801F0
3FFFE0
3FFFC0
1FFF80
017C00
ENDCHAR
STARTCHAR 0262
ENCODING 610
SWIDTH 562 0
DWIDTH 25 0
BBX 20 24 2 0
BITMAP
00FFC0
07FFF0
0FFFE0
1FC1E0
3F0020
3C0000
7C0000
780000
780000
780000
F80000
F81FF0
F01FF0
F81FF0
7800F0
7800F0
7800F0
7800F0
3C00F0
3E00F0
1F00F0
1FFFF0
07FFF0
03FFC0
ENDCHAR
STARTCHAR 0263
ENCODING 611
SWIDTH 495 0
DWIDTH 22 0
BBX 22 35 0 -11
BITMAP
F0003C
78003C
78007C
7C0078
3C0078
3C00F0
1E00F0
1E01E0
0F01E0
0F03C0
0783C0
0783C0
078780
03C780
03CF00
01EF00
01EE00
00FE00
00FC00
007C00
007800
00FC00
00FC00
00FE00
01EE00
01CF00
03CF00
03C700
03C700
03C700
03C700
01FF00
01FE00
00FC00
001000
ENDCHAR
STARTCHAR 0264
ENCODING 612
SWIDTH 495 0
DWIDTH 22 0
BBX 23 24 0 0
BITMAP
F0003E
F8007E
FC00FE
3E00F0
1F01E0
0F03C0
0783C0
03C780
03CF00
01EE00
00FE00
00FC00
007800
00FC00
00FE00
01EE00
01CF00
03C700
03C700
03C700
03CF00
03FF00
01FE00
00FC00
ENDCHAR
STARTCHAR 0265
ENCODING 613
SWIDTH 607 0
DWIDTH 27 0
BBX 20 34 4 -10
BITMAP
E000F0
E000F0
E000F0
E000F0
E000F0
E000F0
E000F0
E000F0
E000F0
E000F0
E000F0
E000F0
E000F0
E000F0
E000F0
E000F0
F001F0
F001F0
F001F0
F803F0
FC0FF0
7FFEF0
3FFCF0
1FF8F0
0000F0
0000F0
0000F0
0000F0
0000F0
0000F0
0000F0
0000F0
0000F0
0000F0
ENDCHAR
STARTCHAR 0266
ENCODING 614
SWIDTH 607 0
DWIDTH 27 0
BBX 20 34 4 0
BITMAP
1F0000
7F0000
FF0000
F90000
F00000
F00000
F00000
F00000
F00000
F00000
F1FF00
F3FF80
FFFFC0
FF07E0
FC01E0
F801F0
F800F0
F000F0
F000F0
F000F0
F000F0
F000F0
F000F0
F000F0
F000F0
F000F0
F000F0
F000F0
F000F0
F000F0
F000F0
F000F0
F000F0
F000F0
ENDCHAR
STARTCHAR 0267
ENCODING 615
SWIDTH 607 0
DWIDTH 27 0
BBX 20 45 4 -11
BITMAP
1F0000
7F0000
FF0000
F90000
F00000
F00000
F00000
F00000
F00000
F00000
F1FF00
F3FF80
FFFFC0
FF07E0
FC01E0
F801F0
F800F0
F000F0
F000F0
F000F0
F000F0
F000F0
F000F0
F000F0
F000F0
F000F0
F000F0
F000F0
F000F0
F000F0
F000F0
F000F0
F000F0
F000F0
0000F0
0000F0
0000F0
0000F0
0000F0
0000F0
0000F0
000FE0
000FE0
000FC0
000700
ENDCHAR
STARTCHAR 0268
ENCODING 616
SWIDTH 247 0
DWIDTH 11 0
BBX 11 33 0 0
BITMAP
0600
0F00
1F00
0F00
0E00
0000
0000
0000
0000
0F00
0F00
0F00
0F00
0F00
0F00
0F00
0F00
0F00
0F00
FFE0
FFE0
FFE0
0F00
0F00
0F00
0F00
0F00
0F00
0F00
0F00
0F00
0F00
0F00
ENDCHAR
STARTCHAR 0269
ENCODING 617
SWIDTH 315 0
DWIDTH 14 0
BBX 10 24 4 0
BITMAP
F000
F000
F000
F000
F000
F000
F000
F000
F000
F000
F000
F000
F000
F000
F000
F000
F000
F000
F000
F000
F800
7FC0
7FC0
3FC0
ENDCHAR
STARTCHAR 026A
ENCODING 618
SWIDTH 315 0
DWIDTH 14 0
BBX 11 24 2 0
BITMAP
FFE0
FFE0
FFE0
1E00
1E00
1E00
1E00
1E00
1E00
1E00
1E00
1E00
1E00
1E00
1E00
1E00
1E00
1E00
1E00
1E00
1E00
FFC0
FFE0
FFE0
ENDCHAR
STARTCHAR 026B
ENCODING 619
SWIDTH 360 0
DWIDTH 16 0
BBX 17 34 0 0
BITMAP
03C000
03C000
03C000
03C000
03C000
03C000
03C000
03C000
03C000
03C000
03C000
03C000
03C000
03C000
1FC380
3FC300
7FEF00
73FF00
E3FE00
E3D800
03C000
03C000
03C000
03C000
03C000
03C000
03C000
03C000
03C000
03C000
03C000
03C000
03C000
03C000
ENDCHAR
STARTCHAR 026C
ENCODING 620
SWIDTH 337 0
DWIDTH 15 0
BBX 15 34 0 0
BITMAP
01C0
01C0
01C0
01C0
01C0
01C0
01C0
01C0
01C0
01C0
01C0
01C0
7FC0
FFC0
FFC0
E3C0
E1C0
F9C0
FFFE
7FFE
3FFE
01C0
01C0
01C0
01C0
01C0
01C0
01C0
01C0
01C0
01C0
01C0
01C0
01C0
ENDCHAR
STARTCHAR 026D
ENCODING 621
SWIDTH 247 0
DWIDTH 11 0
BBX 10 45 4 -11
BITMAP
F000
F000
F000
F000
F000
F000
F000
F000
F000
F000
F000
F000
F000
F000
F000
F000
F000
F000
F000
F000
F000
F000
F000
F000
F000
F000
F000
F000
F000
F000
F000
F000
F000
F000
F000
F000
F000
F000
F000
F000
F800
7FC0
7FC0
3FC0
0700
ENDCHAR
STARTCHAR 026E
ENCODING 622
SWIDTH 652 0
DWIDTH 29 0
BBX 24 45 4 -11
BITMAP
F00000
F00000
F00000
F00000
F00000
F00000
F00000
F00000
F00000
F00000
FFFFFC
FFFFFC
FFFFFC
F0003C
F00078
F000F0
F001E0
F003C0
F007C0
F00F80
F00F00
F01E00
F03C00
F07800
F0FF80
F0FFE0
F0FFF8
F001FC
F0007C
F0003E
F0001E
F0001E
F0000F
F0000F
00000F
00000F
00001E
00001E
00003E
00003C
0C00FC
0FFFF8
0FFFF0
07FFC0
00BC00
ENDCHAR
STARTCHAR 026F
ENCODING 623
SWIDTH 922 0
DWIDTH 41 0
BBX 34 24 4 0
BITMAP
E001E003C0
E001E003C0
E001E003C0
E001E003C0
E001E003C0
E001E003C0
E001E003C0
E001E003C0
E001E003C0
E001E003C0
E001E003C0
E001E003C0
E001E003C0
E001E003C0
E001E003C0
E001E003C0
F003E007C0
F003E007C0
F003E007C0
F007F00FC0
FC0EF81FC0
7FFEFFFBC0
3FFC7FF3C0
1FF03FE1C0
ENDCHAR
STARTCHAR 0270
ENCODING 624
SWIDTH 922 0
DWIDTH 41 0
BBX 34 35 4 -11
BITMAP
E001E003C0
E001E003C0
E001E003C0
E001E003C0
E001E003C0
E001E003C0
E001E003C0
E001E003C0
E001E003C0
E001E003C0
E001E003C0
E001E003C0
E001E003C0
E001E003C0
E001E003C0
E001E003C0
F003E007C0
F003E007C0
F003E007C0
F007F00FC0
FC0EF81FC0
7FFEFFFBC0
3FFC7FF3C0
1FF03FE3C0
00000003C0
00000003C0
00000003C0
00000003C0
00000003C0
00000003C0
00000003C0
00000003C0
00000003C0
00000003C0
00000003C0
ENDCHAR
STARTCHAR 0271
ENCODING 625
SWIDTH 922 0
DWIDTH 41 0
BBX 34 35 4 -11
BITMAP
E1FE03FC00
E7FF0FFF00
EFFF9FFF80
FE0FFC0F80
FC03F80780
F803F007C0
F001E003C0
F001E003C0
F001E003C0
F001E003C0
F001E003C0
F001E003C0
F001E003C0
F001E003C0
F001E003C0
F001E003C0
F001E003C0
F001E003C0
F001E003C0
F001E003C0
F001E003C0
F001E003C0
F001E003C0
F001E003C0
00000003C0
00000003C0
00000003C0
00000003C0
00000003C0
00000003C0
00000003C0
0000003F80
0000003F80
0000003F00
0000001C00
ENDCHAR
STARTCHAR 0272
ENCODING 626
SWIDTH 607 0
DWIDTH 27 0
BBX 25 35 -1 -11
BITMAP
070FF800
073FFC00
077FFE00
07F83F00
07E00F00
07C00F80
07C00780
07800780
07800780
07800780
07800780
07800780
07800780
07800780
07800780
07800780
07800780
07800780
07800780
07800780
07800780
07800780
07800780
07800780
07800000
07800000
07800000
07800000
07800000
07800000
0F000000
FF000000
FE000000
FE000000
70000000
ENDCHAR
STARTCHAR 0273
ENCODING 627
SWIDTH 607 0
DWIDTH 27 0
BBX 25 35 4 -11
BITMAP
E1FF0000
E7FF8000
EFFFC000
FF07E000
FC01E000
F801F000
F800F000
F000F000
F000F000
F000F000
F000F000
F000F000
F000F000
F000F000
F000F000
F000F000
F000F000
F000F000
F000F000
F000F000
F000F000
F000F000
F000F000
F000F000
0000F000
0000F000
0000F000
0000F000
0000F000
0000F000
0000F000
00007F80
00007F80
00003F80
00000E00
ENDCHAR
STARTCHAR 0274
ENCODING 628
SWIDTH 630 0
DWIDTH 28 0
BBX 20 24 4 0
BITMAP
F80070
F80070
FC0070
FE0070
FE0070
EF0070
EF8070
E78070
E3C070
E3E070
E1E070
E0F070
E0F070
E07870
E07C70
E03C70
E01E70
E01F70
E00F70
E007F0
E007F0
E003F0
E001F0
E001F0
ENDCHAR
STARTCHAR 0275
ENCODING 629
SWIDTH 585 0
DWIDTH 26 0
BBX 22 24 2 0
BITMAP
01FF00
07FFC0
0FFFE0
1F83F0
3E00F8
3C0078
78007C
78003C
78003C
78003C
FFFFFC
FFFFFC
FFFFFC
F0003C
78003C
78003C
78003C
78003C
3C0078
3E00F8
1F01F0
0FFFE0
07FFC0
01FF00
ENDCHAR
STARTCHAR 0276
ENCODING 630
SWIDTH 855 0
DWIDTH 38 0
BBX 34 24 2 0
BITMAP
01FE3FFFC0
07FFBFFFC0
0FFFFFFFC0
1F83FC0000
3E00FC0000
3C007C0000
7C007C0000
78003C0000
78003C0000
78003C0000
F8003FFF80
F0003FFF80
F0003FFF80
F8003C0000
78003C0000
78003C0000
78003C0000
78007C0000
3C007C0000
3E00FC0000
1F01FC0000
0FFFFFFFC0
07FFBFFFC0
01FF3FFFC0
ENDCHAR
STARTCHAR 0277
ENCODING 631
SWIDTH 765 0
DWIDTH 34 0
BBX 30 24 2 0
BITMAP
003FF800
01FFFF00
03FFFF80
0FE01FC0
1F8003E0
1F0001F0
3E0000F8
3C000078
78000078
7800003C
7803803C
7803803C
7003803C
F003803C
F003803C
7007803C
7807803C
7807803C
7807C07C
7C07C078
3E0FE0F8
1FFEFFF0
1FFC7FE0
07F83FC0
ENDCHAR
STARTCHAR 0278
ENCODING 632
SWIDTH 720 0
DWIDTH 32 0
BBX 28 45 2 -11
BITMAP
000F0000
000F0000
000F0000
000F0000
000F0000
000F0000
000F0000
000F0000
000F0000
000F0000
007FE000
03FFFC00
07FFFE00
1FCF3F80
1F0F0F80
3E0F03C0
7C0F03E0
780F01E0
780F01E0
780F01F0
F80F00F0
F80F00F0
F00F00F0
F80F00F0
780F00F0
780F01E0
780F01E0
7C0F03E0
3C0F03C0
1E0F07C0
1F8F1F80
0FFFFF00
03FFFC00
00FFF000
000F0000
000F0000
000F0000
000F0000
000F0000
000F0000
000F0000
000F0000
000F0000
000F0000
000F0000
ENDCHAR
STARTCHAR 0279
ENCODING 633
SWIDTH 405 0
DWIDTH 18 0
BBX 14 24 1 0
BITMAP
003C
003C
003C
003C
003C
003C
003C
003C
003C
003C
003C
003C
003C
003C
003C
007C
007C
00FC
00FC
01FC
07BC
FF3C
FE3C
FC3C
ENDCHAR
STARTCHAR 027A
ENCODING 634
SWIDTH 405 0
DWIDTH 18 0
BBX 14 34 1 0
BITMAP
003C
003C
003C
003C
003C
003C
003C
003C
003C
003C
003C
003C
003C
003C
003C
003C
003C
003C
003C
003C
003C
003C
003C
003C
003C
007C
007C
00FC
00FC
01FC
07BC
FF3C
FE3C
FC3C
ENDCHAR
STARTCHAR 027B
ENCODING 635
SWIDTH 405 0
DWIDTH 18 0
BBX 19 35 1 -11
BITMAP
003C00
003C00
003C00
003C00
003C00
003C00
003C00
003C00
003C00
003C00
003C00
003C00
003C00
003C00
003C00
007C00
007C00
00FC00
00FC00
01FC00
07BC00
FF3C00
FE3C00
FC3C00
003C00
003C00
003C00
003C00
003C00
003C00
003C00
003FE0
001FE0
000FE0
000380
ENDCHAR
STARTCHAR 027C
ENCODING 636
SWIDTH 405 0
DWIDTH 18 0
BBX 14 35 4 -11
BITMAP
E0FC
E3FC
E7F8
EF80
EE00
FC00
F800
F000
F000
F000
F000
F000
F000
F000
F000
F000
F000
F000
F000
F000
F000
F000
F000
F000
F000
F000
F000
F000
F000
F000
F000
F000
F000
F000
F000
ENDCHAR
STARTCHAR 027D
ENCODING 637
SWIDTH 405 0
DWIDTH 18 0
BBX 14 35 4 -11
BITMAP
E0FC
E3FC
E7F8
EF80
EE00
FC00
F800
F000
F000
F000
F000
F000
F000
F000
F000
F000
F000
F000
F000
F000
F000
F000
F000
F000
F000
F000
F000
F000
F000
F000
F800
7FC0
7FC0
3FC0
0700
ENDCHAR
STARTCHAR 027E
ENCODING 638
SWIDTH 337 0
DWIDTH 15 0
BBX 11 24 4 0
BITMAP
1FE0
7FC0
7FC0
F840
F000
F000
F000
F000
F000
F000
F000
F000
F000
F000
F000
F000
F000
F000
F000
F000
F000
F000
F000
F000
ENDCHAR
STARTCHAR 027F
ENCODING 639
SWIDTH 337 0
DWIDTH 15 0
BBX 11 35 1 -11
BITMAP
FF00
FF80
FFC0
87C0
03C0
01E0
01E0
01E0
01E0
01E0
01E0
01E0
01E0
01E0
01E0
01E0
01E0
01E0
01E0
01E0
01E0
01E0
01E0
01E0
01E0
01E0
01E0
01E0
01E0
01E0
01E0
01E0
01E0
01E0
01E0
ENDCHAR
STARTCHAR 0280
ENCODING 640
SWIDTH 540 0
DWIDTH 24 0
BBX 20 24 4 0
BITMAP
FFF800
FFFF00
FFFF80
F01FC0
F003C0
F001E0
F001E0
F001E0
F001E0
F003E0
F007C0
FFFFC0
FFFF80
FFFE00
FFFC00
F03C00
F01E00
F01F00
F00F00
F00780
F007C0
F003C0
F001E0
F001F0
ENDCHAR
STARTCHAR 0281
ENCODING 641
SWIDTH 540 0
DWIDTH 24 0
BBX 20 24 4 0
BITMAP
F001F0
F001E0
F003E0
F007C0
F00780
F00F80
F01F00
F01E00
F03C00
F03C00
FFFC00
FFFF00
FFFF80
F007C0
F003E0
F001E0
F001E0
F001E0
F001E0
F003C0
F00FC0
FFFF80
FFFF00
FFFC00
ENDCHAR
STARTCHAR 0282
ENCODING 642
SWIDTH 472 0
DWIDTH 21 0
BBX 17 33 2 -9
BITMAP
0FFE00
1FFF80
7FFF00
7C0700
F00000
F00000
F00000
F80000
7C0000
7F0000
3FE000
0FF800
03FE00
00FF00
001F80
000F80
000780
000780
000780
800780
E00F80
FFFF00
FFFE00
FFF800
F00000
F00000
F00000
F00000
780000
7E4000
3FC000
3FC000
078000
ENDCHAR
STARTCHAR 0283
ENCODING 643
SWIDTH 247 0
DWIDTH 11 0
BBX 14 45 -1 -11
BITMAP
00F8
01FC
03FC
07C4
0780
0780
0780
0780
0780
0780
0780
0780
0780
0780
0780
0780
0780
0780
0780
0780
0780
0780
0780
0780
0780
0780
0780
0780
0780
0780
0780
0780
0780
0780
0780
0780
0780
0780
0780
0780
0F00
FF00
FE00
FE00
7000
ENDCHAR
STARTCHAR 0284
ENCODING 644
SWIDTH 247 0
DWIDTH 11 0
BBX 14 45 -1 -11
BITMAP
00F8
01FC
03FC
07C4
0780
0780
0780
0780
0780
0780
0780
0780
0780
0780
0780
0780
0780
0780
0780
0780
7FF0
7FF0
7FF0
0780
0780
0780
0780
0780
0780
0780
0780
0780
0780
0780
0780
0780
0780
0780
0780
0780
0F00
FF00
FE00
FE00
7000
ENDCHAR
STARTCHAR 0285
ENCODING 645
SWIDTH 247 0
DWIDTH 11 0
BBX 14 35 -1 -11
BITMAP
FC00
FE00
FF00
0F00
0F80
0780
0780
0780
0780
0780
0780
0780
0780
0780
0780
0780
0780
0780
0780
0780
0780
0780
0780
0780
0780
0780
0780
0780
0780
0780
0780
07FC
03FC
01FC
0070
ENDCHAR
STARTCHAR 0286
ENCODING 646
SWIDTH 247 0
DWIDTH 11 0
BBX 18 45 -5 -11
BITMAP
000F80
001FC0
003FC0
007C40
007800
007800
007800
007800
007800
007800
007800
007800
007800
007800
007800
007800
007800
007800
007800
007800
007800
007800
007800
007800
007800
007800
007800
007800
007800
007800
007800
007800
007800
007800
1FFF00
3FFF00
7FFF00
F87800
F07800
F07000
F0F000
7FF000
7FE000
3FC000
070000
ENDCHAR
STARTCHAR 0287
ENCODING 647
SWIDTH 360 0
DWIDTH 16 0
BBX 14 29 1 -5
BITMAP
FF00
FF80
FFC0
07C0
03E0
01E0
01E0
01E0
01E0
01E0
01E0
01E0
01E0
01E0
01E0
01E0
01E0
01E0
01E0
01E0
01E0
FFFC
FFFC
FFF8
01E0
01E0
01C0
01C0
01C0
ENDCHAR
STARTCHAR 0288
ENCODING 648
SWIDTH 360 0
DWIDTH 16 0
BBX 14 40 1 -11
BITMAP
0E00
0E00
0E00
0E00
1E00
3FFC
FFFC
FFFC
1E00
1E00
1E00
1E00
1E00
1E00
1E00
1E00
1E00
1E00
1E00
1E00
1E00
1E00
1E00
1E00
1E00
1E00
1E00
1E00
1E00
1E00
1E00
1E00
1E00
1E00
1E00
1F00
0FFC
07FC
03FC
00F0
ENDCHAR
STARTCHAR 0289
ENCODING 649
SWIDTH 607 0
DWIDTH 27 0
BBX 27 24 0 0
BITMAP
0E000F00
0E000F00
0E000F00
0E000F00
0E000F00
0E000F00
0E000F00
0E000F00
0E000F00
0E000F00
FFFFFFE0
FFFFFFE0
FFFFFFE0
0E000F00
0E000F00
0E000F00
0E001F00
0F001F00
0F001F00
0F803F00
0FC0FF00
07FFEF00
03FFCF00
01FF8F00
ENDCHAR
STARTCHAR 028A
ENCODING 650
SWIDTH 585 0
DWIDTH 26 0
BBX 25 24 1 0
BITMAP
FFE3FF80
FFE3FF80
FFE3FF80
03C1E000
0780F000
0F007800
1E003C00
1E003C00
3C001E00
3C001E00
3C001E00
7C001E00
7C001E00
78001E00
7C001E00
3C001E00
3C001E00
3C001E00
3E003C00
1F007C00
0F80F800
07FFF000
03FFE000
00FFC000
ENDCHAR
STARTCHAR 028B
ENCODING 651
SWIDTH 607 0
DWIDTH 27 0
BBX 20 24 4 0
BITMAP
F03F80
F03FC0
F03FE0
F001E0
F001F0
F000F0
F000F0
F000F0
F000F0
F000F0
F000F0
F000F0
F000F0
F000F0
F000F0
F000F0
F000F0
F001E0
F001E0
7803E0
7C07C0
3FFFC0
1FFF00
0FFE00
ENDCHAR
STARTCHAR 028C
ENCODING 652
SWIDTH 495 0
DWIDTH 22 0
BBX 22 24 0 0
BITMAP
007C00
007C00
00FC00
00FE00
01EE00
01EF00
01CF00
03CF00
03C780
078780
078380
0783C0
0F03C0
0F01E0
0F01E0
1E01E0
1E00F0
3E00F0
3C00F0
3C0078
780078
78007C
78003C
F0003C
ENDCHAR
STARTCHAR 028D
ENCODING 653
SWIDTH 765 0
DWIDTH 34 0
BBX 33 24 1 0
BITMAP
03E003E000
03E003E000
07E003F000
07F007F000
0770077000
0770077000
0F780F7800
0F780F7800
0F380E7800
0E3C1E3800
1E3C1E3C00
1E3C1E3C00
1E1C1C3C00
3C1E3C1E00
3C1E3C1E00
3C0E381E00
380F781E00
780F780F00
7807700F00
7807700F00
F007F00F00
F003E00780
F003E00780
F003E00780
ENDCHAR
STARTCHAR 028E
ENCODING 654
SWIDTH 495 0
DWIDTH 22 0
BBX 22 34 0 0
BITMAP
0001FC
0003FC
0007FC
000F80
001F00
001E00
003C00
003C00
003C00
007800
007800
007C00
00FC00
00FC00
01FE00
01EE00
01CF00
03CF00
03C700
078780
078780
0783C0
0F03C0
0F03C0
0F01E0
1E01E0
1E00F0
3E00F0
3C00F0
3C0078
780078
78007C
78003C
F0003C
ENDCHAR
STARTCHAR 028F
ENCODING 655
SWIDTH 472 0
DWIDTH 21 0
BBX 21 24 0 0
BITMAP
F800F8
7800F0
7C01F0
3C01E0
1E03C0
1E03C0
0F0780
078780
078F00
03DE00
03DE00
01FC00
00FC00
00F800
007800
007800
007800
007800
007800
007800
007800
007800
007800
007800
ENDCHAR
STARTCHAR 0290
ENCODING 656
SWIDTH 450 0
DWIDTH 20 0
BBX 22 35 2 -11
BITMAP
FFFF80
FFFF80
FFFF80
000F80
000F00
001E00
003C00
007C00
007800
00F000
01F000
01E000
03C000
07C000
078000
0F0000
1E0000
3E0000
3C0000
780000
F80000
FFFF80
FFFF80
FFFF80
000780
000780
000780
000780
000380
000380
0003C0
0003FC
0001FC
0001FC
000078
ENDCHAR
STARTCHAR 0291
ENCODING 657
SWIDTH 540 0
DWIDTH 24 0
BBX 22 28 2 -4
BITMAP
FFFF80
FFFF80
FFFF80
000F80
000F00
001E00
003C00
007C00
007800
00F000
01F000
01E000
03C000
07C000
0787E0
0F0FF0
1E1FF8
3E3C3C
3C783C
78703C
F8F078
FFFFF8
FFFFF0
FFFFC0
03C000
038000
078000
008000
ENDCHAR
STARTCHAR 0292
ENCODING 658
SWIDTH 495 0
DWIDTH 22 0
BBX 20 35 1 -11
BITMAP
FFFFC0
FFFFC0
FFFFC0
0003C0
000780
000F00
001E00
003C00
007C00
00F800
01F000
01E000
03C000
078000
0FF000
0FFE00
0FFF00
001F80
0007C0
0003E0
0001E0
0001E0
0000F0
0000F0
0000F0
0000F0
0001E0
0001E0
0003E0
0007C0
C00FC0
FFFF80
FFFE00
FFFC00
0BC000
ENDCHAR
STARTCHAR 0293
ENCODING 659
SWIDTH 495 0
DWIDTH 22 0
BBX 24 35 -1 -11
BITMAP
3FFFF0
3FFFF0
3FFFF0
0000F0
0001E0
0003C0
000780
000F00
001F00
003E00
007C00
007800
00F000
01E000
03FC00
03FF80
03FFC0
0007E0
0001F0
0000F8
000078
000078
00003C
0FF03C
3FFC3C
7FFF3C
F83FF8
F007F8
F001F8
F001F8
F807FC
7FFFFE
3FFF9F
1FFE0E
03E004
ENDCHAR
STARTCHAR 0294
ENCODING 660
SWIDTH 405 0
DWIDTH 18 0
BBX 17 34 1 0
BITMAP
0FE000
7FF800
FFFE00
F87E00
401F00
000F00
000F80
000780
000780
000780
000780
000F00
000F00
001F00
003E00
007C00
00F800
03F000
07E000
078000
070000
070000
070000
070000
070000
070000
070000
070000
070000
070000
070000
070000
070000
070000
ENDCHAR
ENDFONT
